<?xml version="1.0" encoding="UTF-8" standalone="no"?>
<svg
   width="1233.07pt"
   height="737.008pt"
   viewBox="0 0 1233.07 737.008"
   version="1.2"
   id="svg53"
   sodipodi:docname="Stramien Illustrator.svg"
   inkscape:version="1.1.2 (0a00cf5339, 2022-02-04)"
   xmlns:inkscape="http://www.inkscape.org/namespaces/inkscape"
   xmlns:sodipodi="http://sodipodi.sourceforge.net/DTD/sodipodi-0.dtd"
   xmlns="http://www.w3.org/2000/svg"
   xmlns:svg="http://www.w3.org/2000/svg">
  <sodipodi:namedview
     id="namedview55"
     pagecolor="#ffffff"
     bordercolor="#666666"
     borderopacity="1.0"
     inkscape:pageshadow="2"
     inkscape:pageopacity="0.0"
     inkscape:pagecheckerboard="0"
     inkscape:document-units="pt"
     showgrid="false"
     inkscape:zoom="0.53608091"
     inkscape:cx="869.27177"
     inkscape:cy="468.21291"
     inkscape:window-width="1920"
     inkscape:window-height="1043"
     inkscape:window-x="0"
     inkscape:window-y="0"
     inkscape:window-maximized="1"
     inkscape:current-layer="svg53" />
  <defs
     id="defs14">
    <clipPath
       id="clip1">
      <path
         d="M 510 2 L 511 2 L 511 737.007812 L 510 737.007812 Z M 510 2 "
         id="path2" />
    </clipPath>
    <clipPath
       id="clip2">
      <path
         d="M 538 2 L 539 2 L 539 737.007812 L 538 737.007812 Z M 538 2 "
         id="path5" />
    </clipPath>
    <clipPath
       id="clip3">
      <path
         d="M 1020 2 L 1021 2 L 1021 737.007812 L 1020 737.007812 Z M 1020 2 "
         id="path8" />
    </clipPath>
    <clipPath
       id="clip4">
      <path
         d="M 1034 2 L 1035 2 L 1035 737.007812 L 1034 737.007812 Z M 1034 2 "
         id="path11" />
    </clipPath>
  </defs>
  <path
     style="fill:#ffffff;fill-opacity:1;fill-rule:evenodd;stroke:none"
     d="M 28.347656,30.234375 H 1204.3477 V 710.23437 H 28.347656 Z m 0,0"
     id="path16" />
  <g
     clip-path="url(#clip1)"
     clip-rule="nonzero"
     id="g20">
    <path
       style="fill:none;stroke:#000000;stroke-width:0.125;stroke-linecap:butt;stroke-linejoin:miter;stroke-miterlimit:10;stroke-opacity:1"
       d="M -0.00141875,7e-4 V -736.46024"
       transform="matrix(1,0,0,-1,510.2397,2.4382)"
       id="path18" />
  </g>
  <g
     clip-path="url(#clip2)"
     clip-rule="nonzero"
     id="g24">
    <path
       style="fill:none;stroke:#000000;stroke-width:0.125;stroke-linecap:butt;stroke-linejoin:miter;stroke-miterlimit:10;stroke-opacity:1"
       d="M -4.625e-4,1.9375e-4 V -736.44902"
       transform="matrix(1,0,0,-1,538.5864,2.4416)"
       id="path22" />
  </g>
  <g
     clip-path="url(#clip3)"
     clip-rule="nonzero"
     id="g28">
    <path
       style="fill:none;stroke:#000000;stroke-width:0.125;stroke-linecap:butt;stroke-linejoin:miter;stroke-miterlimit:10;stroke-opacity:1"
       d="M -3.75e-5,6.9375e-4 V -736.44853"
       transform="matrix(1,0,0,-1,1020.4766,2.4421)"
       id="path26" />
  </g>
  <g
     clip-path="url(#clip4)"
     clip-rule="nonzero"
     id="g32">
    <path
       style="fill:none;stroke:#000000;stroke-width:0.125;stroke-linecap:butt;stroke-linejoin:miter;stroke-miterlimit:10;stroke-opacity:1"
       d="M -9.625e-4,0.0012 V -736.45974"
       transform="matrix(1,0,0,-1,1034.6494,2.4387)"
       id="path30" />
  </g>
  <path
     style="fill:#00abee;fill-opacity:1;fill-rule:evenodd;stroke:none"
     d="M 22.675781,24.5625 H 1026.1484 V 716.21484 H 22.675781 Z m 0,0"
     id="path34" />
  <path
     style="fill:#00abee;fill-opacity:1;fill-rule:evenodd;stroke:none"
     d="m 1028.9766,24.5625 h 181.4218 v 691.65234 h -181.4218 z m 0,0"
     id="path36" />
  <path
     style="fill:#211e1e;fill-opacity:1;fill-rule:nonzero;stroke:none"
     d="m 514.69922,16.148438 h -0.0156 l -0.90625,0.488281 -0.13281,-0.535157 1.13281,-0.609374 h 0.60157 v 5.203124 h -0.67969 z m 0,0"
     id="path38" />
  <path
     style="fill:#211e1e;fill-opacity:1;fill-rule:nonzero;stroke:none"
     d="m 518.96484,20.238281 c 0.71094,0 1.05469,-0.839843 1.05469,-2.167969 0,-1.28125 -0.32031,-2.121093 -1.05469,-2.121093 -0.64062,0 -1.05859,0.816406 -1.05859,2.121093 -0.0156,1.351563 0.40234,2.167969 1.04687,2.167969 z m -0.0351,0.542969 c -1.01563,0 -1.71094,-0.953125 -1.72657,-2.671875 0,-1.75 0.76172,-2.703125 1.81641,-2.703125 1.08594,0 1.71875,0.976562 1.71875,2.632812 0,1.765626 -0.66406,2.742188 -1.80078,2.742188 z m 0,0"
     id="path40" />
  <path
     style="fill:#211e1e;fill-opacity:1;fill-rule:nonzero;stroke:none"
     d="m 523.29687,17.871094 c 0,-0.410156 -0.0156,-0.730469 -0.0312,-1.046875 h 0.61719 l 0.0312,0.621093 h 0.0234 c 0.21875,-0.367187 0.57812,-0.710937 1.22656,-0.710937 0.51953,0 0.91797,0.320313 1.08594,0.777344 h 0.0156 c 0.1211,-0.226563 0.28125,-0.386719 0.44141,-0.503907 0.23047,-0.175781 0.48047,-0.273437 0.84766,-0.273437 0.51953,0 1.28125,0.335937 1.28125,1.679687 v 2.28125 h -0.6875 v -2.191406 c 0,-0.753906 -0.28125,-1.195312 -0.83985,-1.195312 -0.41015,0 -0.71484,0.296875 -0.83984,0.632812 -0.0352,0.105469 -0.0586,0.234375 -0.0586,0.351563 v 2.402343 h -0.6875 V 18.375 c 0,-0.625 -0.27344,-1.066406 -0.8086,-1.066406 -0.42969,0 -0.75781,0.355468 -0.87109,0.707031 -0.0391,0.101563 -0.0547,0.222656 -0.0547,0.34375 v 2.335937 h -0.69141 z m 0,0"
     id="path42" />
  <path
     style="fill:#211e1e;fill-opacity:1;fill-rule:nonzero;stroke:none"
     d="m 529.96875,17.871094 c 0,-0.410156 -0.0156,-0.730469 -0.0312,-1.046875 h 0.61719 l 0.0312,0.621093 h 0.0234 c 0.21875,-0.367187 0.57813,-0.710937 1.22657,-0.710937 0.51953,0 0.91797,0.320313 1.08593,0.777344 h 0.0156 c 0.12109,-0.226563 0.28125,-0.386719 0.44141,-0.503907 0.23046,-0.175781 0.48046,-0.273437 0.84765,-0.273437 0.51953,0 1.28125,0.335937 1.28125,1.679687 v 2.28125 h -0.6875 v -2.191406 c 0,-0.753906 -0.28125,-1.195312 -0.83984,-1.195312 -0.41016,0 -0.71485,0.296875 -0.83985,0.632812 -0.0352,0.105469 -0.0586,0.234375 -0.0586,0.351563 v 2.402343 h -0.6875 V 18.375 c 0,-0.625 -0.27344,-1.066406 -0.80859,-1.066406 -0.42969,0 -0.75782,0.355468 -0.8711,0.707031 -0.0391,0.101563 -0.0547,0.222656 -0.0547,0.34375 v 2.335937 h -0.69141 z m 0,0"
     id="path44" />
  <path
     style="fill:#211e1e;fill-opacity:1;fill-rule:nonzero;stroke:none"
     d="m 1025,18.210938 v 1.984374 l 1.3203,0.199219 c -0.016,-0.121093 -0.031,-0.234375 -0.031,-0.425781 0,-0.40625 0.09,-0.800781 0.2812,-1.117188 0.2227,-0.410156 0.6797,-0.746093 1.3516,-0.746093 1.0156,0 1.7734,0.808593 1.7734,1.9375 0,0.566406 -0.1601,1.039062 -0.3164,1.292969 l -0.5391,-0.175782 c 0.129,-0.214844 0.2891,-0.636718 0.2891,-1.117187 0,-0.65625 -0.4336,-1.234375 -1.1367,-1.226563 -0.6875,0 -1.1602,0.457032 -1.1602,1.488282 0,0.304687 0.023,0.535156 0.059,0.730468 l -2.4804,-0.335937 v -2.488281 z m 0,0"
     id="path46" />
  <path
     style="fill:#211e1e;fill-opacity:1;fill-rule:nonzero;stroke:none"
     d="m 1026.7852,15.289062 c -0.4063,0 -0.7266,0.01563 -1.0469,0.03125 v -0.613281 l 0.6211,-0.03516 v -0.02344 c -0.3672,-0.214844 -0.711,-0.574219 -0.711,-1.222657 0,-0.519531 0.3204,-0.921875 0.7774,-1.089843 v -0.01563 c -0.2227,-0.117187 -0.3828,-0.277343 -0.5039,-0.4375 -0.1758,-0.234374 -0.2735,-0.480468 -0.2735,-0.847656 0,-0.519531 0.336,-1.28125 1.6797,-1.28125 h 2.2813 v 0.6875 h -2.1914 c -0.7539,0 -1.1914,0.28125 -1.1914,0.839844 0,0.410156 0.2929,0.710938 0.6289,0.839844 0.1054,0.03125 0.2343,0.05469 0.3554,0.05469 h 2.3985 v 0.691407 h -2.3203 c -0.625,0 -1.0625,0.269531 -1.0625,0.804687 0,0.433594 0.3515,0.761719 0.7031,0.875 0.1016,0.03906 0.2226,0.05469 0.3437,0.05469 h 2.336 v 0.6875 z m 0,0"
     id="path48" />
  <path
     style="fill:#211e1e;fill-opacity:1;fill-rule:nonzero;stroke:none"
     d="m 1026.7852,8.617188 c -0.4063,0 -0.7266,0.015624 -1.0469,0.03125 V 8.035156 L 1026.3594,8 V 7.976562 c -0.3672,-0.214843 -0.711,-0.574218 -0.711,-1.222656 0,-0.519531 0.3204,-0.921875 0.7774,-1.089844 V 5.648438 c -0.2227,-0.117188 -0.3828,-0.277344 -0.5039,-0.4375 -0.1758,-0.234376 -0.2735,-0.480469 -0.2735,-0.847657 0,-0.519531 0.336,-1.28125 1.6797,-1.28125 h 2.2813 v 0.6875 h -2.1914 c -0.7539,0 -1.1914,0.28125 -1.1914,0.839844 0,0.410156 0.2929,0.710937 0.6289,0.839844 0.1054,0.03125 0.2343,0.058593 0.3554,0.058593 h 2.3985 v 0.6875 h -2.3203 c -0.625,0 -1.0625,0.269532 -1.0625,0.804688 0,0.433594 0.3515,0.761719 0.7031,0.875 0.1016,0.039062 0.2226,0.054688 0.3437,0.054688 h 2.336 v 0.6875 z m 0,0"
     id="path50" />
</svg>
