<?xml version="1.0"?>
 <svg xmlns:xlink="http://www.w3.org/1999/xlink" style="fill-opacity:1; color-rendering:auto; color-interpolation:auto; text-rendering:auto; stroke:black; stroke-linecap:square; stroke-miterlimit:10; shape-rendering:auto; stroke-opacity:1; fill:black; stroke-dasharray:none; font-weight:normal; stroke-width:1; font-family:'Dialog'; font-style:normal; stroke-linejoin:miter; font-size:12px; stroke-dashoffset:0; image-rendering:auto;" width="1130" height="785" xmlns="http://www.w3.org/2000/svg" viewBox="0 0 1130 785"><defs id="genericDefs"></defs><defs id="defs1"><clipPath clipPathUnits="userSpaceOnUse" id="clipPath1"><path d="M0 0 L1130 0 L1130 785 L0 785 L0 0 Z"></path></clipPath></defs><g><g style="stroke-linecap:butt; fill:rgb(107,75,235); text-rendering:geometricPrecision; image-rendering:optimizeQuality; color-rendering:optimizeQuality; stroke-linejoin:round; stroke:rgb(107,75,235); color-interpolation:linearRGB; stroke-width:13.3333;"><path d="M328.6 379.5 L335.0738 379.5981 L341.5416 379.8923 L347.9975 380.3823 L354.4356 381.0677 L360.85 381.9479 L367.2348 383.022 L373.5841 384.289 L379.8921 385.7479 L386.153 387.3972 L392.3611 389.2354 L398.5106 391.2609 L404.5959 393.4717 L410.6115 395.866 L416.5517 398.4414 L422.4112 401.1956 L428.1845 404.126 L433.8665 407.2301 L439.4517 410.5048 L444.9352 413.9473 L450.3118 417.5544 L455.5767 421.3227 L460.725 425.2487 L465.752 429.329 L470.653 433.5597 L475.4237 437.937 L480.0595 442.4568 L484.5562 447.1149 L488.9097 451.9072 L493.1161 456.8292 L497.1714 461.8763 L501.0718 467.0441 L504.814 472.3276 L508.3943 477.7221 L511.8095 483.2226 L515.0566 488.824 L518.1324 494.5212 L521.0342 500.3091 L523.7592 506.1821 L526.3051 512.1351 L528.6695 518.1624 L530.8502 524.2586 L532.8451 530.4181 L534.6525 536.6353 L536.2708 542.9042 L537.6982 549.2194 L538.9338 555.5749 L539.9762 561.965 L540.8245 568.3836 L541.478 574.8251 L541.936 581.2834 L542.1981 587.7526 L542.264 594.2267 L542.1339 600.6999 L541.8076 607.1662 L541.2855 613.6196 L540.5682 620.0543 L539.6562 626.4642 L538.5504 632.8436 L537.2519 639.1865 L535.7618 645.4872 L534.0815 651.7399 L532.2125 657.9387 L530.1565 664.0781 L527.9155 670.1524 L525.4914 676.156 L522.8865 682.0834 L520.1033 687.9291 L517.1442 693.6879 L514.0121 699.3543 L513.6269 700.0038" style="fill:none; fill-rule:evenodd;"></path></g></g></svg> 