<?xml version="1.0"?>
 <svg xmlns:xlink="http://www.w3.org/1999/xlink" style="fill-opacity:1; color-rendering:auto; color-interpolation:auto; text-rendering:auto; stroke:black; stroke-linecap:square; stroke-miterlimit:10; shape-rendering:auto; stroke-opacity:1; fill:black; stroke-dasharray:none; font-weight:normal; stroke-width:1; font-family:'Dialog'; font-style:normal; stroke-linejoin:miter; font-size:12px; stroke-dashoffset:0; image-rendering:auto;" width="1130" height="376" xmlns="http://www.w3.org/2000/svg" viewBox="0 0 1130 376"><defs id="genericDefs"></defs><defs id="defs1"><clipPath clipPathUnits="userSpaceOnUse" id="clipPath1"><path d="M0 0 L1130 0 L1130 376 L0 376 L0 0 Z"></path></clipPath></defs><g><g style="stroke-linecap:butt; fill:rgb(46,133,64); text-rendering:geometricPrecision; image-rendering:optimizeQuality; color-rendering:optimizeQuality; stroke-linejoin:round; stroke:rgb(46,133,64); color-interpolation:linearRGB; stroke-width:8;"><path d="M147 28 L148.7555 30.464 L150.511 32.9181 L152.2665 35.3623 L154.022 37.7966 L155.7776 40.221 L157.5331 42.6355 L159.2886 45.0401 L161.0441 47.4348 L162.7996 49.8197 L164.5551 52.1946 L166.3106 54.5596 L168.0661 56.9148 L169.8216 59.26 L171.5771 61.5954 L173.3327 63.9208 L175.0882 66.2364 L176.8437 68.542 L178.5992 70.8378 L180.3547 73.1237 L182.1102 75.3997 L183.8657 77.6657 L185.6212 79.9219 L187.3768 82.1682 L189.1323 84.4046 L190.8878 86.6311 L192.6433 88.8477 L194.3988 91.0544 L196.1543 93.2512 L197.9098 95.4381 L199.6653 97.6151 L201.4208 99.7823 L203.1763 101.9395 L204.9319 104.0868 L206.6874 106.2243 L208.4429 108.3518 L210.1984 110.4695 L211.9539 112.5772 L213.7094 114.6751 L215.4649 116.763 L217.2204 118.8411 L218.976 120.9092 L220.7315 122.9675 L222.487 125.0159 L224.2425 127.0544 L225.998 129.083 L227.7535 131.1017 L229.509 133.1105 L231.2645 135.1094 L233.02 137.0984 L234.7755 139.0775 L236.5311 141.0467 L238.2866 143.006 L240.0421 144.9554 L241.7976 146.8949 L243.5531 148.8246 L245.3086 150.7443 L247.0641 152.6541 L248.8196 154.5541 L250.5751 156.4441 L252.3307 158.3243 L254.0862 160.1945 L255.8417 162.0549 L257.5972 163.9054 L259.3527 165.746 L261.1082 167.5766 L262.8637 169.3974 L264.6192 171.2083 L266.3748 173.0093 L268.1302 174.8004 L269.8858 176.5816 L271.6413 178.3529 L273.3968 180.1143 L275.1523 181.8658 L276.9078 183.6074 L278.6633 185.3391 L280.4188 187.061 L282.1743 188.7729 L283.9299 190.4749 L285.6854 192.1671 L287.4409 193.8493 L289.1964 195.5216 L290.9519 197.1841 L292.7074 198.8367 L294.4629 200.4793 L296.2184 202.1121 L297.9739 203.7349 L299.7295 205.3479 L301.485 206.951 L303.2405 208.5442 L304.996 210.1275 L306.7515 211.7009 L308.507 213.2643 L310.2625 214.8179 L312.018 216.3616 L313.7736 217.8955 L315.5291 219.4194 L317.2846 220.9334 L319.0401 222.4375 L320.7956 223.9317 L322.5511 225.4161 L324.3066 226.8905 L326.0621 228.3551 L327.8176 229.8097 L329.5732 231.2544 L331.3287 232.6893 L333.0842 234.1143 L334.8397 235.5293 L336.5952 236.9345 L338.3507 238.3298 L340.1062 239.7151 L341.8617 241.0906 L343.6172 242.4562 L345.3727 243.8119 L347.1283 245.1577 L348.8838 246.4936 L350.6393 247.8196 L352.3948 249.1357 L354.1503 250.4419 L355.9058 251.7382 L357.6613 253.0246 L359.4168 254.3012 L361.1724 255.5678 L362.9279 256.8245 L364.6834 258.0714 L366.4389 259.3083 L368.1944 260.5353 L369.9499 261.7525 L371.7054 262.9597 L373.4609 264.1571 L375.2164 265.3446 L376.972 266.5222 L378.7274 267.6898 L380.483 268.8476 L382.2385 269.9955 L383.994 271.1335 L385.7495 272.2616 L387.505 273.3798 L389.2605 274.4881 L391.0161 275.5865 L392.7715 276.675 L394.527 277.7536 L396.2826 278.8223 L398.0381 279.8811 L399.7936 280.9301 L401.5491 281.9691 L403.3046 282.9982 L405.0601 284.0175 L406.8156 285.0268 L408.5711 286.0263 L410.3267 287.0158 L412.0822 287.9955 L413.8377 288.9652 L415.5932 289.9251 L417.3487 290.8751 L419.1042 291.8152 L420.8597 292.7454 L422.6152 293.6656 L424.3707 294.576 L426.1263 295.4765 L427.8818 296.3671 L429.6373 297.2478 L431.3928 298.1186 L433.1483 298.9795 L434.9038 299.8306 L436.6593 300.6717 L438.4148 301.5029 L440.1703 302.3242 L441.9258 303.1357 L443.6814 303.9372 L445.4369 304.7289 L447.1924 305.5106 L448.9479 306.2824 L450.7034 307.0444 L452.4589 307.7965 L454.2144 308.5386 L455.9699 309.2709 L457.7255 309.9933 L459.481 310.7057 L461.2365 311.4084 L462.992 312.101 L464.7475 312.7838 L466.503 313.4567 L468.2585 314.1197 L470.014 314.7728 L471.7695 315.416 L473.5251 316.0493 L475.2806 316.6728 L477.0361 317.2863 L478.7916 317.8899 L480.5471 318.4836 L482.3026 319.0675 L484.0581 319.6414 L485.8136 320.2055 L487.5691 320.7596 L489.3246 321.3039 L491.0802 321.8382 L492.8357 322.3627 L494.5912 322.8773 L496.3467 323.382 L498.1022 323.8767 L499.8577 324.3616 L501.6132 324.8366 L503.3687 325.3017 L505.1243 325.7569 L506.8798 326.2022 L508.6353 326.6376 L510.3908 327.0631 L512.1463 327.4787 L513.9018 327.8844 L515.6573 328.2802 L517.4128 328.6662 L519.1683 329.0422 L520.9238 329.4083 L522.6794 329.7646 L524.4349 330.1109 L526.1904 330.4474 L527.9459 330.7739 L529.7014 331.0906 L531.4569 331.3973 L533.2124 331.6942 L534.968 331.9812 L536.7234 332.2582 L538.4789 332.5254 L540.2345 332.7827 L541.99 333.0301 L543.7455 333.2676 L545.501 333.4952 L547.2565 333.7129 L549.012 333.9207 L550.7675 334.1186 L552.5231 334.3066 L554.2786 334.4847 L556.0341 334.653 L557.7896 334.8113 L559.5451 334.9597 L561.3006 335.0983 L563.0561 335.2269 L564.8116 335.3457 L566.5671 335.4545 L568.3226 335.5535 L570.0782 335.6425 L571.8337 335.7217 L573.5892 335.791 L575.3447 335.8503 L577.1002 335.8998 L578.8557 335.9394 L580.6112 335.9691 L582.3668 335.9889 L584.1223 335.9987 L585.8777 335.9987 L587.6333 335.9889 L589.3888 335.9691 L591.1443 335.9394 L592.8998 335.8998 L594.6553 335.8503 L596.4108 335.791 L598.1664 335.7217 L599.9218 335.6425 L601.6774 335.5535 L603.4329 335.4545 L605.1884 335.3457 L606.9439 335.2269 L608.6994 335.0983 L610.4549 334.9597 L612.2104 334.8113 L613.9659 334.653 L615.7214 334.4847 L617.4769 334.3066 L619.2325 334.1186 L620.988 333.9207 L622.7435 333.7129 L624.499 333.4952 L626.2545 333.2676 L628.01 333.0301 L629.7656 332.7827 L631.521 332.5254 L633.2766 332.2582 L635.0321 331.9812 L636.7875 331.6942 L638.5431 331.3973 L640.2986 331.0906 L642.0541 330.7739 L643.8096 330.4474 L645.5651 330.1109 L647.3206 329.7646 L649.0762 329.4083 L650.8317 329.0422 L652.5872 328.6662 L654.3427 328.2802 L656.0982 327.8844 L657.8538 327.4787 L659.6092 327.0631 L661.3647 326.6376 L663.1202 326.2022 L664.8757 325.7569 L666.6313 325.3017 L668.3868 324.8366 L670.1423 324.3616 L671.8978 323.8767 L673.6533 323.382 L675.4088 322.8773 L677.1643 322.3627 L678.9199 321.8382 L680.6754 321.3039 L682.4308 320.7596 L684.1864 320.2055 L685.9419 319.6414 L687.6974 319.0675 L689.4529 318.4836 L691.2084 317.8899 L692.9639 317.2863 L694.7195 316.6728 L696.4749 316.0493 L698.2305 315.416 L699.986 314.7728 L701.7415 314.1197 L703.497 313.4567 L705.2525 312.7838 L707.008 312.101 L708.7635 311.4084 L710.519 310.7057 L712.2745 309.9933 L714.03 309.2709 L715.7856 308.5386 L717.5411 307.7965 L719.2966 307.0444 L721.0521 306.2824 L722.8076 305.5106 L724.5631 304.7289 L726.3187 303.9372 L728.0742 303.1357 L729.8297 302.3242 L731.5852 301.5029 L733.3407 300.6717 L735.0962 299.8306 L736.8517 298.9795 L738.6072 298.1186 L740.3627 297.2478 L742.1182 296.3671 L743.8738 295.4765 L745.6293 294.576 L747.3848 293.6656 L749.1403 292.7454 L750.8958 291.8152 L752.6513 290.8751 L754.4069 289.9251 L756.1623 288.9652 L757.9178 287.9955 L759.6733 287.0158 L761.4288 286.0263 L763.1844 285.0268 L764.9399 284.0175 L766.6954 282.9982 L768.4509 281.9691 L770.2064 280.9301 L771.9619 279.8811 L773.7174 278.8223 L775.473 277.7536 L777.2285 276.675 L778.9839 275.5865 L780.7395 274.4881 L782.495 273.3798 L784.2505 272.2616 L786.006 271.1335 L787.7615 269.9955 L789.517 268.8476 L791.2726 267.6898 L793.0281 266.5222 L794.7836 265.3446 L796.5391 264.1571 L798.2946 262.9597 L800.0501 261.7525 L801.8056 260.5353 L803.5612 259.3083 L805.3167 258.0714 L807.0721 256.8245 L808.8277 255.5678 L810.5831 254.3012 L812.3387 253.0246 L814.0942 251.7382 L815.8497 250.4419 L817.6052 249.1357 L819.3607 247.8196 L821.1162 246.4936 L822.8718 245.1577 L824.6273 243.8119 L826.3828 242.4562 L828.1382 241.0906 L829.8938 239.7151 L831.6493 238.3298 L833.4048 236.9345 L835.1603 235.5293 L836.9158 234.1143 L838.6713 232.6893 L840.4269 231.2544 L842.1823 229.8097 L843.9379 228.3551 L845.6934 226.8905 L847.4489 225.4161 L849.2044 223.9317 L850.9599 222.4375 L852.7154 220.9334 L854.4709 219.4194 L856.2264 217.8955 L857.982 216.3616 L859.7375 214.8179 L861.493 213.2643 L863.2485 211.7009 L865.004 210.1275 L866.7595 208.5442 L868.5151 206.951 L870.2705 205.3479 L872.0261 203.7349 L873.7816 202.1121 L875.537 200.4793 L877.2926 198.8367 L879.0481 197.1841 L880.8036 195.5216 L882.5591 193.8493 L884.3146 192.1671 L886.0701 190.4749 L887.8256 188.7729 L889.5812 187.061 L891.3367 185.3391 L893.0922 183.6074 L894.8477 181.8658 L896.6032 180.1143 L898.3587 178.3529 L900.1143 176.5816 L901.8697 174.8004 L903.6252 173.0093 L905.3808 171.2083 L907.1362 169.3974 L908.8918 167.5766 L910.6473 165.746 L912.4028 163.9054 L914.1583 162.0549 L915.9138 160.1945 L917.6693 158.3243 L919.4249 156.4441 L921.1804 154.5541 L922.9359 152.6541 L924.6913 150.7443 L926.4469 148.8246 L928.2025 146.8949 L929.9579 144.9554 L931.7134 143.006 L933.4689 141.0467 L935.2244 139.0775 L936.98 137.0984 L938.7355 135.1094 L940.491 133.1105 L942.2465 131.1017 L944.002 129.083 L945.7575 127.0544 L947.513 125.0159 L949.2686 122.9675 L951.024 120.9092 L952.7795 118.8411 L954.5351 116.763 L956.2906 114.6751 L958.0461 112.5772 L959.8016 110.4695 L961.5571 108.3518 L963.3126 106.2243 L965.0682 104.0868 L966.8236 101.9395 L968.5792 99.7823 L970.3347 97.6151 L972.0901 95.4381 L973.8457 93.2512 L975.6012 91.0544 L977.3567 88.8477 L979.1122 86.6311 L980.8677 84.4046 L982.6232 82.1682 L984.3787 79.9219 L986.1343 77.6657 L987.8898 75.3997 L989.6453 73.1237 L991.4008 70.8378 L993.1563 68.542 L994.9118 66.2364 L996.6674 63.9208 L998.4229 61.5954 L1000.1783 59.26 L1001.9339 56.9148 L1003.6894 54.5596 L1005.4449 52.1946 L1007.2004 49.8197 L1008.9559 47.4348 L1010.7114 45.0401 L1012.4669 42.6355 L1014.2225 40.221 L1015.978 37.7966 L1017.7335 35.3623 L1019.489 32.9181 L1021.2444 30.464 L1023 28" style="fill:none; fill-rule:evenodd;"></path></g><g style="fill-opacity:0.302; fill:rgb(46,133,64); text-rendering:optimizeSpeed; image-rendering:optimizeSpeed; color-rendering:optimizeSpeed; shape-rendering:crispEdges; stroke:rgb(46,133,64); color-interpolation:sRGB; stroke-opacity:0.302;"><path style="stroke:none;" d="M150.511 182 L152.2665 182 L154.022 182 L155.7776 182 L157.5331 182 L159.2886 182 L161.0441 182 L162.7996 182 L164.5551 182 L166.3106 182 L168.0661 182 L169.8216 182 L171.5771 182 L173.3327 182 L175.0882 182 L176.8437 182 L178.5992 182 L180.3547 182 L182.1102 182 L183.8657 182 L185.6212 182 L187.3768 182 L189.1323 182 L190.8878 182 L192.6433 182 L194.3988 182 L196.1543 182 L197.9098 182 L199.6653 182 L201.4208 182 L203.1763 182 L204.9319 182 L206.6874 182 L208.4429 182 L210.1984 182 L211.9539 182 L213.7094 182 L215.4649 182 L217.2204 182 L218.976 182 L220.7315 182 L222.487 182 L224.2425 182 L225.998 182 L227.7535 182 L229.509 182 L231.2645 182 L233.02 182 L234.7755 182 L236.5311 182 L238.2866 182 L240.0421 182 L241.7976 182 L243.5531 182 L245.3086 182 L247.0641 182 L248.8196 182 L250.5751 182 L252.3307 182 L254.0862 182 L255.8417 182 L257.5972 182 L259.3527 182 L261.1082 182 L262.8637 182 L264.6192 182 L266.3748 182 L268.1302 182 L269.8858 182 L271.6413 182 L273.3968 182 L275.1523 182 L275.2876 182 L275.1523 181.8658 L273.3968 180.1143 L271.6413 178.3529 L269.8858 176.5816 L268.1302 174.8004 L266.3748 173.0093 L264.6192 171.2083 L262.8637 169.3974 L261.1082 167.5766 L259.3527 165.746 L257.5972 163.9054 L255.8417 162.0549 L254.0862 160.1945 L252.3307 158.3243 L250.5751 156.4441 L248.8196 154.5541 L247.0641 152.6541 L245.3086 150.7443 L243.5531 148.8246 L241.7976 146.8949 L240.0421 144.9554 L238.2866 143.006 L236.5311 141.0467 L234.7755 139.0775 L233.02 137.0984 L231.2645 135.1094 L229.509 133.1105 L227.7535 131.1017 L225.998 129.083 L224.2425 127.0544 L222.487 125.0159 L220.7315 122.9675 L218.976 120.9092 L217.2204 118.8411 L215.4649 116.763 L213.7094 114.6751 L211.9539 112.5772 L210.1984 110.4695 L208.4429 108.3518 L206.6874 106.2243 L204.9319 104.0868 L203.1763 101.9395 L201.4208 99.7823 L199.6653 97.6151 L197.9098 95.4381 L196.1543 93.2512 L194.3988 91.0544 L192.6433 88.8477 L190.8878 86.6311 L189.1323 84.4046 L187.3768 82.1682 L185.6212 79.9219 L183.8657 77.6657 L182.1102 75.3997 L180.3547 73.1237 L178.5992 70.8378 L176.8437 68.542 L175.0882 66.2364 L173.3327 63.9208 L171.5771 61.5954 L169.8216 59.26 L168.0661 56.9148 L166.3106 54.5596 L164.5551 52.1946 L162.7996 49.8197 L161.0441 47.4348 L159.2886 45.0401 L157.5331 42.6355 L155.7776 40.221 L154.022 37.7966 L152.2665 35.3623 L150.511 32.9181 L148.7555 30.464 L147 28 L147 182 L148.7555 182 ZM894.8477 181.8658 L894.7124 182 L894.8477 182 L896.6032 182 L898.3587 182 L900.1143 182 L901.8697 182 L903.6252 182 L905.3808 182 L907.1362 182 L908.8918 182 L910.6473 182 L912.4028 182 L914.1583 182 L915.9138 182 L917.6693 182 L919.4249 182 L921.1804 182 L922.9359 182 L924.6913 182 L926.4469 182 L928.2025 182 L929.9579 182 L931.7134 182 L933.4689 182 L935.2244 182 L936.98 182 L938.7355 182 L940.491 182 L942.2465 182 L944.002 182 L945.7575 182 L947.513 182 L949.2686 182 L951.024 182 L952.7795 182 L954.5351 182 L956.2906 182 L958.0461 182 L959.8016 182 L961.5571 182 L963.3126 182 L965.0682 182 L966.8236 182 L968.5792 182 L970.3347 182 L972.0901 182 L973.8457 182 L975.6012 182 L977.3567 182 L979.1122 182 L980.8677 182 L982.6232 182 L984.3787 182 L986.1343 182 L987.8898 182 L989.6453 182 L991.4008 182 L993.1563 182 L994.9118 182 L996.6674 182 L998.4229 182 L1000.1783 182 L1001.9339 182 L1003.6894 182 L1005.4449 182 L1007.2004 182 L1008.9559 182 L1010.7114 182 L1012.4669 182 L1014.2225 182 L1015.978 182 L1017.7335 182 L1019.489 182 L1021.2444 182 L1023 182 L1023 28 L1021.2444 30.464 L1019.489 32.9181 L1017.7335 35.3623 L1015.978 37.7966 L1014.2225 40.221 L1012.4669 42.6355 L1010.7114 45.0401 L1008.9559 47.4348 L1007.2004 49.8197 L1005.4449 52.1946 L1003.6894 54.5596 L1001.9339 56.9148 L1000.1783 59.26 L998.4229 61.5954 L996.6674 63.9208 L994.9118 66.2364 L993.1563 68.542 L991.4008 70.8378 L989.6453 73.1237 L987.8898 75.3997 L986.1343 77.6657 L984.3787 79.9219 L982.6232 82.1682 L980.8677 84.4046 L979.1122 86.6311 L977.3567 88.8477 L975.6012 91.0544 L973.8457 93.2512 L972.0901 95.4381 L970.3347 97.6151 L968.5792 99.7823 L966.8236 101.9395 L965.0682 104.0868 L963.3126 106.2243 L961.5571 108.3518 L959.8016 110.4695 L958.0461 112.5772 L956.2906 114.6751 L954.5351 116.763 L952.7795 118.8411 L951.024 120.9092 L949.2686 122.9675 L947.513 125.0159 L945.7575 127.0544 L944.002 129.083 L942.2465 131.1017 L940.491 133.1105 L938.7355 135.1094 L936.98 137.0984 L935.2244 139.0775 L933.4689 141.0467 L931.7134 143.006 L929.9579 144.9554 L928.2025 146.8949 L926.4469 148.8246 L924.6913 150.7443 L922.9359 152.6541 L921.1804 154.5541 L919.4249 156.4441 L917.6693 158.3243 L915.9138 160.1945 L914.1583 162.0549 L912.4028 163.9054 L910.6473 165.746 L908.8918 167.5766 L907.1362 169.3974 L905.3808 171.2083 L903.6252 173.0093 L901.8697 174.8004 L900.1143 176.5816 L898.3587 178.3529 L896.6032 180.1143 ZM557.7896 334.8113 L559.5451 334.9597 L561.3006 335.0983 L563.0561 335.2269 L564.8116 335.3457 L566.5671 335.4545 L568.3226 335.5535 L570.0782 335.6425 L571.8337 335.7217 L573.5892 335.791 L575.3447 335.8503 L577.1002 335.8998 L578.8557 335.9394 L580.6112 335.9691 L582.3668 335.9889 L584.1223 335.9987 L585.8777 335.9987 L587.6333 335.9889 L589.3888 335.9691 L591.1443 335.9394 L592.8998 335.8998 L594.6553 335.8503 L596.4108 335.791 L598.1664 335.7217 L599.9218 335.6425 L601.6774 335.5535 L603.4329 335.4545 L605.1884 335.3457 L606.9439 335.2269 L608.6994 335.0983 L610.4549 334.9597 L612.2104 334.8113 L613.9659 334.653 L615.7214 334.4847 L617.4769 334.3066 L619.2325 334.1186 L620.988 333.9207 L622.7435 333.7129 L624.499 333.4952 L626.2545 333.2676 L628.01 333.0301 L629.7656 332.7827 L631.521 332.5254 L633.2766 332.2582 L635.0321 331.9812 L636.7875 331.6942 L638.5431 331.3973 L640.2986 331.0906 L642.0541 330.7739 L643.8096 330.4474 L645.5651 330.1109 L647.3206 329.7646 L649.0762 329.4083 L650.8317 329.0422 L652.5872 328.6662 L654.3427 328.2802 L656.0982 327.8844 L657.8538 327.4787 L659.6092 327.0631 L661.3647 326.6376 L663.1202 326.2022 L664.8757 325.7569 L666.6313 325.3017 L668.3868 324.8366 L670.1423 324.3616 L671.8978 323.8767 L673.6533 323.382 L675.4088 322.8773 L677.1643 322.3627 L678.9199 321.8382 L680.6754 321.3039 L682.4308 320.7596 L684.1864 320.2055 L685.9419 319.6414 L687.6974 319.0675 L689.4529 318.4836 L691.2084 317.8899 L692.9639 317.2863 L694.7195 316.6728 L696.4749 316.0493 L698.2305 315.416 L699.986 314.7728 L701.7415 314.1197 L703.497 313.4567 L705.2525 312.7838 L707.008 312.101 L708.7635 311.4084 L710.519 310.7057 L712.2745 309.9933 L714.03 309.2709 L715.7856 308.5386 L717.5411 307.7965 L719.2966 307.0444 L721.0521 306.2824 L722.8076 305.5106 L724.5631 304.7289 L726.3187 303.9372 L728.0742 303.1357 L729.8297 302.3242 L731.5852 301.5029 L733.3407 300.6717 L735.0962 299.8306 L736.8517 298.9795 L738.6072 298.1186 L740.3627 297.2478 L742.1182 296.3671 L743.8738 295.4765 L745.6293 294.576 L747.3848 293.6656 L749.1403 292.7454 L750.8958 291.8152 L752.6513 290.8751 L754.4069 289.9251 L756.1623 288.9652 L757.9178 287.9955 L759.6733 287.0158 L761.4288 286.0263 L763.1844 285.0268 L764.9399 284.0175 L766.6954 282.9982 L768.4509 281.9691 L770.2064 280.9301 L771.9619 279.8811 L773.7174 278.8223 L775.473 277.7536 L777.2285 276.675 L778.9839 275.5865 L780.7395 274.4881 L782.495 273.3798 L784.2505 272.2616 L786.006 271.1335 L787.7615 269.9955 L789.517 268.8476 L791.2726 267.6898 L793.0281 266.5222 L794.7836 265.3446 L796.5391 264.1571 L798.2946 262.9597 L800.0501 261.7525 L801.8056 260.5353 L803.5612 259.3083 L805.3167 258.0714 L807.0721 256.8245 L808.8277 255.5678 L810.5831 254.3012 L812.3387 253.0246 L814.0942 251.7382 L815.8497 250.4419 L817.6052 249.1357 L819.3607 247.8196 L821.1162 246.4936 L822.8718 245.1577 L824.6273 243.8119 L826.3828 242.4562 L828.1382 241.0906 L829.8938 239.7151 L831.6493 238.3298 L833.4048 236.9345 L835.1603 235.5293 L836.9158 234.1143 L838.6713 232.6893 L840.4269 231.2544 L842.1823 229.8097 L843.9379 228.3551 L845.6934 226.8905 L847.4489 225.4161 L849.2044 223.9317 L850.9599 222.4375 L852.7154 220.9334 L854.4709 219.4194 L856.2264 217.8955 L857.982 216.3616 L859.7375 214.8179 L861.493 213.2643 L863.2485 211.7009 L865.004 210.1275 L866.7595 208.5442 L868.5151 206.951 L870.2705 205.3479 L872.0261 203.7349 L873.7816 202.1121 L875.537 200.4793 L877.2926 198.8367 L879.0481 197.1841 L880.8036 195.5216 L882.5591 193.8493 L884.3146 192.1671 L886.0701 190.4749 L887.8256 188.7729 L889.5812 187.061 L891.3367 185.3391 L893.0922 183.6074 L894.7124 182 L893.0922 182 L891.3367 182 L889.5812 182 L887.8256 182 L886.0701 182 L884.3146 182 L882.5591 182 L880.8036 182 L879.0481 182 L877.2926 182 L875.537 182 L873.7816 182 L872.0261 182 L870.2705 182 L868.5151 182 L866.7595 182 L865.004 182 L863.2485 182 L861.493 182 L859.7375 182 L857.982 182 L856.2264 182 L854.4709 182 L852.7154 182 L850.9599 182 L849.2044 182 L847.4489 182 L845.6934 182 L843.9379 182 L842.1823 182 L840.4269 182 L838.6713 182 L836.9158 182 L835.1603 182 L833.4048 182 L831.6493 182 L829.8938 182 L828.1382 182 L826.3828 182 L824.6273 182 L822.8718 182 L821.1162 182 L819.3607 182 L817.6052 182 L815.8497 182 L814.0942 182 L812.3387 182 L810.5831 182 L808.8277 182 L807.0721 182 L805.3167 182 L803.5612 182 L801.8056 182 L800.0501 182 L798.2946 182 L796.5391 182 L794.7836 182 L793.0281 182 L791.2726 182 L789.517 182 L787.7615 182 L786.006 182 L784.2505 182 L782.495 182 L780.7395 182 L778.9839 182 L777.2285 182 L775.473 182 L773.7174 182 L771.9619 182 L770.2064 182 L768.4509 182 L766.6954 182 L764.9399 182 L763.1844 182 L761.4288 182 L759.6733 182 L757.9178 182 L756.1623 182 L754.4069 182 L752.6513 182 L750.8958 182 L749.1403 182 L747.3848 182 L745.6293 182 L743.8738 182 L742.1182 182 L740.3627 182 L738.6072 182 L736.8517 182 L735.0962 182 L733.3407 182 L731.5852 182 L729.8297 182 L728.0742 182 L726.3187 182 L724.5631 182 L722.8076 182 L721.0521 182 L719.2966 182 L717.5411 182 L715.7856 182 L714.03 182 L712.2745 182 L710.519 182 L708.7635 182 L707.008 182 L705.2525 182 L703.497 182 L701.7415 182 L699.986 182 L698.2305 182 L696.4749 182 L694.7195 182 L692.9639 182 L691.2084 182 L689.4529 182 L687.6974 182 L685.9419 182 L684.1864 182 L682.4308 182 L680.6754 182 L678.9199 182 L677.1643 182 L675.4088 182 L673.6533 182 L671.8978 182 L670.1423 182 L668.3868 182 L666.6313 182 L664.8757 182 L663.1202 182 L661.3647 182 L659.6092 182 L657.8538 182 L656.0982 182 L654.3427 182 L652.5872 182 L650.8317 182 L649.0762 182 L647.3206 182 L645.5651 182 L643.8096 182 L642.0541 182 L640.2986 182 L638.5431 182 L636.7875 182 L635.0321 182 L633.2766 182 L631.521 182 L629.7656 182 L628.01 182 L626.2545 182 L624.499 182 L622.7435 182 L620.988 182 L619.2325 182 L617.4769 182 L615.7214 182 L613.9659 182 L612.2104 182 L610.4549 182 L608.6994 182 L606.9439 182 L605.1884 182 L603.4329 182 L601.6774 182 L599.9218 182 L598.1664 182 L596.4108 182 L594.6553 182 L592.8998 182 L591.1443 182 L589.3888 182 L587.6333 182 L585.8777 182 L584.1223 182 L582.3668 182 L580.6112 182 L578.8557 182 L577.1002 182 L575.3447 182 L573.5892 182 L571.8337 182 L570.0782 182 L568.3226 182 L566.5671 182 L564.8116 182 L563.0561 182 L561.3006 182 L559.5451 182 L557.7896 182 L556.0341 182 L554.2786 182 L552.5231 182 L550.7675 182 L549.012 182 L547.2565 182 L545.501 182 L543.7455 182 L541.99 182 L540.2345 182 L538.4789 182 L536.7234 182 L534.968 182 L533.2124 182 L531.4569 182 L529.7014 182 L527.9459 182 L526.1904 182 L524.4349 182 L522.6794 182 L520.9238 182 L519.1683 182 L517.4128 182 L515.6573 182 L513.9018 182 L512.1463 182 L510.3908 182 L508.6353 182 L506.8798 182 L505.1243 182 L503.3687 182 L501.6132 182 L499.8577 182 L498.1022 182 L496.3467 182 L494.5912 182 L492.8357 182 L491.0802 182 L489.3246 182 L487.5691 182 L485.8136 182 L484.0581 182 L482.3026 182 L480.5471 182 L478.7916 182 L477.0361 182 L475.2806 182 L473.5251 182 L471.7695 182 L470.014 182 L468.2585 182 L466.503 182 L464.7475 182 L462.992 182 L461.2365 182 L459.481 182 L457.7255 182 L455.9699 182 L454.2144 182 L452.4589 182 L450.7034 182 L448.9479 182 L447.1924 182 L445.4369 182 L443.6814 182 L441.9258 182 L440.1703 182 L438.4148 182 L436.6593 182 L434.9038 182 L433.1483 182 L431.3928 182 L429.6373 182 L427.8818 182 L426.1263 182 L424.3707 182 L422.6152 182 L420.8597 182 L419.1042 182 L417.3487 182 L415.5932 182 L413.8377 182 L412.0822 182 L410.3267 182 L408.5711 182 L406.8156 182 L405.0601 182 L403.3046 182 L401.5491 182 L399.7936 182 L398.0381 182 L396.2826 182 L394.527 182 L392.7715 182 L391.0161 182 L389.2605 182 L387.505 182 L385.7495 182 L383.994 182 L382.2385 182 L380.483 182 L378.7274 182 L376.972 182 L375.2164 182 L373.4609 182 L371.7054 182 L369.9499 182 L368.1944 182 L366.4389 182 L364.6834 182 L362.9279 182 L361.1724 182 L359.4168 182 L357.6613 182 L355.9058 182 L354.1503 182 L352.3948 182 L350.6393 182 L348.8838 182 L347.1283 182 L345.3727 182 L343.6172 182 L341.8617 182 L340.1062 182 L338.3507 182 L336.5952 182 L334.8397 182 L333.0842 182 L331.3287 182 L329.5732 182 L327.8176 182 L326.0621 182 L324.3066 182 L322.5511 182 L320.7956 182 L319.0401 182 L317.2846 182 L315.5291 182 L313.7736 182 L312.018 182 L310.2625 182 L308.507 182 L306.7515 182 L304.996 182 L303.2405 182 L301.485 182 L299.7295 182 L297.9739 182 L296.2184 182 L294.4629 182 L292.7074 182 L290.9519 182 L289.1964 182 L287.4409 182 L285.6854 182 L283.9299 182 L282.1743 182 L280.4188 182 L278.6633 182 L276.9078 182 L275.2876 182 L276.9078 183.6074 L278.6633 185.3391 L280.4188 187.061 L282.1743 188.7729 L283.9299 190.4749 L285.6854 192.1671 L287.4409 193.8493 L289.1964 195.5216 L290.9519 197.1841 L292.7074 198.8367 L294.4629 200.4793 L296.2184 202.1121 L297.9739 203.7349 L299.7295 205.3479 L301.485 206.951 L303.2405 208.5442 L304.996 210.1275 L306.7515 211.7009 L308.507 213.2643 L310.2625 214.8179 L312.018 216.3616 L313.7736 217.8955 L315.5291 219.4194 L317.2846 220.9334 L319.0401 222.4375 L320.7956 223.9317 L322.5511 225.4161 L324.3066 226.8905 L326.0621 228.3551 L327.8176 229.8097 L329.5732 231.2544 L331.3287 232.6893 L333.0842 234.1143 L334.8397 235.5293 L336.5952 236.9345 L338.3507 238.3298 L340.1062 239.7151 L341.8617 241.0906 L343.6172 242.4562 L345.3727 243.8119 L347.1283 245.1577 L348.8838 246.4936 L350.6393 247.8196 L352.3948 249.1357 L354.1503 250.4419 L355.9058 251.7382 L357.6613 253.0246 L359.4168 254.3012 L361.1724 255.5678 L362.9279 256.8245 L364.6834 258.0714 L366.4389 259.3083 L368.1944 260.5353 L369.9499 261.7525 L371.7054 262.9597 L373.4609 264.1571 L375.2164 265.3446 L376.972 266.5222 L378.7274 267.6898 L380.483 268.8476 L382.2385 269.9955 L383.994 271.1335 L385.7495 272.2616 L387.505 273.3798 L389.2605 274.4881 L391.0161 275.5865 L392.7715 276.675 L394.527 277.7536 L396.2826 278.8223 L398.0381 279.8811 L399.7936 280.9301 L401.5491 281.9691 L403.3046 282.9982 L405.0601 284.0175 L406.8156 285.0268 L408.5711 286.0263 L410.3267 287.0158 L412.0822 287.9955 L413.8377 288.9652 L415.5932 289.9251 L417.3487 290.8751 L419.1042 291.8152 L420.8597 292.7454 L422.6152 293.6656 L424.3707 294.576 L426.1263 295.4765 L427.8818 296.3671 L429.6373 297.2478 L431.3928 298.1186 L433.1483 298.9795 L434.9038 299.8306 L436.6593 300.6717 L438.4148 301.5029 L440.1703 302.3242 L441.9258 303.1357 L443.6814 303.9372 L445.4369 304.7289 L447.1924 305.5106 L448.9479 306.2824 L450.7034 307.0444 L452.4589 307.7965 L454.2144 308.5386 L455.9699 309.2709 L457.7255 309.9933 L459.481 310.7057 L461.2365 311.4084 L462.992 312.101 L464.7475 312.7838 L466.503 313.4567 L468.2585 314.1197 L470.014 314.7728 L471.7695 315.416 L473.5251 316.0493 L475.2806 316.6728 L477.0361 317.2863 L478.7916 317.8899 L480.5471 318.4836 L482.3026 319.0675 L484.0581 319.6414 L485.8136 320.2055 L487.5691 320.7596 L489.3246 321.3039 L491.0802 321.8382 L492.8357 322.3627 L494.5912 322.8773 L496.3467 323.382 L498.1022 323.8767 L499.8577 324.3616 L501.6132 324.8366 L503.3687 325.3017 L505.1243 325.7569 L506.8798 326.2022 L508.6353 326.6376 L510.3908 327.0631 L512.1463 327.4787 L513.9018 327.8844 L515.6573 328.2802 L517.4128 328.6662 L519.1683 329.0422 L520.9238 329.4083 L522.6794 329.7646 L524.4349 330.1109 L526.1904 330.4474 L527.9459 330.7739 L529.7014 331.0906 L531.4569 331.3973 L533.2124 331.6942 L534.968 331.9812 L536.7234 332.2582 L538.4789 332.5254 L540.2345 332.7827 L541.99 333.0301 L543.7455 333.2676 L545.501 333.4952 L547.2565 333.7129 L549.012 333.9207 L550.7675 334.1186 L552.5231 334.3066 L554.2786 334.4847 L556.0341 334.653 Z"></path></g></g></svg> 