<?xml version="1.0"?>
 <svg xmlns:xlink="http://www.w3.org/1999/xlink" style="fill-opacity:1; color-rendering:auto; color-interpolation:auto; text-rendering:auto; stroke:black; stroke-linecap:square; stroke-miterlimit:10; shape-rendering:auto; stroke-opacity:1; fill:black; stroke-dasharray:none; font-weight:normal; stroke-width:1; font-family:'Dialog'; font-style:normal; stroke-linejoin:miter; font-size:12px; stroke-dashoffset:0; image-rendering:auto;" width="1130" height="785" xmlns="http://www.w3.org/2000/svg" viewBox="0 0 1130 785"><defs id="genericDefs"></defs><defs id="defs1"><clipPath clipPathUnits="userSpaceOnUse" id="clipPath1"><path d="M0 0 L1130 0 L1130 785 L0 785 L0 0 Z"></path></clipPath></defs><g><g style="stroke-linecap:butt; fill:rgb(107,75,235); text-rendering:geometricPrecision; image-rendering:optimizeQuality; color-rendering:optimizeQuality; stroke-linejoin:round; stroke:rgb(107,75,235); color-interpolation:linearRGB; stroke-width:13.3333;"><path d="M328.6 379.5 L335.0719 379.333 L341.5275 378.8434 L347.9534 378.0543 L354.3394 376.9888 L360.678 375.6701 L366.9643 374.1207 L373.1956 372.363 L379.3713 370.4185 L385.4924 368.3084 L391.5615 366.053 L397.5825 363.6722 L403.5604 361.1851 L409.501 358.6101 L415.4109 355.9653 L421.2971 353.2681 L427.167 350.5355 L433.0281 347.7842 L438.8882 345.0306 L444.7545 342.2906 L450.6346 339.5801 L456.5354 336.9149 L462.4633 334.3107 L468.4242 331.783 L474.4233 329.3475 L480.4651 327.0197 L486.5529 324.8155 L492.6893 322.7503 L498.8757 320.84 L505.1121 319.1002 L511.3974 317.5467 L517.7292 316.1949 L524.1034 315.0603 L530.5146 314.1581 L536.9557 313.5031 L543.418 313.1096 L549.8912 312.9915 L556.3631 313.162 L562.8201 313.6332 L569.2466 314.4165 L575.6256 315.5219 L581.9382 316.9581 L588.1643 318.7325 L594.2819 320.8504 L600.268 323.3156 L606.0982 326.1296 L611.7471 329.2918 L617.1884 332.7992 L622.395 336.6461 L627.3396 340.8243 L631.9947 345.3228 L636.3326 350.1278 L640.3264 355.2224 L643.9496 360.5869 L647.1767 366.1984 L649.9838 372.0314 L652.3484 378.0572 L654.2504 384.2447 L655.6715 390.5599 L656.5966 396.9666 L657.0132 403.4262 L656.9124 409.8984 L656.2886 416.3412 L655.14 422.7114 L653.469 428.9649 L651.2818 435.057 L648.5891 440.9431 L645.4058 446.579 L641.7511 451.9213 L637.6487 456.9279 L633.1262 461.5586 L628.2156 465.7754 L622.9525 469.5429 L617.3762 472.8293 L611.5294 475.6057 L605.4575 477.8478 L599.2087 479.535 L592.8333 480.6517 L586.3829 481.1868 L579.9106 481.1342 L573.4699 480.4932 L567.1145 479.2678 L560.8974 477.4676 L554.8707 475.1069 L549.0851 472.2053 L543.5888 468.7871 L538.4279 464.881 L533.645 460.5201 L529.2795 455.7414 L525.3671 450.5852 L521.939 445.0951 L519.0221 439.317 L516.6387 433.2993 L514.8062 427.0916 L513.5372 420.7446 L512.8391 414.3097 L512.7147 407.8383 L513.1617 401.3811 L514.1732 394.9879 L515.7378 388.7072" style="fill:none; fill-rule:evenodd;"></path></g></g></svg> 