<?xml version="1.0"?>
 <!-- Created with Inkscape (http://www.inkscape.org/) --> <svg version="1.1" id="svg2" width="298.66272" height="468.0296" viewBox="0 0 298.66272 468.0296" sodipodi:docname="marker_half_gray.svg" inkscape:version="1.1.2 (0a00cf5339, 2022-02-04)" xmlns:inkscape="http://www.inkscape.org/namespaces/inkscape" xmlns:sodipodi="http://sodipodi.sourceforge.net/DTD/sodipodi-0.dtd" xmlns="http://www.w3.org/2000/svg" xmlns:svg="http://www.w3.org/2000/svg"><defs id="defs6"></defs>   <g inkscape:groupmode="layer" inkscape:label="Image" id="g8" transform="translate(-261.1792,-67.844815)"> <path id="path827" style="fill:#aaaaaa;fill-opacity:1" d="M 0.48828125 157.51562 C 1.6586476 171.70481 5.0227526 185.67034 10.560547 198.92383 C 17.069097 214.50061 36.880696 248.77339 60.384766 285.11523 C 101.20053 348.22429 115.68952 374.72101 132.01953 416.11523 C 137.85528 430.90801 147.10645 458.71564 148.28906 465.01953 C 148.67541 467.07895 149.30556 468.39303 149.68945 467.93945 C 150.07335 467.48586 152.04477 461.36698 154.06836 454.3418 C 163.88949 420.24637 179.65283 383.83159 200.42383 347.25781 C 211.38074 327.96478 218.2426 316.90115 239.56055 284.16016 C 262.52501 248.89038 268.844 238.13615 280.29492 214.82812 C 291.30658 192.41422 294.0621 184.66528 296.91211 168.11523 C 297.50081 164.69662 297.8872 161.13248 298.17773 157.51562 L 0.48828125 157.51562 z " transform="translate(261.1792,67.844815)"></path> </g> </svg> 