<?xml version="1.0"?>
 <!-- Created with Inkscape (http://www.inkscape.org/) --> <svg width="103.59473" height="66.415665" viewBox="0 0 103.59473 66.415665" version="1.1" id="svg5" inkscape:version="1.1.2 (0a00cf5339, 2022-02-04)" sodipodi:docname="controller.svg" xmlns:inkscape="http://www.inkscape.org/namespaces/inkscape" xmlns:sodipodi="http://sodipodi.sourceforge.net/DTD/sodipodi-0.dtd" xmlns="http://www.w3.org/2000/svg" xmlns:svg="http://www.w3.org/2000/svg"><defs id="defs2"></defs>   <g inkscape:label="Layer 1" inkscape:groupmode="layer" id="layer1" transform="translate(-92.184809,-220.52524)"> <circle style="fill:#d98cc3;fill-opacity:1;stroke-width:0.264583;stroke-linecap:round;stroke-linejoin:round;paint-order:fill markers stroke" id="path1038" cx="169.0164" cy="239.22427" r="4.4943924"></circle> <circle style="fill:#3ad397;fill-opacity:1;stroke-width:0.264583;stroke-linecap:round;stroke-linejoin:round;paint-order:fill markers stroke" id="path1040" cx="176.91563" cy="231.46123" r="4.0858116"></circle> <circle style="fill:#6b8ac9;fill-opacity:1;stroke-width:0.264583;stroke-linecap:round;stroke-linejoin:round;paint-order:fill markers stroke" id="path1038-3" cx="176.16658" cy="246.9192" r="4.4943924"></circle> <circle style="fill:#df5e61;fill-opacity:1;stroke-width:0.264583;stroke-linecap:round;stroke-linejoin:round;paint-order:fill markers stroke" id="path1040-6" cx="184.06581" cy="239.15616" r="4.0858116"></circle> <path style="fill:#000000;stroke-width:0.102187" d="m 101.10227,286.68317 c -5.409021,-1.26144 -7.884831,-4.42259 -8.685791,-11.09016 -0.34947,-2.90916 -0.29671,-9.09683 0.11196,-13.13102 0.46,-4.54088 1.35932,-9.65628 3.20676,-18.24036 1.16053,-5.39235 1.91437,-8.17974 2.98446,-11.03523 0.79912,-2.13244 0.84856,-2.22462 3.261431,-6.08141 l 2.26929,-3.62731 h 0.54632 0.54632 v -0.70135 -0.70135 l 0.61642,-0.27663 c 2.95111,-1.32438 6.39848,-1.61906 10.14115,-0.86684 1.20384,0.24194 2.65162,0.68674 2.75509,0.84641 0.0413,0.0637 0.0758,0.38027 0.0766,0.70344 l 0.002,0.58758 h 0.59842 c 0.52657,0 0.65467,0.0429 1.06683,0.35765 l 0.46841,0.35765 h 3.78479 3.7848 l 0.0278,8.60925 0.0278,8.60925 0.25011,0.50827 c 0.31901,0.64828 0.94363,1.2729 1.59192,1.59192 l 0.50827,0.25011 h 12.92664 12.92664 l 0.50828,-0.25011 c 0.64828,-0.31902 1.2729,-0.94364 1.59191,-1.59192 l 0.25012,-0.50827 0.0278,-8.60925 0.0278,-8.60925 h 3.93195 c 3.07706,0 3.9321,-0.0278 3.93264,-0.12773 0.002,-0.28141 0.65673,-0.58757 1.25742,-0.58757 h 0.58125 l 0.002,-0.58758 c 7.7e-4,-0.32317 0.0353,-0.63971 0.0766,-0.70344 0.10271,-0.1585 1.49431,-0.58528 2.73194,-0.83783 3.74065,-0.76331 7.20229,-0.47102 10.16431,0.85826 l 0.61641,0.27663 v 0.70135 0.70135 l 0.53648,0.001 c 0.50671,0.001 0.55024,0.0225 0.7845,0.3832 0.13642,0.21007 1.16877,1.85343 2.29412,3.65192 2.22248,3.55188 2.53354,4.18916 3.59119,7.35746 0.75819,2.2712 1.35617,4.56308 2.18628,8.37933 2.50097,11.49766 3.40539,17.15353 3.68476,23.04315 0.38042,8.01959 -0.25746,12.75127 -2.15419,15.97935 -0.59047,1.00494 -2.15126,2.5351 -3.17161,3.10936 -1.62148,0.9126 -3.98567,1.55304 -5.73304,1.55304 -1.60347,0 -3.31148,-0.55525 -4.87973,-1.58633 -1.04069,-0.68423 -2.59653,-2.21139 -3.41316,-3.35024 -1.00527,-1.40193 -1.63465,-2.72356 -3.12161,-6.55501 -2.87657,-7.41206 -4.08858,-10.79675 -4.09479,-11.43527 -0.002,-0.15519 -0.19677,-0.34637 -0.67402,-0.65995 -0.36955,-0.24281 -0.72496,-0.41488 -0.78983,-0.38238 -0.0649,0.0325 -0.41682,0.30972 -0.78214,0.61606 -0.79747,0.66871 -2.28476,1.46212 -3.47435,1.85343 -0.80537,0.26492 -0.99131,0.28609 -2.55467,0.29081 -1.45966,0.004 -1.79587,-0.0263 -2.50358,-0.22849 -1.25322,-0.35809 -2.97054,-1.24528 -4.19532,-2.16734 l -1.08648,-0.81796 h -9.09052 -9.0905 l -0.68431,0.54969 c -1.34665,1.08172 -2.93436,1.94113 -4.38534,2.37372 -1.21187,0.36131 -3.18191,0.45088 -4.41616,0.20079 -1.7372,-0.352 -3.49937,-1.25277 -4.78092,-2.44385 l -0.3291,-0.30588 -0.48839,0.30523 c -0.26861,0.16789 -0.59185,0.3706 -0.71831,0.45047 -0.12645,0.0799 -0.22992,0.24399 -0.22992,0.36469 0,0.62411 -1.54036,4.91879 -4.26513,11.89162 -1.77687,4.54712 -2.44451,5.75338 -4.19206,7.57408 -2.84472,2.96379 -5.85618,4.00619 -9.27224,3.20953 z m 27.59047,-24.73205 c 1.85547,-0.38822 3.59715,-1.73515 4.43107,-3.42678 1.29038,-2.61757 0.82559,-5.53299 -1.20599,-7.56457 -2.57524,-2.57524 -6.63397,-2.57524 -9.20921,0 -2.57524,2.57524 -2.57524,6.63397 0,9.20921 1.59281,1.59281 3.7783,2.24368 5.98413,1.78214 z m 33.31293,0 c 2.9417,-0.61549 5.15689,-3.35898 5.15689,-6.38674 0,-3.56676 -2.96966,-6.53642 -6.53641,-6.53642 -3.56676,0 -6.53642,2.96966 -6.53642,6.53642 0,2.42239 1.43489,4.75389 3.57646,5.81126 1.41423,0.69825 2.84554,0.88807 4.33948,0.57548 z m 16.04527,-12.30391 c 0.63627,-0.28145 1.32952,-0.96399 1.65518,-1.62962 0.36634,-0.74877 0.3913,-1.85095 0.0586,-2.58767 -0.3038,-0.67272 -0.97451,-1.35998 -1.64955,-1.69024 -0.81972,-0.40106 -1.86724,-0.40106 -2.68696,0 -0.67504,0.33026 -1.34575,1.01752 -1.64955,1.69024 -0.2979,0.65966 -0.29903,1.82627 -0.002,2.48295 0.7516,1.6639 2.67228,2.44317 4.2747,1.73434 z m -64.13163,-1.70954 c 0.19684,-0.25024 0.21179,-0.40202 0.21179,-2.15 0,-2.25343 -0.0265,-2.32959 -1.22822,-3.53314 l -0.79075,-0.79195 h -0.68898 -0.68899 l -0.79075,0.79195 c -1.20175,1.20355 -1.22822,1.27971 -1.22822,3.53314 0,1.74798 0.0149,1.89976 0.21179,2.15 l 0.21179,0.26925 h 2.28438 2.28437 z m 56.8464,-5.68271 c 2.03586,-0.93205 2.52656,-3.65186 0.94431,-5.2341 -1.24246,-1.24247 -3.34913,-1.24247 -4.5916,0 -0.79655,0.79655 -1.14061,2.07975 -0.83734,3.12296 0.57614,1.98183 2.64242,2.95453 4.48463,2.11114 z m 14.75755,-0.0381 c 0.62662,-0.29549 1.30216,-0.99645 1.59598,-1.65601 0.15428,-0.34632 0.21284,-0.68867 0.21284,-1.24419 0,-0.92443 -0.22765,-1.50715 -0.85448,-2.18718 -1.26643,-1.37391 -3.43049,-1.37391 -4.69692,0 -0.62683,0.68003 -0.85449,1.26275 -0.85449,2.18718 0,0.92343 0.22764,1.50713 0.85187,2.18434 0.96394,1.04574 2.44523,1.32888 3.7452,0.71586 z m -78.0047,-0.1555 c 0.23663,-0.12029 0.78661,-0.57456 1.22218,-1.00948 l 0.79195,-0.79075 v -0.68899 -0.68898 l -0.79195,-0.79076 c -1.20356,-1.20174 -1.27971,-1.22821 -3.53314,-1.22821 -1.74798,0 -1.89976,0.0149 -2.15,0.21179 l -0.26925,0.21179 v 2.28437 2.28437 l 0.26925,0.2118 c 0.25024,0.19684 0.40202,0.21179 2.15,0.21179 1.71977,0 1.91757,-0.0187 2.31096,-0.21874 z m 12.16794,0.007 0.26925,-0.21179 v -2.28438 -2.28437 l -0.26925,-0.21179 c -0.25023,-0.19684 -0.40202,-0.21179 -2.14999,-0.21179 -2.25343,0 -2.32959,0.0265 -3.53314,1.22822 l -0.79195,0.79075 v 0.68898 0.68899 l 0.79195,0.79049 c 1.2082,1.20597 1.24437,1.21858 3.51166,1.22396 1.77346,0.004 1.92046,-0.01 2.17147,-0.20727 z m -6.78362,-5.0764 c 1.20175,-1.20355 1.22822,-1.27971 1.22822,-3.53314 0,-1.74797 -0.0149,-1.89976 -0.21179,-2.15 l -0.21179,-0.26924 h -2.28437 -2.28438 l -0.21179,0.26924 c -0.19684,0.25024 -0.21179,0.40203 -0.21179,2.15 0,2.25343 0.0265,2.32959 1.22822,3.53314 l 0.79075,0.79195 h 0.68899 0.68898 z m 65.16409,-2.06887 c 0.61597,-0.26933 1.3151,-0.95801 1.63377,-1.60936 0.36089,-0.73764 0.3874,-1.86606 0.061,-2.59867 -0.29699,-0.66668 -0.96861,-1.35852 -1.63563,-1.68486 -0.80621,-0.39445 -1.90273,-0.39445 -2.70894,0 -1.17211,0.57346 -1.84847,1.64521 -1.84847,2.92906 0,0.90424 0.221,1.48987 0.80703,2.13854 0.95144,1.05313 2.41946,1.38135 3.6912,0.82529 z m -46.8523,6.67426 c -0.18661,-0.092 -0.46252,-0.32874 -0.61312,-0.52617 l -0.27382,-0.35896 -0.0273,-8.46395 -0.0273,-8.46397 h 13.69651 13.69651 l -0.0273,8.46397 -0.0273,8.46395 -0.27525,0.36083 c -0.57049,0.74788 0.42217,0.69642 -13.38215,0.69382 -11.27195,-0.002 -12.43114,-0.0175 -12.73956,-0.16952 z" id="path836"></path> </g> </svg> 