<?xml version="1.0"?>
 <svg xmlns:xlink="http://www.w3.org/1999/xlink" style="fill-opacity:1; color-rendering:auto; color-interpolation:auto; text-rendering:auto; stroke:black; stroke-linecap:square; stroke-miterlimit:10; shape-rendering:auto; stroke-opacity:1; fill:black; stroke-dasharray:none; font-weight:normal; stroke-width:1; font-family:'Dialog'; font-style:normal; stroke-linejoin:miter; font-size:12px; stroke-dashoffset:0; image-rendering:auto;" width="1130" height="376" xmlns="http://www.w3.org/2000/svg" viewBox="0 0 1130 376"><defs id="genericDefs"></defs><defs id="defs1"><clipPath clipPathUnits="userSpaceOnUse" id="clipPath1"><path d="M0 0 L1130 0 L1130 376 L0 376 L0 0 Z"></path></clipPath></defs><g><g style="stroke-linecap:butt; fill:rgb(221,54,28); text-rendering:geometricPrecision; image-rendering:optimizeQuality; color-rendering:optimizeQuality; stroke-linejoin:round; stroke:rgb(221,54,28); color-interpolation:linearRGB; stroke-width:8;"><path d="M147 336 L148.7555 335.3828 L150.511 334.7655 L152.2665 334.1483 L154.022 333.5311 L155.7776 332.9138 L157.5331 332.2966 L159.2886 331.6794 L161.0441 331.0621 L162.7996 330.4449 L164.5551 329.8276 L166.3106 329.2104 L168.0661 328.5932 L169.8216 327.976 L171.5771 327.3587 L173.3327 326.7415 L175.0882 326.1242 L176.8437 325.507 L178.5992 324.8898 L180.3547 324.2726 L182.1102 323.6553 L183.8657 323.0381 L185.6212 322.4208 L187.3768 321.8036 L189.1323 321.1864 L190.8878 320.5691 L192.6433 319.9519 L194.3988 319.3347 L196.1543 318.7174 L197.9098 318.1002 L199.6653 317.483 L201.4208 316.8657 L203.1763 316.2485 L204.9319 315.6313 L206.6874 315.014 L208.4429 314.3968 L210.1984 313.7795 L211.9539 313.1623 L213.7094 312.5451 L215.4649 311.9279 L217.2204 311.3106 L218.976 310.6934 L220.7315 310.0761 L222.487 309.4589 L224.2425 308.8417 L225.998 308.2245 L227.7535 307.6072 L229.509 306.99 L231.2645 306.3727 L233.02 305.7555 L234.7755 305.1383 L236.5311 304.521 L238.2866 303.9038 L240.0421 303.2866 L241.7976 302.6693 L243.5531 302.0521 L245.3086 301.4349 L247.0641 300.8176 L248.8196 300.2004 L250.5751 299.5832 L252.3307 298.9659 L254.0862 298.3487 L255.8417 297.7314 L257.5972 297.1142 L259.3527 296.497 L261.1082 295.8798 L262.8637 295.2625 L264.6192 294.6453 L266.3748 294.028 L268.1302 293.4108 L269.8858 292.7936 L271.6413 292.1764 L273.3968 291.5591 L275.1523 290.9419 L276.9078 290.3246 L278.6633 289.7074 L280.4188 289.0902 L282.1743 288.4729 L283.9299 287.8557 L285.6854 287.2385 L287.4409 286.6212 L289.1964 286.004 L290.9519 285.3868 L292.7074 284.7695 L294.4629 284.1523 L296.2184 283.5351 L297.9739 282.9178 L299.7295 282.3006 L301.485 281.6834 L303.2405 281.0661 L304.996 280.4489 L306.7515 279.8317 L308.507 279.2144 L310.2625 278.5972 L312.018 277.9799 L313.7736 277.3627 L315.5291 276.7455 L317.2846 276.1283 L319.0401 275.511 L320.7956 274.8938 L322.5511 274.2766 L324.3066 273.6593 L326.0621 273.0421 L327.8176 272.4249 L329.5732 271.8076 L331.3287 271.1904 L333.0842 270.5732 L334.8397 269.9559 L336.5952 269.3387 L338.3507 268.7214 L340.1062 268.1042 L341.8617 267.487 L343.6172 266.8698 L345.3727 266.2525 L347.1283 265.6353 L348.8838 265.018 L350.6393 264.4008 L352.3948 263.7836 L354.1503 263.1664 L355.9058 262.5491 L357.6613 261.9319 L359.4168 261.3146 L361.1724 260.6974 L362.9279 260.0802 L364.6834 259.4629 L366.4389 258.8457 L368.1944 258.2285 L369.9499 257.6112 L371.7054 256.994 L373.4609 256.3768 L375.2164 255.7595 L376.972 255.1423 L378.7274 254.5251 L380.483 253.9078 L382.2385 253.2906 L383.994 252.6733 L385.7495 252.0561 L387.505 251.4389 L389.2605 250.8216 L391.0161 250.2044 L392.7715 249.5872 L394.527 248.9699 L396.2826 248.3527 L398.0381 247.7355 L399.7936 247.1182 L401.5491 246.501 L403.3046 245.8838 L405.0601 245.2665 L406.8156 244.6493 L408.5711 244.0321 L410.3267 243.4148 L412.0822 242.7976 L413.8377 242.1804 L415.5932 241.5631 L417.3487 240.9459 L419.1042 240.3287 L420.8597 239.7114 L422.6152 239.0942 L424.3707 238.477 L426.1263 237.8597 L427.8818 237.2425 L429.6373 236.6252 L431.3928 236.008 L433.1483 235.3908 L434.9038 234.7735 L436.6593 234.1563 L438.4148 233.5391 L440.1703 232.9218 L441.9258 232.3046 L443.6814 231.6874 L445.4369 231.0701 L447.1924 230.4529 L448.9479 229.8357 L450.7034 229.2184 L452.4589 228.6012 L454.2144 227.984 L455.9699 227.3667 L457.7255 226.7495 L459.481 226.1323 L461.2365 225.515 L462.992 224.8978 L464.7475 224.2806 L466.503 223.6633 L468.2585 223.0461 L470.014 222.4289 L471.7695 221.8116 L473.5251 221.1944 L475.2806 220.5771 L477.0361 219.9599 L478.7916 219.3427 L480.5471 218.7254 L482.3026 218.1082 L484.0581 217.491 L485.8136 216.8737 L487.5691 216.2565 L489.3246 215.6393 L491.0802 215.022 L492.8357 214.4048 L494.5912 213.7876 L496.3467 213.1703 L498.1022 212.5531 L499.8577 211.9359 L501.6132 211.3186 L503.3687 210.7014 L505.1243 210.0842 L506.8798 209.4669 L508.6353 208.8497 L510.3908 208.2325 L512.1463 207.6152 L513.9018 206.998 L515.6573 206.3808 L517.4128 205.7635 L519.1683 205.1463 L520.9238 204.5291 L522.6794 203.9118 L524.4349 203.2946 L526.1904 202.6774 L527.9459 202.0601 L529.7014 201.4429 L531.4569 200.8257 L533.2124 200.2084 L534.968 199.5912 L536.7234 198.974 L538.4789 198.3567 L540.2345 197.7395 L541.99 197.1222 L543.7455 196.505 L545.501 195.8878 L547.2565 195.2705 L549.012 194.6533 L550.7675 194.0361 L552.5231 193.4188 L554.2786 192.8016 L556.0341 192.1844 L557.7896 191.5671 L559.5451 190.9499 L561.3006 190.3327 L563.0561 189.7154 L564.8116 189.0982 L566.5671 188.481 L568.3226 187.8637 L570.0782 187.2465 L571.8337 186.6293 L573.5892 186.012 L575.3447 185.3948 L577.1002 184.7776 L578.8557 184.1603 L580.6112 183.5431 L582.3668 182.9259 L584.1223 182.3086 L585.8777 181.6914 L587.6333 181.0741 L589.3888 180.4569 L591.1443 179.8397 L592.8998 179.2224 L594.6553 178.6052 L596.4108 177.988 L598.1664 177.3707 L599.9218 176.7535 L601.6774 176.1363 L603.4329 175.519 L605.1884 174.9018 L606.9439 174.2846 L608.6994 173.6673 L610.4549 173.0501 L612.2104 172.4329 L613.9659 171.8156 L615.7214 171.1984 L617.4769 170.5812 L619.2325 169.9639 L620.988 169.3467 L622.7435 168.7295 L624.499 168.1122 L626.2545 167.495 L628.01 166.8778 L629.7656 166.2605 L631.521 165.6433 L633.2766 165.026 L635.0321 164.4088 L636.7875 163.7916 L638.5431 163.1743 L640.2986 162.5571 L642.0541 161.9399 L643.8096 161.3226 L645.5651 160.7054 L647.3206 160.0882 L649.0762 159.4709 L650.8317 158.8537 L652.5872 158.2365 L654.3427 157.6192 L656.0982 157.002 L657.8538 156.3848 L659.6092 155.7675 L661.3647 155.1503 L663.1202 154.5331 L664.8757 153.9158 L666.6313 153.2986 L668.3868 152.6814 L670.1423 152.0641 L671.8978 151.4469 L673.6533 150.8297 L675.4088 150.2124 L677.1643 149.5952 L678.9199 148.978 L680.6754 148.3607 L682.4308 147.7435 L684.1864 147.1263 L685.9419 146.509 L687.6974 145.8918 L689.4529 145.2746 L691.2084 144.6573 L692.9639 144.0401 L694.7195 143.4229 L696.4749 142.8056 L698.2305 142.1884 L699.986 141.5711 L701.7415 140.9539 L703.497 140.3367 L705.2525 139.7194 L707.008 139.1022 L708.7635 138.485 L710.519 137.8677 L712.2745 137.2505 L714.03 136.6333 L715.7856 136.016 L717.5411 135.3988 L719.2966 134.7816 L721.0521 134.1643 L722.8076 133.5471 L724.5631 132.9299 L726.3187 132.3126 L728.0742 131.6954 L729.8297 131.0782 L731.5852 130.4609 L733.3407 129.8437 L735.0962 129.2265 L736.8517 128.6092 L738.6072 127.992 L740.3627 127.3747 L742.1182 126.7575 L743.8738 126.1403 L745.6293 125.523 L747.3848 124.9058 L749.1403 124.2886 L750.8958 123.6713 L752.6513 123.0541 L754.4069 122.4369 L756.1623 121.8196 L757.9178 121.2024 L759.6733 120.5852 L761.4288 119.9679 L763.1844 119.3507 L764.9399 118.7335 L766.6954 118.1162 L768.4509 117.499 L770.2064 116.8818 L771.9619 116.2645 L773.7174 115.6473 L775.473 115.0301 L777.2285 114.4128 L778.9839 113.7956 L780.7395 113.1784 L782.495 112.5611 L784.2505 111.9439 L786.006 111.3267 L787.7615 110.7094 L789.517 110.0922 L791.2726 109.475 L793.0281 108.8577 L794.7836 108.2405 L796.5391 107.6232 L798.2946 107.006 L800.0501 106.3888 L801.8056 105.7715 L803.5612 105.1543 L805.3167 104.5371 L807.0721 103.9198 L808.8277 103.3026 L810.5831 102.6854 L812.3387 102.0681 L814.0942 101.4509 L815.8497 100.8337 L817.6052 100.2164 L819.3607 99.5992 L821.1162 98.982 L822.8718 98.3647 L824.6273 97.7475 L826.3828 97.1303 L828.1382 96.513 L829.8938 95.8958 L831.6493 95.2786 L833.4048 94.6613 L835.1603 94.0441 L836.9158 93.4268 L838.6713 92.8096 L840.4269 92.1924 L842.1823 91.5751 L843.9379 90.9579 L845.6934 90.3407 L847.4489 89.7234 L849.2044 89.1062 L850.9599 88.489 L852.7154 87.8717 L854.4709 87.2545 L856.2264 86.6373 L857.982 86.02 L859.7375 85.4028 L861.493 84.7856 L863.2485 84.1683 L865.004 83.5511 L866.7595 82.9339 L868.5151 82.3166 L870.2705 81.6994 L872.0261 81.0822 L873.7816 80.4649 L875.537 79.8477 L877.2926 79.2305 L879.0481 78.6132 L880.8036 77.996 L882.5591 77.3788 L884.3146 76.7615 L886.0701 76.1443 L887.8256 75.5271 L889.5812 74.9098 L891.3367 74.2926 L893.0922 73.6754 L894.8477 73.0581 L896.6032 72.4409 L898.3587 71.8236 L900.1143 71.2064 L901.8697 70.5892 L903.6252 69.9719 L905.3808 69.3547 L907.1362 68.7375 L908.8918 68.1202 L910.6473 67.503 L912.4028 66.8858 L914.1583 66.2685 L915.9138 65.6513 L917.6693 65.0341 L919.4249 64.4168 L921.1804 63.7996 L922.9359 63.1824 L924.6913 62.5651 L926.4469 61.9479 L928.2025 61.3307 L929.9579 60.7134 L931.7134 60.0962 L933.4689 59.479 L935.2244 58.8617 L936.98 58.2445 L938.7355 57.6273 L940.491 57.01 L942.2465 56.3928 L944.002 55.7756 L945.7575 55.1583 L947.513 54.5411 L949.2686 53.9239 L951.024 53.3066 L952.7795 52.6894 L954.5351 52.0721 L956.2906 51.4549 L958.0461 50.8377 L959.8016 50.2204 L961.5571 49.6032 L963.3126 48.986 L965.0682 48.3687 L966.8236 47.7515 L968.5792 47.1343 L970.3347 46.517 L972.0901 45.8998 L973.8457 45.2826 L975.6012 44.6653 L977.3567 44.0481 L979.1122 43.4309 L980.8677 42.8136 L982.6232 42.1964 L984.3787 41.5792 L986.1343 40.9619 L987.8898 40.3447 L989.6453 39.7275 L991.4008 39.1102 L993.1563 38.493 L994.9118 37.8758 L996.6674 37.2585 L998.4229 36.6413 L1000.1783 36.0241 L1001.9339 35.4068 L1003.6894 34.7896 L1005.4449 34.1723 L1007.2004 33.5551 L1008.9559 32.9379 L1010.7114 32.3206 L1012.4669 31.7034 L1014.2225 31.0862 L1015.978 30.4689 L1017.7335 29.8517 L1019.489 29.2345 L1021.2444 28.6172 L1023 28" style="fill:none; fill-rule:evenodd;"></path></g><g style="fill-opacity:0.302; fill:rgb(221,54,28); text-rendering:optimizeSpeed; image-rendering:optimizeSpeed; color-rendering:optimizeSpeed; shape-rendering:crispEdges; stroke:rgb(221,54,28); color-interpolation:sRGB; stroke-opacity:0.302;"><path style="stroke:none;" d="M585.8777 182 L587.6333 182 L589.3888 182 L591.1443 182 L592.8998 182 L594.6553 182 L596.4108 182 L598.1664 182 L599.9218 182 L601.6774 182 L603.4329 182 L605.1884 182 L606.9439 182 L608.6994 182 L610.4549 182 L612.2104 182 L613.9659 182 L615.7214 182 L617.4769 182 L619.2325 182 L620.988 182 L622.7435 182 L624.499 182 L626.2545 182 L628.01 182 L629.7656 182 L631.521 182 L633.2766 182 L635.0321 182 L636.7875 182 L638.5431 182 L640.2986 182 L642.0541 182 L643.8096 182 L645.5651 182 L647.3206 182 L649.0762 182 L650.8317 182 L652.5872 182 L654.3427 182 L656.0982 182 L657.8538 182 L659.6092 182 L661.3647 182 L663.1202 182 L664.8757 182 L666.6313 182 L668.3868 182 L670.1423 182 L671.8978 182 L673.6533 182 L675.4088 182 L677.1643 182 L678.9199 182 L680.6754 182 L682.4308 182 L684.1864 182 L685.9419 182 L687.6974 182 L689.4529 182 L691.2084 182 L692.9639 182 L694.7195 182 L696.4749 182 L698.2305 182 L699.986 182 L701.7415 182 L703.497 182 L705.2525 182 L707.008 182 L708.7635 182 L710.519 182 L712.2745 182 L714.03 182 L715.7856 182 L717.5411 182 L719.2966 182 L721.0521 182 L722.8076 182 L724.5631 182 L726.3187 182 L728.0742 182 L729.8297 182 L731.5852 182 L733.3407 182 L735.0962 182 L736.8517 182 L738.6072 182 L740.3627 182 L742.1182 182 L743.8738 182 L745.6293 182 L747.3848 182 L749.1403 182 L750.8958 182 L752.6513 182 L754.4069 182 L756.1623 182 L757.9178 182 L759.6733 182 L761.4288 182 L763.1844 182 L764.9399 182 L766.6954 182 L768.4509 182 L770.2064 182 L771.9619 182 L773.7174 182 L775.473 182 L777.2285 182 L778.9839 182 L780.7395 182 L782.495 182 L784.2505 182 L786.006 182 L787.7615 182 L789.517 182 L791.2726 182 L793.0281 182 L794.7836 182 L796.5391 182 L798.2946 182 L800.0501 182 L801.8056 182 L803.5612 182 L805.3167 182 L807.0721 182 L808.8277 182 L810.5831 182 L812.3387 182 L814.0942 182 L815.8497 182 L817.6052 182 L819.3607 182 L821.1162 182 L822.8718 182 L824.6273 182 L826.3828 182 L828.1382 182 L829.8938 182 L831.6493 182 L833.4048 182 L835.1603 182 L836.9158 182 L838.6713 182 L840.4269 182 L842.1823 182 L843.9379 182 L845.6934 182 L847.4489 182 L849.2044 182 L850.9599 182 L852.7154 182 L854.4709 182 L856.2264 182 L857.982 182 L859.7375 182 L861.493 182 L863.2485 182 L865.004 182 L866.7595 182 L868.5151 182 L870.2705 182 L872.0261 182 L873.7816 182 L875.537 182 L877.2926 182 L879.0481 182 L880.8036 182 L882.5591 182 L884.3146 182 L886.0701 182 L887.8256 182 L889.5812 182 L891.3367 182 L893.0922 182 L894.8477 182 L896.6032 182 L898.3587 182 L900.1143 182 L901.8697 182 L903.6252 182 L905.3808 182 L907.1362 182 L908.8918 182 L910.6473 182 L912.4028 182 L914.1583 182 L915.9138 182 L917.6693 182 L919.4249 182 L921.1804 182 L922.9359 182 L924.6913 182 L926.4469 182 L928.2025 182 L929.9579 182 L931.7134 182 L933.4689 182 L935.2244 182 L936.98 182 L938.7355 182 L940.491 182 L942.2465 182 L944.002 182 L945.7575 182 L947.513 182 L949.2686 182 L951.024 182 L952.7795 182 L954.5351 182 L956.2906 182 L958.0461 182 L959.8016 182 L961.5571 182 L963.3126 182 L965.0682 182 L966.8236 182 L968.5792 182 L970.3347 182 L972.0901 182 L973.8457 182 L975.6012 182 L977.3567 182 L979.1122 182 L980.8677 182 L982.6232 182 L984.3787 182 L986.1343 182 L987.8898 182 L989.6453 182 L991.4008 182 L993.1563 182 L994.9118 182 L996.6674 182 L998.4229 182 L1000.1783 182 L1001.9339 182 L1003.6894 182 L1005.4449 182 L1007.2004 182 L1008.9559 182 L1010.7114 182 L1012.4669 182 L1014.2225 182 L1015.978 182 L1017.7335 182 L1019.489 182 L1021.2444 182 L1023 182 L1023 28 L1021.2444 28.6172 L1019.489 29.2345 L1017.7335 29.8517 L1015.978 30.4689 L1014.2225 31.0862 L1012.4669 31.7034 L1010.7114 32.3206 L1008.9559 32.9379 L1007.2004 33.5551 L1005.4449 34.1723 L1003.6894 34.7896 L1001.9339 35.4068 L1000.1783 36.0241 L998.4229 36.6413 L996.6674 37.2585 L994.9118 37.8758 L993.1563 38.493 L991.4008 39.1102 L989.6453 39.7275 L987.8898 40.3447 L986.1343 40.9619 L984.3787 41.5792 L982.6232 42.1964 L980.8677 42.8136 L979.1122 43.4309 L977.3567 44.0481 L975.6012 44.6653 L973.8457 45.2826 L972.0901 45.8998 L970.3347 46.517 L968.5792 47.1343 L966.8236 47.7515 L965.0682 48.3687 L963.3126 48.986 L961.5571 49.6032 L959.8016 50.2204 L958.0461 50.8377 L956.2906 51.4549 L954.5351 52.0721 L952.7795 52.6894 L951.024 53.3066 L949.2686 53.9239 L947.513 54.5411 L945.7575 55.1583 L944.002 55.7756 L942.2465 56.3928 L940.491 57.01 L938.7355 57.6273 L936.98 58.2445 L935.2244 58.8617 L933.4689 59.479 L931.7134 60.0962 L929.9579 60.7134 L928.2025 61.3307 L926.4469 61.9479 L924.6913 62.5651 L922.9359 63.1824 L921.1804 63.7996 L919.4249 64.4168 L917.6693 65.0341 L915.9138 65.6513 L914.1583 66.2685 L912.4028 66.8858 L910.6473 67.503 L908.8918 68.1202 L907.1362 68.7375 L905.3808 69.3547 L903.6252 69.9719 L901.8697 70.5892 L900.1143 71.2064 L898.3587 71.8236 L896.6032 72.4409 L894.8477 73.0581 L893.0922 73.6754 L891.3367 74.2926 L889.5812 74.9098 L887.8256 75.5271 L886.0701 76.1443 L884.3146 76.7615 L882.5591 77.3788 L880.8036 77.996 L879.0481 78.6132 L877.2926 79.2305 L875.537 79.8477 L873.7816 80.4649 L872.0261 81.0822 L870.2705 81.6994 L868.5151 82.3166 L866.7595 82.9339 L865.004 83.5511 L863.2485 84.1683 L861.493 84.7856 L859.7375 85.4028 L857.982 86.02 L856.2264 86.6373 L854.4709 87.2545 L852.7154 87.8717 L850.9599 88.489 L849.2044 89.1062 L847.4489 89.7234 L845.6934 90.3407 L843.9379 90.9579 L842.1823 91.5751 L840.4269 92.1924 L838.6713 92.8096 L836.9158 93.4268 L835.1603 94.0441 L833.4048 94.6613 L831.6493 95.2786 L829.8938 95.8958 L828.1382 96.513 L826.3828 97.1303 L824.6273 97.7475 L822.8718 98.3647 L821.1162 98.982 L819.3607 99.5992 L817.6052 100.2164 L815.8497 100.8337 L814.0942 101.4509 L812.3387 102.0681 L810.5831 102.6854 L808.8277 103.3026 L807.0721 103.9198 L805.3167 104.5371 L803.5612 105.1543 L801.8056 105.7715 L800.0501 106.3888 L798.2946 107.006 L796.5391 107.6232 L794.7836 108.2405 L793.0281 108.8577 L791.2726 109.475 L789.517 110.0922 L787.7615 110.7094 L786.006 111.3267 L784.2505 111.9439 L782.495 112.5611 L780.7395 113.1784 L778.9839 113.7956 L777.2285 114.4128 L775.473 115.0301 L773.7174 115.6473 L771.9619 116.2645 L770.2064 116.8818 L768.4509 117.499 L766.6954 118.1162 L764.9399 118.7335 L763.1844 119.3507 L761.4288 119.9679 L759.6733 120.5852 L757.9178 121.2024 L756.1623 121.8196 L754.4069 122.4369 L752.6513 123.0541 L750.8958 123.6713 L749.1403 124.2886 L747.3848 124.9058 L745.6293 125.523 L743.8738 126.1403 L742.1182 126.7575 L740.3627 127.3747 L738.6072 127.992 L736.8517 128.6092 L735.0962 129.2265 L733.3407 129.8437 L731.5852 130.4609 L729.8297 131.0782 L728.0742 131.6954 L726.3187 132.3126 L724.5631 132.9299 L722.8076 133.5471 L721.0521 134.1643 L719.2966 134.7816 L717.5411 135.3988 L715.7856 136.016 L714.03 136.6333 L712.2745 137.2505 L710.519 137.8677 L708.7635 138.485 L707.008 139.1022 L705.2525 139.7194 L703.497 140.3367 L701.7415 140.9539 L699.986 141.5711 L698.2305 142.1884 L696.4749 142.8056 L694.7195 143.4229 L692.9639 144.0401 L691.2084 144.6573 L689.4529 145.2746 L687.6974 145.8918 L685.9419 146.509 L684.1864 147.1263 L682.4308 147.7435 L680.6754 148.3607 L678.9199 148.978 L677.1643 149.5952 L675.4088 150.2124 L673.6533 150.8297 L671.8978 151.4469 L670.1423 152.0641 L668.3868 152.6814 L666.6313 153.2986 L664.8757 153.9158 L663.1202 154.5331 L661.3647 155.1503 L659.6092 155.7675 L657.8538 156.3848 L656.0982 157.002 L654.3427 157.6192 L652.5872 158.2365 L650.8317 158.8537 L649.0762 159.4709 L647.3206 160.0882 L645.5651 160.7054 L643.8096 161.3226 L642.0541 161.9399 L640.2986 162.5571 L638.5431 163.1743 L636.7875 163.7916 L635.0321 164.4088 L633.2766 165.026 L631.521 165.6433 L629.7656 166.2605 L628.01 166.8778 L626.2545 167.495 L624.499 168.1122 L622.7435 168.7295 L620.988 169.3467 L619.2325 169.9639 L617.4769 170.5812 L615.7214 171.1984 L613.9659 171.8156 L612.2104 172.4329 L610.4549 173.0501 L608.6994 173.6673 L606.9439 174.2846 L605.1884 174.9018 L603.4329 175.519 L601.6774 176.1363 L599.9218 176.7535 L598.1664 177.3707 L596.4108 177.988 L594.6553 178.6052 L592.8998 179.2224 L591.1443 179.8397 L589.3888 180.4569 L587.6333 181.0741 L585.8777 181.6914 L585 182 ZM152.2665 334.1483 L154.022 333.5311 L155.7776 332.9138 L157.5331 332.2966 L159.2886 331.6794 L161.0441 331.0621 L162.7996 330.4449 L164.5551 329.8276 L166.3106 329.2104 L168.0661 328.5932 L169.8216 327.976 L171.5771 327.3587 L173.3327 326.7415 L175.0882 326.1242 L176.8437 325.507 L178.5992 324.8898 L180.3547 324.2726 L182.1102 323.6553 L183.8657 323.0381 L185.6212 322.4208 L187.3768 321.8036 L189.1323 321.1864 L190.8878 320.5691 L192.6433 319.9519 L194.3988 319.3347 L196.1543 318.7174 L197.9098 318.1002 L199.6653 317.483 L201.4208 316.8657 L203.1763 316.2485 L204.9319 315.6313 L206.6874 315.014 L208.4429 314.3968 L210.1984 313.7795 L211.9539 313.1623 L213.7094 312.5451 L215.4649 311.9279 L217.2204 311.3106 L218.976 310.6934 L220.7315 310.0761 L222.487 309.4589 L224.2425 308.8417 L225.998 308.2245 L227.7535 307.6072 L229.509 306.99 L231.2645 306.3727 L233.02 305.7555 L234.7755 305.1383 L236.5311 304.521 L238.2866 303.9038 L240.0421 303.2866 L241.7976 302.6693 L243.5531 302.0521 L245.3086 301.4349 L247.0641 300.8176 L248.8196 300.2004 L250.5751 299.5832 L252.3307 298.9659 L254.0862 298.3487 L255.8417 297.7314 L257.5972 297.1142 L259.3527 296.497 L261.1082 295.8798 L262.8637 295.2625 L264.6192 294.6453 L266.3748 294.028 L268.1302 293.4108 L269.8858 292.7936 L271.6413 292.1764 L273.3968 291.5591 L275.1523 290.9419 L276.9078 290.3246 L278.6633 289.7074 L280.4188 289.0902 L282.1743 288.4729 L283.9299 287.8557 L285.6854 287.2385 L287.4409 286.6212 L289.1964 286.004 L290.9519 285.3868 L292.7074 284.7695 L294.4629 284.1523 L296.2184 283.5351 L297.9739 282.9178 L299.7295 282.3006 L301.485 281.6834 L303.2405 281.0661 L304.996 280.4489 L306.7515 279.8317 L308.507 279.2144 L310.2625 278.5972 L312.018 277.9799 L313.7736 277.3627 L315.5291 276.7455 L317.2846 276.1283 L319.0401 275.511 L320.7956 274.8938 L322.5511 274.2766 L324.3066 273.6593 L326.0621 273.0421 L327.8176 272.4249 L329.5732 271.8076 L331.3287 271.1904 L333.0842 270.5732 L334.8397 269.9559 L336.5952 269.3387 L338.3507 268.7214 L340.1062 268.1042 L341.8617 267.487 L343.6172 266.8698 L345.3727 266.2525 L347.1283 265.6353 L348.8838 265.018 L350.6393 264.4008 L352.3948 263.7836 L354.1503 263.1664 L355.9058 262.5491 L357.6613 261.9319 L359.4168 261.3146 L361.1724 260.6974 L362.9279 260.0802 L364.6834 259.4629 L366.4389 258.8457 L368.1944 258.2285 L369.9499 257.6112 L371.7054 256.994 L373.4609 256.3768 L375.2164 255.7595 L376.972 255.1423 L378.7274 254.5251 L380.483 253.9078 L382.2385 253.2906 L383.994 252.6733 L385.7495 252.0561 L387.505 251.4389 L389.2605 250.8216 L391.0161 250.2044 L392.7715 249.5872 L394.527 248.9699 L396.2826 248.3527 L398.0381 247.7355 L399.7936 247.1182 L401.5491 246.501 L403.3046 245.8838 L405.0601 245.2665 L406.8156 244.6493 L408.5711 244.0321 L410.3267 243.4148 L412.0822 242.7976 L413.8377 242.1804 L415.5932 241.5631 L417.3487 240.9459 L419.1042 240.3287 L420.8597 239.7114 L422.6152 239.0942 L424.3707 238.477 L426.1263 237.8597 L427.8818 237.2425 L429.6373 236.6252 L431.3928 236.008 L433.1483 235.3908 L434.9038 234.7735 L436.6593 234.1563 L438.4148 233.5391 L440.1703 232.9218 L441.9258 232.3046 L443.6814 231.6874 L445.4369 231.0701 L447.1924 230.4529 L448.9479 229.8357 L450.7034 229.2184 L452.4589 228.6012 L454.2144 227.984 L455.9699 227.3667 L457.7255 226.7495 L459.481 226.1323 L461.2365 225.515 L462.992 224.8978 L464.7475 224.2806 L466.503 223.6633 L468.2585 223.0461 L470.014 222.4289 L471.7695 221.8116 L473.5251 221.1944 L475.2806 220.5771 L477.0361 219.9599 L478.7916 219.3427 L480.5471 218.7254 L482.3026 218.1082 L484.0581 217.491 L485.8136 216.8737 L487.5691 216.2565 L489.3246 215.6393 L491.0802 215.022 L492.8357 214.4048 L494.5912 213.7876 L496.3467 213.1703 L498.1022 212.5531 L499.8577 211.9359 L501.6132 211.3186 L503.3687 210.7014 L505.1243 210.0842 L506.8798 209.4669 L508.6353 208.8497 L510.3908 208.2325 L512.1463 207.6152 L513.9018 206.998 L515.6573 206.3808 L517.4128 205.7635 L519.1683 205.1463 L520.9238 204.5291 L522.6794 203.9118 L524.4349 203.2946 L526.1904 202.6774 L527.9459 202.0601 L529.7014 201.4429 L531.4569 200.8257 L533.2124 200.2084 L534.968 199.5912 L536.7234 198.974 L538.4789 198.3567 L540.2345 197.7395 L541.99 197.1222 L543.7455 196.505 L545.501 195.8878 L547.2565 195.2705 L549.012 194.6533 L550.7675 194.0361 L552.5231 193.4188 L554.2786 192.8016 L556.0341 192.1844 L557.7896 191.5671 L559.5451 190.9499 L561.3006 190.3327 L563.0561 189.7154 L564.8116 189.0982 L566.5671 188.481 L568.3226 187.8637 L570.0782 187.2465 L571.8337 186.6293 L573.5892 186.012 L575.3447 185.3948 L577.1002 184.7776 L578.8557 184.1603 L580.6112 183.5431 L582.3668 182.9259 L584.1223 182.3086 L585 182 L584.1223 182 L582.3668 182 L580.6112 182 L578.8557 182 L577.1002 182 L575.3447 182 L573.5892 182 L571.8337 182 L570.0782 182 L568.3226 182 L566.5671 182 L564.8116 182 L563.0561 182 L561.3006 182 L559.5451 182 L557.7896 182 L556.0341 182 L554.2786 182 L552.5231 182 L550.7675 182 L549.012 182 L547.2565 182 L545.501 182 L543.7455 182 L541.99 182 L540.2345 182 L538.4789 182 L536.7234 182 L534.968 182 L533.2124 182 L531.4569 182 L529.7014 182 L527.9459 182 L526.1904 182 L524.4349 182 L522.6794 182 L520.9238 182 L519.1683 182 L517.4128 182 L515.6573 182 L513.9018 182 L512.1463 182 L510.3908 182 L508.6353 182 L506.8798 182 L505.1243 182 L503.3687 182 L501.6132 182 L499.8577 182 L498.1022 182 L496.3467 182 L494.5912 182 L492.8357 182 L491.0802 182 L489.3246 182 L487.5691 182 L485.8136 182 L484.0581 182 L482.3026 182 L480.5471 182 L478.7916 182 L477.0361 182 L475.2806 182 L473.5251 182 L471.7695 182 L470.014 182 L468.2585 182 L466.503 182 L464.7475 182 L462.992 182 L461.2365 182 L459.481 182 L457.7255 182 L455.9699 182 L454.2144 182 L452.4589 182 L450.7034 182 L448.9479 182 L447.1924 182 L445.4369 182 L443.6814 182 L441.9258 182 L440.1703 182 L438.4148 182 L436.6593 182 L434.9038 182 L433.1483 182 L431.3928 182 L429.6373 182 L427.8818 182 L426.1263 182 L424.3707 182 L422.6152 182 L420.8597 182 L419.1042 182 L417.3487 182 L415.5932 182 L413.8377 182 L412.0822 182 L410.3267 182 L408.5711 182 L406.8156 182 L405.0601 182 L403.3046 182 L401.5491 182 L399.7936 182 L398.0381 182 L396.2826 182 L394.527 182 L392.7715 182 L391.0161 182 L389.2605 182 L387.505 182 L385.7495 182 L383.994 182 L382.2385 182 L380.483 182 L378.7274 182 L376.972 182 L375.2164 182 L373.4609 182 L371.7054 182 L369.9499 182 L368.1944 182 L366.4389 182 L364.6834 182 L362.9279 182 L361.1724 182 L359.4168 182 L357.6613 182 L355.9058 182 L354.1503 182 L352.3948 182 L350.6393 182 L348.8838 182 L347.1283 182 L345.3727 182 L343.6172 182 L341.8617 182 L340.1062 182 L338.3507 182 L336.5952 182 L334.8397 182 L333.0842 182 L331.3287 182 L329.5732 182 L327.8176 182 L326.0621 182 L324.3066 182 L322.5511 182 L320.7956 182 L319.0401 182 L317.2846 182 L315.5291 182 L313.7736 182 L312.018 182 L310.2625 182 L308.507 182 L306.7515 182 L304.996 182 L303.2405 182 L301.485 182 L299.7295 182 L297.9739 182 L296.2184 182 L294.4629 182 L292.7074 182 L290.9519 182 L289.1964 182 L287.4409 182 L285.6854 182 L283.9299 182 L282.1743 182 L280.4188 182 L278.6633 182 L276.9078 182 L275.1523 182 L273.3968 182 L271.6413 182 L269.8858 182 L268.1302 182 L266.3748 182 L264.6192 182 L262.8637 182 L261.1082 182 L259.3527 182 L257.5972 182 L255.8417 182 L254.0862 182 L252.3307 182 L250.5751 182 L248.8196 182 L247.0641 182 L245.3086 182 L243.5531 182 L241.7976 182 L240.0421 182 L238.2866 182 L236.5311 182 L234.7755 182 L233.02 182 L231.2645 182 L229.509 182 L227.7535 182 L225.998 182 L224.2425 182 L222.487 182 L220.7315 182 L218.976 182 L217.2204 182 L215.4649 182 L213.7094 182 L211.9539 182 L210.1984 182 L208.4429 182 L206.6874 182 L204.9319 182 L203.1763 182 L201.4208 182 L199.6653 182 L197.9098 182 L196.1543 182 L194.3988 182 L192.6433 182 L190.8878 182 L189.1323 182 L187.3768 182 L185.6212 182 L183.8657 182 L182.1102 182 L180.3547 182 L178.5992 182 L176.8437 182 L175.0882 182 L173.3327 182 L171.5771 182 L169.8216 182 L168.0661 182 L166.3106 182 L164.5551 182 L162.7996 182 L161.0441 182 L159.2886 182 L157.5331 182 L155.7776 182 L154.022 182 L152.2665 182 L150.511 182 L148.7555 182 L147 182 L147 336 L148.7555 335.3828 L150.511 334.7655 Z"></path></g></g></svg> 