<?xml version="1.0"?>
 <svg xmlns:xlink="http://www.w3.org/1999/xlink" style="fill-opacity:1; color-rendering:auto; color-interpolation:auto; text-rendering:auto; stroke:black; stroke-linecap:square; stroke-miterlimit:10; shape-rendering:auto; stroke-opacity:1; fill:black; stroke-dasharray:none; font-weight:normal; stroke-width:1; font-family:'Dialog'; font-style:normal; stroke-linejoin:miter; font-size:12px; stroke-dashoffset:0; image-rendering:auto;" width="1130" height="376" xmlns="http://www.w3.org/2000/svg" viewBox="0 0 1130 376"><defs id="genericDefs"></defs><defs id="defs1"><clipPath clipPathUnits="userSpaceOnUse" id="clipPath1"><path d="M0 0 L1130 0 L1130 376 L0 376 L0 0 Z"></path></clipPath></defs><g><g style="stroke-linecap:butt; fill:rgb(255,157,30); text-rendering:geometricPrecision; image-rendering:optimizeQuality; color-rendering:optimizeQuality; stroke-linejoin:round; stroke:rgb(255,157,30); color-interpolation:linearRGB; stroke-width:8;"><path d="M147 336 L148.7555 330.4745 L150.511 325.0082 L152.2665 319.6008 L154.022 314.252 L155.7776 308.9617 L157.5331 303.7295 L159.2886 298.5553 L161.0441 293.4388 L162.7996 288.3797 L164.5551 283.3779 L166.3106 278.4331 L168.0661 273.545 L169.8216 268.7135 L171.5771 263.9382 L173.3327 259.219 L175.0882 254.5556 L176.8437 249.9477 L178.5992 245.3952 L180.3547 240.8977 L182.1102 236.4552 L183.8657 232.0672 L185.6212 227.7336 L187.3768 223.4541 L189.1323 219.2286 L190.8878 215.0567 L192.6433 210.9382 L194.3988 206.8729 L196.1543 202.8606 L197.9098 198.901 L199.6653 194.9938 L201.4208 191.1389 L203.1763 187.336 L204.9319 183.5848 L206.6874 179.8851 L208.4429 176.2368 L210.1984 172.6395 L211.9539 169.0929 L213.7094 165.597 L215.4649 162.1514 L217.2204 158.7559 L218.976 155.4102 L220.7315 152.1141 L222.487 148.8675 L224.2425 145.6699 L225.998 142.5213 L227.7535 139.4213 L229.509 136.3698 L231.2645 133.3665 L233.02 130.4111 L234.7755 127.5034 L236.5311 124.6432 L238.2866 121.8302 L240.0421 119.0642 L241.7976 116.345 L243.5531 113.6723 L245.3086 111.0459 L247.0641 108.4655 L248.8196 105.931 L250.5751 103.442 L252.3307 100.9984 L254.0862 98.5998 L255.8417 96.2461 L257.5972 93.937 L259.3527 91.6723 L261.1082 89.4518 L262.8637 87.2752 L264.6192 85.1422 L266.3748 83.0526 L268.1302 81.0063 L269.8858 79.0029 L271.6413 77.0422 L273.3968 75.124 L275.1523 73.248 L276.9078 71.414 L278.6633 69.6218 L280.4188 67.8711 L282.1743 66.1618 L283.9299 64.4934 L285.6854 62.8659 L287.4409 61.2789 L289.1964 59.7323 L290.9519 58.2258 L292.7074 56.7591 L294.4629 55.3321 L296.2184 53.9444 L297.9739 52.5959 L299.7295 51.2863 L301.485 50.0153 L303.2405 48.7828 L304.996 47.5885 L306.7515 46.4322 L308.507 45.3135 L310.2625 44.2324 L312.018 43.1885 L313.7736 42.1816 L315.5291 41.2114 L317.2846 40.2778 L319.0401 39.3805 L320.7956 38.5192 L322.5511 37.6938 L324.3066 36.9039 L326.0621 36.1493 L327.8176 35.4299 L329.5732 34.7453 L331.3287 34.0954 L333.0842 33.4798 L334.8397 32.8984 L336.5952 32.3509 L338.3507 31.837 L340.1062 31.3566 L341.8617 30.9094 L343.6172 30.4952 L345.3727 30.1136 L347.1283 29.7646 L348.8838 29.4478 L350.6393 29.163 L352.3948 28.91 L354.1503 28.6885 L355.9058 28.4983 L357.6613 28.3391 L359.4168 28.2108 L361.1724 28.1131 L362.9279 28.0457 L364.6834 28.0084 L366.4389 28.0009 L368.1944 28.0231 L369.9499 28.0747 L371.7054 28.1554 L373.4609 28.2651 L375.2164 28.4034 L376.972 28.5701 L378.7274 28.7651 L380.483 28.988 L382.2385 29.2386 L383.994 29.5168 L385.7495 29.8221 L387.505 30.1545 L389.2605 30.5137 L391.0161 30.8994 L392.7715 31.3113 L394.527 31.7494 L396.2826 32.2132 L398.0381 32.7027 L399.7936 33.2175 L401.5491 33.7573 L403.3046 34.3221 L405.0601 34.9115 L406.8156 35.5253 L408.5711 36.1632 L410.3267 36.8251 L412.0822 37.5106 L413.8377 38.2195 L415.5932 38.9517 L417.3487 39.7068 L419.1042 40.4847 L420.8597 41.2851 L422.6152 42.1076 L424.3707 42.9523 L426.1263 43.8186 L427.8818 44.7066 L429.6373 45.6158 L431.3928 46.5461 L433.1483 47.4972 L434.9038 48.4688 L436.6593 49.4609 L438.4148 50.473 L440.1703 51.505 L441.9258 52.5567 L443.6814 53.6277 L445.4369 54.7179 L447.1924 55.827 L448.9479 56.9548 L450.7034 58.101 L452.4589 59.2655 L454.2144 60.4479 L455.9699 61.648 L457.7255 62.8656 L459.481 64.1005 L461.2365 65.3524 L462.992 66.6211 L464.7475 67.9063 L466.503 69.2078 L468.2585 70.5254 L470.014 71.8588 L471.7695 73.2077 L473.5251 74.5721 L475.2806 75.9515 L477.0361 77.3458 L478.7916 78.7548 L480.5471 80.1781 L482.3026 81.6156 L484.0581 83.0671 L485.8136 84.5322 L487.5691 86.0107 L489.3246 87.5025 L491.0802 89.0072 L492.8357 90.5247 L494.5912 92.0547 L496.3467 93.5969 L498.1022 95.1511 L499.8577 96.7171 L501.6132 98.2947 L503.3687 99.8835 L505.1243 101.4835 L506.8798 103.0942 L508.6353 104.7156 L510.3908 106.3472 L512.1463 107.9891 L513.9018 109.6407 L515.6573 111.302 L517.4128 112.9728 L519.1683 114.6526 L520.9238 116.3414 L522.6794 118.0389 L524.4349 119.7449 L526.1904 121.459 L527.9459 123.1811 L529.7014 124.911 L531.4569 126.6483 L533.2124 128.393 L534.968 130.1446 L536.7234 131.903 L538.4789 133.668 L540.2345 135.4392 L541.99 137.2165 L543.7455 138.9997 L545.501 140.7884 L547.2565 142.5826 L549.012 144.3818 L550.7675 146.1859 L552.5231 147.9946 L554.2786 149.8078 L556.0341 151.6251 L557.7896 153.4463 L559.5451 155.2712 L561.3006 157.0996 L563.0561 158.9312 L564.8116 160.7657 L566.5671 162.603 L568.3226 164.4428 L570.0782 166.2849 L571.8337 168.129 L573.5892 169.9748 L575.3447 171.8222 L577.1002 173.6709 L578.8557 175.5207 L580.6112 177.3714 L582.3668 179.2226 L584.1223 181.0742 L585.8777 182.9258 L587.6333 184.7774 L589.3888 186.6286 L591.1443 188.4793 L592.8998 190.3291 L594.6553 192.1778 L596.4108 194.0252 L598.1664 195.871 L599.9218 197.7151 L601.6774 199.5572 L603.4329 201.397 L605.1884 203.2343 L606.9439 205.0688 L608.6994 206.9004 L610.4549 208.7288 L612.2104 210.5537 L613.9659 212.3749 L615.7214 214.1922 L617.4769 216.0054 L619.2325 217.8141 L620.988 219.6182 L622.7435 221.4174 L624.499 223.2116 L626.2545 225.0003 L628.01 226.7835 L629.7656 228.5608 L631.521 230.332 L633.2766 232.097 L635.0321 233.8554 L636.7875 235.607 L638.5431 237.3517 L640.2986 239.089 L642.0541 240.8189 L643.8096 242.541 L645.5651 244.2551 L647.3206 245.9611 L649.0762 247.6586 L650.8317 249.3474 L652.5872 251.0272 L654.3427 252.698 L656.0982 254.3593 L657.8538 256.011 L659.6092 257.6527 L661.3647 259.2845 L663.1202 260.9058 L664.8757 262.5165 L666.6313 264.1165 L668.3868 265.7053 L670.1423 267.2829 L671.8978 268.8489 L673.6533 270.4031 L675.4088 271.9453 L677.1643 273.4753 L678.9199 274.9928 L680.6754 276.4975 L682.4308 277.9893 L684.1864 279.4678 L685.9419 280.9329 L687.6974 282.3844 L689.4529 283.8219 L691.2084 285.2452 L692.9639 286.6542 L694.7195 288.0485 L696.4749 289.4279 L698.2305 290.7923 L699.986 292.1412 L701.7415 293.4746 L703.497 294.7922 L705.2525 296.0937 L707.008 297.3789 L708.7635 298.6476 L710.519 299.8995 L712.2745 301.1344 L714.03 302.352 L715.7856 303.5521 L717.5411 304.7345 L719.2966 305.899 L721.0521 307.0452 L722.8076 308.173 L724.5631 309.2821 L726.3187 310.3723 L728.0742 311.4433 L729.8297 312.495 L731.5852 313.527 L733.3407 314.5391 L735.0962 315.5312 L736.8517 316.5028 L738.6072 317.4539 L740.3627 318.3842 L742.1182 319.2934 L743.8738 320.1814 L745.6293 321.0477 L747.3848 321.8924 L749.1403 322.7149 L750.8958 323.5153 L752.6513 324.2932 L754.4069 325.0483 L756.1623 325.7805 L757.9178 326.4894 L759.6733 327.175 L761.4288 327.8368 L763.1844 328.4747 L764.9399 329.0885 L766.6954 329.6779 L768.4509 330.2426 L770.2064 330.7825 L771.9619 331.2973 L773.7174 331.7868 L775.473 332.2506 L777.2285 332.6887 L778.9839 333.1006 L780.7395 333.4863 L782.495 333.8455 L784.2505 334.1779 L786.006 334.4832 L787.7615 334.7614 L789.517 335.012 L791.2726 335.2349 L793.0281 335.4299 L794.7836 335.5966 L796.5391 335.7349 L798.2946 335.8446 L800.0501 335.9253 L801.8056 335.9769 L803.5612 335.9991 L805.3167 335.9916 L807.0721 335.9543 L808.8277 335.8869 L810.5831 335.7892 L812.3387 335.6609 L814.0942 335.5017 L815.8497 335.3115 L817.6052 335.09 L819.3607 334.837 L821.1162 334.5522 L822.8718 334.2354 L824.6273 333.8864 L826.3828 333.5048 L828.1382 333.0906 L829.8938 332.6434 L831.6493 332.163 L833.4048 331.6491 L835.1603 331.1016 L836.9158 330.5202 L838.6713 329.9046 L840.4269 329.2547 L842.1823 328.5701 L843.9379 327.8506 L845.6934 327.0961 L847.4489 326.3062 L849.2044 325.4808 L850.9599 324.6195 L852.7154 323.7222 L854.4709 322.7886 L856.2264 321.8184 L857.982 320.8115 L859.7375 319.7676 L861.493 318.6865 L863.2485 317.5678 L865.004 316.4115 L866.7595 315.2172 L868.5151 313.9846 L870.2705 312.7137 L872.0261 311.4041 L873.7816 310.0556 L875.537 308.6679 L877.2926 307.2409 L879.0481 305.7742 L880.8036 304.2677 L882.5591 302.7211 L884.3146 301.1341 L886.0701 299.5066 L887.8256 297.8383 L889.5812 296.1288 L891.3367 294.3782 L893.0922 292.586 L894.8477 290.752 L896.6032 288.876 L898.3587 286.9578 L900.1143 284.9971 L901.8697 282.9937 L903.6252 280.9474 L905.3808 278.8578 L907.1362 276.7249 L908.8918 274.5482 L910.6473 272.3277 L912.4028 270.063 L914.1583 267.7539 L915.9138 265.4002 L917.6693 263.0016 L919.4249 260.558 L921.1804 258.069 L922.9359 255.5345 L924.6913 252.9541 L926.4469 250.3277 L928.2025 247.655 L929.9579 244.9358 L931.7134 242.1698 L933.4689 239.3568 L935.2244 236.4966 L936.98 233.5889 L938.7355 230.6335 L940.491 227.6302 L942.2465 224.5787 L944.002 221.4787 L945.7575 218.3301 L947.513 215.1325 L949.2686 211.8859 L951.024 208.5898 L952.7795 205.2441 L954.5351 201.8486 L956.2906 198.403 L958.0461 194.9071 L959.8016 191.3605 L961.5571 187.7632 L963.3126 184.1149 L965.0682 180.4152 L966.8236 176.664 L968.5792 172.8611 L970.3347 169.0062 L972.0901 165.099 L973.8457 161.1394 L975.6012 157.1271 L977.3567 153.0618 L979.1122 148.9433 L980.8677 144.7714 L982.6232 140.5459 L984.3787 136.2664 L986.1343 131.9328 L987.8898 127.5448 L989.6453 123.1023 L991.4008 118.6048 L993.1563 114.0523 L994.9118 109.4444 L996.6674 104.781 L998.4229 100.0618 L1000.1783 95.2865 L1001.9339 90.455 L1003.6894 85.5669 L1005.4449 80.6221 L1007.2004 75.6203 L1008.9559 70.5612 L1010.7114 65.4447 L1012.4669 60.2705 L1014.2225 55.0383 L1015.978 49.748 L1017.7335 44.3992 L1019.489 38.9918 L1021.2444 33.5255 L1023 28" style="fill:none; fill-rule:evenodd;"></path></g><g style="fill-opacity:0.302; fill:rgb(255,157,30); text-rendering:optimizeSpeed; image-rendering:optimizeSpeed; color-rendering:optimizeSpeed; shape-rendering:crispEdges; stroke:rgb(255,157,30); color-interpolation:sRGB; stroke-opacity:0.302;"><path style="stroke:none;" d="M208.4429 182 L210.1984 182 L211.9539 182 L213.7094 182 L215.4649 182 L217.2204 182 L218.976 182 L220.7315 182 L222.487 182 L224.2425 182 L225.998 182 L227.7535 182 L229.509 182 L231.2645 182 L233.02 182 L234.7755 182 L236.5311 182 L238.2866 182 L240.0421 182 L241.7976 182 L243.5531 182 L245.3086 182 L247.0641 182 L248.8196 182 L250.5751 182 L252.3307 182 L254.0862 182 L255.8417 182 L257.5972 182 L259.3527 182 L261.1082 182 L262.8637 182 L264.6192 182 L266.3748 182 L268.1302 182 L269.8858 182 L271.6413 182 L273.3968 182 L275.1523 182 L276.9078 182 L278.6633 182 L280.4188 182 L282.1743 182 L283.9299 182 L285.6854 182 L287.4409 182 L289.1964 182 L290.9519 182 L292.7074 182 L294.4629 182 L296.2184 182 L297.9739 182 L299.7295 182 L301.485 182 L303.2405 182 L304.996 182 L306.7515 182 L308.507 182 L310.2625 182 L312.018 182 L313.7736 182 L315.5291 182 L317.2846 182 L319.0401 182 L320.7956 182 L322.5511 182 L324.3066 182 L326.0621 182 L327.8176 182 L329.5732 182 L331.3287 182 L333.0842 182 L334.8397 182 L336.5952 182 L338.3507 182 L340.1062 182 L341.8617 182 L343.6172 182 L345.3727 182 L347.1283 182 L348.8838 182 L350.6393 182 L352.3948 182 L354.1503 182 L355.9058 182 L357.6613 182 L359.4168 182 L361.1724 182 L362.9279 182 L364.6834 182 L366.4389 182 L368.1944 182 L369.9499 182 L371.7054 182 L373.4609 182 L375.2164 182 L376.972 182 L378.7274 182 L380.483 182 L382.2385 182 L383.994 182 L385.7495 182 L387.505 182 L389.2605 182 L391.0161 182 L392.7715 182 L394.527 182 L396.2826 182 L398.0381 182 L399.7936 182 L401.5491 182 L403.3046 182 L405.0601 182 L406.8156 182 L408.5711 182 L410.3267 182 L412.0822 182 L413.8377 182 L415.5932 182 L417.3487 182 L419.1042 182 L420.8597 182 L422.6152 182 L424.3707 182 L426.1263 182 L427.8818 182 L429.6373 182 L431.3928 182 L433.1483 182 L434.9038 182 L436.6593 182 L438.4148 182 L440.1703 182 L441.9258 182 L443.6814 182 L445.4369 182 L447.1924 182 L448.9479 182 L450.7034 182 L452.4589 182 L454.2144 182 L455.9699 182 L457.7255 182 L459.481 182 L461.2365 182 L462.992 182 L464.7475 182 L466.503 182 L468.2585 182 L470.014 182 L471.7695 182 L473.5251 182 L475.2806 182 L477.0361 182 L478.7916 182 L480.5471 182 L482.3026 182 L484.0581 182 L485.8136 182 L487.5691 182 L489.3246 182 L491.0802 182 L492.8357 182 L494.5912 182 L496.3467 182 L498.1022 182 L499.8577 182 L501.6132 182 L503.3687 182 L505.1243 182 L506.8798 182 L508.6353 182 L510.3908 182 L512.1463 182 L513.9018 182 L515.6573 182 L517.4128 182 L519.1683 182 L520.9238 182 L522.6794 182 L524.4349 182 L526.1904 182 L527.9459 182 L529.7014 182 L531.4569 182 L533.2124 182 L534.968 182 L536.7234 182 L538.4789 182 L540.2345 182 L541.99 182 L543.7455 182 L545.501 182 L547.2565 182 L549.012 182 L550.7675 182 L552.5231 182 L554.2786 182 L556.0341 182 L557.7896 182 L559.5451 182 L561.3006 182 L563.0561 182 L564.8116 182 L566.5671 182 L568.3226 182 L570.0782 182 L571.8337 182 L573.5892 182 L575.3447 182 L577.1002 182 L578.8557 182 L580.6112 182 L582.3668 182 L584.1223 182 L585 182 L584.1223 181.0742 L582.3668 179.2226 L580.6112 177.3714 L578.8557 175.5207 L577.1002 173.6709 L575.3447 171.8222 L573.5892 169.9748 L571.8337 168.129 L570.0782 166.2849 L568.3226 164.4428 L566.5671 162.603 L564.8116 160.7657 L563.0561 158.9312 L561.3006 157.0996 L559.5451 155.2712 L557.7896 153.4463 L556.0341 151.6251 L554.2786 149.8078 L552.5231 147.9946 L550.7675 146.1859 L549.012 144.3818 L547.2565 142.5826 L545.501 140.7884 L543.7455 138.9997 L541.99 137.2165 L540.2345 135.4392 L538.4789 133.668 L536.7234 131.903 L534.968 130.1446 L533.2124 128.393 L531.4569 126.6483 L529.7014 124.911 L527.9459 123.1811 L526.1904 121.459 L524.4349 119.7449 L522.6794 118.0389 L520.9238 116.3414 L519.1683 114.6526 L517.4128 112.9728 L515.6573 111.302 L513.9018 109.6407 L512.1463 107.9891 L510.3908 106.3472 L508.6353 104.7156 L506.8798 103.0942 L505.1243 101.4835 L503.3687 99.8835 L501.6132 98.2947 L499.8577 96.7171 L498.1022 95.1511 L496.3467 93.5969 L494.5912 92.0547 L492.8357 90.5247 L491.0802 89.0072 L489.3246 87.5025 L487.5691 86.0107 L485.8136 84.5322 L484.0581 83.0671 L482.3026 81.6156 L480.5471 80.1781 L478.7916 78.7548 L477.0361 77.3458 L475.2806 75.9515 L473.5251 74.5721 L471.7695 73.2077 L470.014 71.8588 L468.2585 70.5254 L466.503 69.2078 L464.7475 67.9063 L462.992 66.6211 L461.2365 65.3524 L459.481 64.1005 L457.7255 62.8656 L455.9699 61.648 L454.2144 60.4479 L452.4589 59.2655 L450.7034 58.101 L448.9479 56.9548 L447.1924 55.827 L445.4369 54.7179 L443.6814 53.6277 L441.9258 52.5567 L440.1703 51.505 L438.4148 50.473 L436.6593 49.4609 L434.9038 48.4688 L433.1483 47.4972 L431.3928 46.5461 L429.6373 45.6158 L427.8818 44.7066 L426.1263 43.8186 L424.3707 42.9523 L422.6152 42.1076 L420.8597 41.2851 L419.1042 40.4847 L417.3487 39.7068 L415.5932 38.9517 L413.8377 38.2195 L412.0822 37.5106 L410.3267 36.8251 L408.5711 36.1632 L406.8156 35.5253 L405.0601 34.9115 L403.3046 34.3221 L401.5491 33.7573 L399.7936 33.2175 L398.0381 32.7027 L396.2826 32.2132 L394.527 31.7494 L392.7715 31.3113 L391.0161 30.8994 L389.2605 30.5137 L387.505 30.1545 L385.7495 29.8221 L383.994 29.5168 L382.2385 29.2386 L380.483 28.988 L378.7274 28.7651 L376.972 28.5701 L375.2164 28.4034 L373.4609 28.2651 L371.7054 28.1554 L369.9499 28.0747 L368.1944 28.0231 L366.4389 28.0009 L364.6834 28.0084 L362.9279 28.0457 L361.1724 28.1131 L359.4168 28.2108 L357.6613 28.3391 L355.9058 28.4983 L354.1503 28.6885 L352.3948 28.91 L350.6393 29.163 L348.8838 29.4478 L347.1283 29.7646 L345.3727 30.1136 L343.6172 30.4952 L341.8617 30.9094 L340.1062 31.3566 L338.3507 31.837 L336.5952 32.3509 L334.8397 32.8984 L333.0842 33.4798 L331.3287 34.0954 L329.5732 34.7453 L327.8176 35.4299 L326.0621 36.1493 L324.3066 36.9039 L322.5511 37.6938 L320.7956 38.5192 L319.0401 39.3805 L317.2846 40.2778 L315.5291 41.2114 L313.7736 42.1816 L312.018 43.1885 L310.2625 44.2324 L308.507 45.3135 L306.7515 46.4322 L304.996 47.5885 L303.2405 48.7828 L301.485 50.0153 L299.7295 51.2863 L297.9739 52.5959 L296.2184 53.9444 L294.4629 55.3321 L292.7074 56.7591 L290.9519 58.2258 L289.1964 59.7323 L287.4409 61.2789 L285.6854 62.8659 L283.9299 64.4934 L282.1743 66.1618 L280.4188 67.8711 L278.6633 69.6218 L276.9078 71.414 L275.1523 73.248 L273.3968 75.124 L271.6413 77.0422 L269.8858 79.0029 L268.1302 81.0063 L266.3748 83.0526 L264.6192 85.1422 L262.8637 87.2752 L261.1082 89.4518 L259.3527 91.6723 L257.5972 93.937 L255.8417 96.2461 L254.0862 98.5998 L252.3307 100.9984 L250.5751 103.442 L248.8196 105.931 L247.0641 108.4655 L245.3086 111.0459 L243.5531 113.6723 L241.7976 116.345 L240.0421 119.0642 L238.2866 121.8302 L236.5311 124.6432 L234.7755 127.5034 L233.02 130.4111 L231.2645 133.3665 L229.509 136.3698 L227.7535 139.4213 L225.998 142.5213 L224.2425 145.6699 L222.487 148.8675 L220.7315 152.1141 L218.976 155.4102 L217.2204 158.7559 L215.4649 162.1514 L213.7094 165.597 L211.9539 169.0929 L210.1984 172.6395 L208.4429 176.2368 L206.6874 179.8851 L205.6839 182 L206.6874 182 ZM965.0682 180.4152 L964.3161 182 L965.0682 182 L966.8236 182 L968.5792 182 L970.3347 182 L972.0901 182 L973.8457 182 L975.6012 182 L977.3567 182 L979.1122 182 L980.8677 182 L982.6232 182 L984.3787 182 L986.1343 182 L987.8898 182 L989.6453 182 L991.4008 182 L993.1563 182 L994.9118 182 L996.6674 182 L998.4229 182 L1000.1783 182 L1001.9339 182 L1003.6894 182 L1005.4449 182 L1007.2004 182 L1008.9559 182 L1010.7114 182 L1012.4669 182 L1014.2225 182 L1015.978 182 L1017.7335 182 L1019.489 182 L1021.2444 182 L1023 182 L1023 28 L1021.2444 33.5255 L1019.489 38.9918 L1017.7335 44.3992 L1015.978 49.748 L1014.2225 55.0383 L1012.4669 60.2705 L1010.7114 65.4447 L1008.9559 70.5612 L1007.2004 75.6203 L1005.4449 80.6221 L1003.6894 85.5669 L1001.9339 90.455 L1000.1783 95.2865 L998.4229 100.0618 L996.6674 104.781 L994.9118 109.4444 L993.1563 114.0523 L991.4008 118.6048 L989.6453 123.1023 L987.8898 127.5448 L986.1343 131.9328 L984.3787 136.2664 L982.6232 140.5459 L980.8677 144.7714 L979.1122 148.9433 L977.3567 153.0618 L975.6012 157.1271 L973.8457 161.1394 L972.0901 165.099 L970.3347 169.0062 L968.5792 172.8611 L966.8236 176.664 ZM148.7555 330.4745 L150.511 325.0082 L152.2665 319.6008 L154.022 314.252 L155.7776 308.9617 L157.5331 303.7295 L159.2886 298.5553 L161.0441 293.4388 L162.7996 288.3797 L164.5551 283.3779 L166.3106 278.4331 L168.0661 273.545 L169.8216 268.7135 L171.5771 263.9382 L173.3327 259.219 L175.0882 254.5556 L176.8437 249.9477 L178.5992 245.3952 L180.3547 240.8977 L182.1102 236.4552 L183.8657 232.0672 L185.6212 227.7336 L187.3768 223.4541 L189.1323 219.2286 L190.8878 215.0567 L192.6433 210.9382 L194.3988 206.8729 L196.1543 202.8606 L197.9098 198.901 L199.6653 194.9938 L201.4208 191.1389 L203.1763 187.336 L204.9319 183.5848 L205.6839 182 L204.9319 182 L203.1763 182 L201.4208 182 L199.6653 182 L197.9098 182 L196.1543 182 L194.3988 182 L192.6433 182 L190.8878 182 L189.1323 182 L187.3768 182 L185.6212 182 L183.8657 182 L182.1102 182 L180.3547 182 L178.5992 182 L176.8437 182 L175.0882 182 L173.3327 182 L171.5771 182 L169.8216 182 L168.0661 182 L166.3106 182 L164.5551 182 L162.7996 182 L161.0441 182 L159.2886 182 L157.5331 182 L155.7776 182 L154.022 182 L152.2665 182 L150.511 182 L148.7555 182 L147 182 L147 336 ZM778.9839 333.1006 L780.7395 333.4863 L782.495 333.8455 L784.2505 334.1779 L786.006 334.4832 L787.7615 334.7614 L789.517 335.012 L791.2726 335.2349 L793.0281 335.4299 L794.7836 335.5966 L796.5391 335.7349 L798.2946 335.8446 L800.0501 335.9253 L801.8056 335.9769 L803.5612 335.9991 L805.3167 335.9916 L807.0721 335.9543 L808.8277 335.8869 L810.5831 335.7892 L812.3387 335.6609 L814.0942 335.5017 L815.8497 335.3115 L817.6052 335.09 L819.3607 334.837 L821.1162 334.5522 L822.8718 334.2354 L824.6273 333.8864 L826.3828 333.5048 L828.1382 333.0906 L829.8938 332.6434 L831.6493 332.163 L833.4048 331.6491 L835.1603 331.1016 L836.9158 330.5202 L838.6713 329.9046 L840.4269 329.2547 L842.1823 328.5701 L843.9379 327.8506 L845.6934 327.0961 L847.4489 326.3062 L849.2044 325.4808 L850.9599 324.6195 L852.7154 323.7222 L854.4709 322.7886 L856.2264 321.8184 L857.982 320.8115 L859.7375 319.7676 L861.493 318.6865 L863.2485 317.5678 L865.004 316.4115 L866.7595 315.2172 L868.5151 313.9846 L870.2705 312.7137 L872.0261 311.4041 L873.7816 310.0556 L875.537 308.6679 L877.2926 307.2409 L879.0481 305.7742 L880.8036 304.2677 L882.5591 302.7211 L884.3146 301.1341 L886.0701 299.5066 L887.8256 297.8383 L889.5812 296.1288 L891.3367 294.3782 L893.0922 292.586 L894.8477 290.752 L896.6032 288.876 L898.3587 286.9578 L900.1143 284.9971 L901.8697 282.9937 L903.6252 280.9474 L905.3808 278.8578 L907.1362 276.7249 L908.8918 274.5482 L910.6473 272.3277 L912.4028 270.063 L914.1583 267.7539 L915.9138 265.4002 L917.6693 263.0016 L919.4249 260.558 L921.1804 258.069 L922.9359 255.5345 L924.6913 252.9541 L926.4469 250.3277 L928.2025 247.655 L929.9579 244.9358 L931.7134 242.1698 L933.4689 239.3568 L935.2244 236.4966 L936.98 233.5889 L938.7355 230.6335 L940.491 227.6302 L942.2465 224.5787 L944.002 221.4787 L945.7575 218.3301 L947.513 215.1325 L949.2686 211.8859 L951.024 208.5898 L952.7795 205.2441 L954.5351 201.8486 L956.2906 198.403 L958.0461 194.9071 L959.8016 191.3605 L961.5571 187.7632 L963.3126 184.1149 L964.3161 182 L963.3126 182 L961.5571 182 L959.8016 182 L958.0461 182 L956.2906 182 L954.5351 182 L952.7795 182 L951.024 182 L949.2686 182 L947.513 182 L945.7575 182 L944.002 182 L942.2465 182 L940.491 182 L938.7355 182 L936.98 182 L935.2244 182 L933.4689 182 L931.7134 182 L929.9579 182 L928.2025 182 L926.4469 182 L924.6913 182 L922.9359 182 L921.1804 182 L919.4249 182 L917.6693 182 L915.9138 182 L914.1583 182 L912.4028 182 L910.6473 182 L908.8918 182 L907.1362 182 L905.3808 182 L903.6252 182 L901.8697 182 L900.1143 182 L898.3587 182 L896.6032 182 L894.8477 182 L893.0922 182 L891.3367 182 L889.5812 182 L887.8256 182 L886.0701 182 L884.3146 182 L882.5591 182 L880.8036 182 L879.0481 182 L877.2926 182 L875.537 182 L873.7816 182 L872.0261 182 L870.2705 182 L868.5151 182 L866.7595 182 L865.004 182 L863.2485 182 L861.493 182 L859.7375 182 L857.982 182 L856.2264 182 L854.4709 182 L852.7154 182 L850.9599 182 L849.2044 182 L847.4489 182 L845.6934 182 L843.9379 182 L842.1823 182 L840.4269 182 L838.6713 182 L836.9158 182 L835.1603 182 L833.4048 182 L831.6493 182 L829.8938 182 L828.1382 182 L826.3828 182 L824.6273 182 L822.8718 182 L821.1162 182 L819.3607 182 L817.6052 182 L815.8497 182 L814.0942 182 L812.3387 182 L810.5831 182 L808.8277 182 L807.0721 182 L805.3167 182 L803.5612 182 L801.8056 182 L800.0501 182 L798.2946 182 L796.5391 182 L794.7836 182 L793.0281 182 L791.2726 182 L789.517 182 L787.7615 182 L786.006 182 L784.2505 182 L782.495 182 L780.7395 182 L778.9839 182 L777.2285 182 L775.473 182 L773.7174 182 L771.9619 182 L770.2064 182 L768.4509 182 L766.6954 182 L764.9399 182 L763.1844 182 L761.4288 182 L759.6733 182 L757.9178 182 L756.1623 182 L754.4069 182 L752.6513 182 L750.8958 182 L749.1403 182 L747.3848 182 L745.6293 182 L743.8738 182 L742.1182 182 L740.3627 182 L738.6072 182 L736.8517 182 L735.0962 182 L733.3407 182 L731.5852 182 L729.8297 182 L728.0742 182 L726.3187 182 L724.5631 182 L722.8076 182 L721.0521 182 L719.2966 182 L717.5411 182 L715.7856 182 L714.03 182 L712.2745 182 L710.519 182 L708.7635 182 L707.008 182 L705.2525 182 L703.497 182 L701.7415 182 L699.986 182 L698.2305 182 L696.4749 182 L694.7195 182 L692.9639 182 L691.2084 182 L689.4529 182 L687.6974 182 L685.9419 182 L684.1864 182 L682.4308 182 L680.6754 182 L678.9199 182 L677.1643 182 L675.4088 182 L673.6533 182 L671.8978 182 L670.1423 182 L668.3868 182 L666.6313 182 L664.8757 182 L663.1202 182 L661.3647 182 L659.6092 182 L657.8538 182 L656.0982 182 L654.3427 182 L652.5872 182 L650.8317 182 L649.0762 182 L647.3206 182 L645.5651 182 L643.8096 182 L642.0541 182 L640.2986 182 L638.5431 182 L636.7875 182 L635.0321 182 L633.2766 182 L631.521 182 L629.7656 182 L628.01 182 L626.2545 182 L624.499 182 L622.7435 182 L620.988 182 L619.2325 182 L617.4769 182 L615.7214 182 L613.9659 182 L612.2104 182 L610.4549 182 L608.6994 182 L606.9439 182 L605.1884 182 L603.4329 182 L601.6774 182 L599.9218 182 L598.1664 182 L596.4108 182 L594.6553 182 L592.8998 182 L591.1443 182 L589.3888 182 L587.6333 182 L585.8777 182 L585 182 L585.8777 182.9258 L587.6333 184.7774 L589.3888 186.6286 L591.1443 188.4793 L592.8998 190.3291 L594.6553 192.1778 L596.4108 194.0252 L598.1664 195.871 L599.9218 197.7151 L601.6774 199.5572 L603.4329 201.397 L605.1884 203.2343 L606.9439 205.0688 L608.6994 206.9004 L610.4549 208.7288 L612.2104 210.5537 L613.9659 212.3749 L615.7214 214.1922 L617.4769 216.0054 L619.2325 217.8141 L620.988 219.6182 L622.7435 221.4174 L624.499 223.2116 L626.2545 225.0003 L628.01 226.7835 L629.7656 228.5608 L631.521 230.332 L633.2766 232.097 L635.0321 233.8554 L636.7875 235.607 L638.5431 237.3517 L640.2986 239.089 L642.0541 240.8189 L643.8096 242.541 L645.5651 244.2551 L647.3206 245.9611 L649.0762 247.6586 L650.8317 249.3474 L652.5872 251.0272 L654.3427 252.698 L656.0982 254.3593 L657.8538 256.011 L659.6092 257.6527 L661.3647 259.2845 L663.1202 260.9058 L664.8757 262.5165 L666.6313 264.1165 L668.3868 265.7053 L670.1423 267.2829 L671.8978 268.8489 L673.6533 270.4031 L675.4088 271.9453 L677.1643 273.4753 L678.9199 274.9928 L680.6754 276.4975 L682.4308 277.9893 L684.1864 279.4678 L685.9419 280.9329 L687.6974 282.3844 L689.4529 283.8219 L691.2084 285.2452 L692.9639 286.6542 L694.7195 288.0485 L696.4749 289.4279 L698.2305 290.7923 L699.986 292.1412 L701.7415 293.4746 L703.497 294.7922 L705.2525 296.0937 L707.008 297.3789 L708.7635 298.6476 L710.519 299.8995 L712.2745 301.1344 L714.03 302.352 L715.7856 303.5521 L717.5411 304.7345 L719.2966 305.899 L721.0521 307.0452 L722.8076 308.173 L724.5631 309.2821 L726.3187 310.3723 L728.0742 311.4433 L729.8297 312.495 L731.5852 313.527 L733.3407 314.5391 L735.0962 315.5312 L736.8517 316.5028 L738.6072 317.4539 L740.3627 318.3842 L742.1182 319.2934 L743.8738 320.1814 L745.6293 321.0477 L747.3848 321.8924 L749.1403 322.7149 L750.8958 323.5153 L752.6513 324.2932 L754.4069 325.0483 L756.1623 325.7805 L757.9178 326.4894 L759.6733 327.175 L761.4288 327.8368 L763.1844 328.4747 L764.9399 329.0885 L766.6954 329.6779 L768.4509 330.2426 L770.2064 330.7825 L771.9619 331.2973 L773.7174 331.7868 L775.473 332.2506 L777.2285 332.6887 Z"></path></g></g></svg> 