<?xml version="1.0"?>
 <svg xmlns:xlink="http://www.w3.org/1999/xlink" style="fill-opacity:1; color-rendering:auto; color-interpolation:auto; text-rendering:auto; stroke:black; stroke-linecap:square; stroke-miterlimit:10; shape-rendering:auto; stroke-opacity:1; fill:black; stroke-dasharray:none; font-weight:normal; stroke-width:1; font-family:'Dialog'; font-style:normal; stroke-linejoin:miter; font-size:12px; stroke-dashoffset:0; image-rendering:auto;" width="1130" height="376" xmlns="http://www.w3.org/2000/svg" viewBox="0 0 1130 376"><defs id="genericDefs"></defs><defs id="defs1"><clipPath clipPathUnits="userSpaceOnUse" id="clipPath1"><path d="M0 0 L1130 0 L1130 376 L0 376 L0 0 Z"></path></clipPath></defs><g><g style="stroke-linecap:butt; fill:rgb(16,91,216); text-rendering:geometricPrecision; image-rendering:optimizeQuality; color-rendering:optimizeQuality; stroke-linejoin:round; stroke:rgb(16,91,216); color-interpolation:linearRGB; stroke-width:8;"><path d="M147 28 L148.7555 28 L150.511 28 L152.2665 28 L154.022 28 L155.7776 28 L157.5331 28 L159.2886 28 L161.0441 28 L162.7996 28 L164.5551 28 L166.3106 28 L168.0661 28 L169.8216 28 L171.5771 28 L173.3327 28 L175.0882 28 L176.8437 28 L178.5992 28 L180.3547 28 L182.1102 28 L183.8657 28 L185.6212 28 L187.3768 28 L189.1323 28 L190.8878 28 L192.6433 28 L194.3988 28 L196.1543 28 L197.9098 28 L199.6653 28 L201.4208 28 L203.1763 28 L204.9319 28 L206.6874 28 L208.4429 28 L210.1984 28 L211.9539 28 L213.7094 28 L215.4649 28 L217.2204 28 L218.976 28 L220.7315 28 L222.487 28 L224.2425 28 L225.998 28 L227.7535 28 L229.509 28 L231.2645 28 L233.02 28 L234.7755 28 L236.5311 28 L238.2866 28 L240.0421 28 L241.7976 28 L243.5531 28 L245.3086 28 L247.0641 28 L248.8196 28 L250.5751 28 L252.3307 28 L254.0862 28 L255.8417 28 L257.5972 28 L259.3527 28 L261.1082 28 L262.8637 28 L264.6192 28 L266.3748 28 L268.1302 28 L269.8858 28 L271.6413 28 L273.3968 28 L275.1523 28 L276.9078 28 L278.6633 28 L280.4188 28 L282.1743 28 L283.9299 28 L285.6854 28 L287.4409 28 L289.1964 28 L290.9519 28 L292.7074 28 L294.4629 28 L296.2184 28 L297.9739 28 L299.7295 28 L301.485 28 L303.2405 28 L304.996 28 L306.7515 28 L308.507 28 L310.2625 28 L312.018 28 L313.7736 28 L315.5291 28 L317.2846 28 L319.0401 28 L320.7956 28 L322.5511 28 L324.3066 28 L326.0621 28 L327.8176 28 L329.5732 28 L331.3287 28 L333.0842 28 L334.8397 28 L336.5952 28 L338.3507 28 L340.1062 28 L341.8617 28 L343.6172 28 L345.3727 28 L347.1283 28 L348.8838 28 L350.6393 28 L352.3948 28 L354.1503 28 L355.9058 28 L357.6613 28 L359.4168 28 L361.1724 28 L362.9279 28 L364.6834 28 L366.4389 28 L368.1944 28 L369.9499 28 L371.7054 28 L373.4609 28 L375.2164 28 L376.972 28 L378.7274 28 L380.483 28 L382.2385 28 L383.994 28 L385.7495 28 L387.505 28 L389.2605 28 L391.0161 28 L392.7715 28 L394.527 28 L396.2826 28 L398.0381 28 L399.7936 28 L401.5491 28 L403.3046 28 L405.0601 28 L406.8156 28 L408.5711 28 L410.3267 28 L412.0822 28 L413.8377 28 L415.5932 28 L417.3487 28 L419.1042 28 L420.8597 28 L422.6152 28 L424.3707 28 L426.1263 28 L427.8818 28 L429.6373 28 L431.3928 28 L433.1483 28 L434.9038 28 L436.6593 28 L438.4148 28 L440.1703 28 L441.9258 28 L443.6814 28 L445.4369 28 L447.1924 28 L448.9479 28 L450.7034 28 L452.4589 28 L454.2144 28 L455.9699 28 L457.7255 28 L459.481 28 L461.2365 28 L462.992 28 L464.7475 28 L466.503 28 L468.2585 28 L470.014 28 L471.7695 28 L473.5251 28 L475.2806 28 L477.0361 28 L478.7916 28 L480.5471 28 L482.3026 28 L484.0581 28 L485.8136 28 L487.5691 28 L489.3246 28 L491.0802 28 L492.8357 28 L494.5912 28 L496.3467 28 L498.1022 28 L499.8577 28 L501.6132 28 L503.3687 28 L505.1243 28 L506.8798 28 L508.6353 28 L510.3908 28 L512.1463 28 L513.9018 28 L515.6573 28 L517.4128 28 L519.1683 28 L520.9238 28 L522.6794 28 L524.4349 28 L526.1904 28 L527.9459 28 L529.7014 28 L531.4569 28 L533.2124 28 L534.968 28 L536.7234 28 L538.4789 28 L540.2345 28 L541.99 28 L543.7455 28 L545.501 28 L547.2565 28 L549.012 28 L550.7675 28 L552.5231 28 L554.2786 28 L556.0341 28 L557.7896 28 L559.5451 28 L561.3006 28 L563.0561 28 L564.8116 28 L566.5671 28 L568.3226 28 L570.0782 28 L571.8337 28 L573.5892 28 L575.3447 28 L577.1002 28 L578.8557 28 L580.6112 28 L582.3668 28 L584.1223 28 L585.8777 28 L587.6333 28 L589.3888 28 L591.1443 28 L592.8998 28 L594.6553 28 L596.4108 28 L598.1664 28 L599.9218 28 L601.6774 28 L603.4329 28 L605.1884 28 L606.9439 28 L608.6994 28 L610.4549 28 L612.2104 28 L613.9659 28 L615.7214 28 L617.4769 28 L619.2325 28 L620.988 28 L622.7435 28 L624.499 28 L626.2545 28 L628.01 28 L629.7656 28 L631.521 28 L633.2766 28 L635.0321 28 L636.7875 28 L638.5431 28 L640.2986 28 L642.0541 28 L643.8096 28 L645.5651 28 L647.3206 28 L649.0762 28 L650.8317 28 L652.5872 28 L654.3427 28 L656.0982 28 L657.8538 28 L659.6092 28 L661.3647 28 L663.1202 28 L664.8757 28 L666.6313 28 L668.3868 28 L670.1423 28 L671.8978 28 L673.6533 28 L675.4088 28 L677.1643 28 L678.9199 28 L680.6754 28 L682.4308 28 L684.1864 28 L685.9419 28 L687.6974 28 L689.4529 28 L691.2084 28 L692.9639 28 L694.7195 28 L696.4749 28 L698.2305 28 L699.986 28 L701.7415 28 L703.497 28 L705.2525 28 L707.008 28 L708.7635 28 L710.519 28 L712.2745 28 L714.03 28 L715.7856 28 L717.5411 28 L719.2966 28 L721.0521 28 L722.8076 28 L724.5631 28 L726.3187 28 L728.0742 28 L729.8297 28 L731.5852 28 L733.3407 28 L735.0962 28 L736.8517 28 L738.6072 28 L740.3627 28 L742.1182 28 L743.8738 28 L745.6293 28 L747.3848 28 L749.1403 28 L750.8958 28 L752.6513 28 L754.4069 28 L756.1623 28 L757.9178 28 L759.6733 28 L761.4288 28 L763.1844 28 L764.9399 28 L766.6954 28 L768.4509 28 L770.2064 28 L771.9619 28 L773.7174 28 L775.473 28 L777.2285 28 L778.9839 28 L780.7395 28 L782.495 28 L784.2505 28 L786.006 28 L787.7615 28 L789.517 28 L791.2726 28 L793.0281 28 L794.7836 28 L796.5391 28 L798.2946 28 L800.0501 28 L801.8056 28 L803.5612 28 L805.3167 28 L807.0721 28 L808.8277 28 L810.5831 28 L812.3387 28 L814.0942 28 L815.8497 28 L817.6052 28 L819.3607 28 L821.1162 28 L822.8718 28 L824.6273 28 L826.3828 28 L828.1382 28 L829.8938 28 L831.6493 28 L833.4048 28 L835.1603 28 L836.9158 28 L838.6713 28 L840.4269 28 L842.1823 28 L843.9379 28 L845.6934 28 L847.4489 28 L849.2044 28 L850.9599 28 L852.7154 28 L854.4709 28 L856.2264 28 L857.982 28 L859.7375 28 L861.493 28 L863.2485 28 L865.004 28 L866.7595 28 L868.5151 28 L870.2705 28 L872.0261 28 L873.7816 28 L875.537 28 L877.2926 28 L879.0481 28 L880.8036 28 L882.5591 28 L884.3146 28 L886.0701 28 L887.8256 28 L889.5812 28 L891.3367 28 L893.0922 28 L894.8477 28 L896.6032 28 L898.3587 28 L900.1143 28 L901.8697 28 L903.6252 28 L905.3808 28 L907.1362 28 L908.8918 28 L910.6473 28 L912.4028 28 L914.1583 28 L915.9138 28 L917.6693 28 L919.4249 28 L921.1804 28 L922.9359 28 L924.6913 28 L926.4469 28 L928.2025 28 L929.9579 28 L931.7134 28 L933.4689 28 L935.2244 28 L936.98 28 L938.7355 28 L940.491 28 L942.2465 28 L944.002 28 L945.7575 28 L947.513 28 L949.2686 28 L951.024 28 L952.7795 28 L954.5351 28 L956.2906 28 L958.0461 28 L959.8016 28 L961.5571 28 L963.3126 28 L965.0682 28 L966.8236 28 L968.5792 28 L970.3347 28 L972.0901 28 L973.8457 28 L975.6012 28 L977.3567 28 L979.1122 28 L980.8677 28 L982.6232 28 L984.3787 28 L986.1343 28 L987.8898 28 L989.6453 28 L991.4008 28 L993.1563 28 L994.9118 28 L996.6674 28 L998.4229 28 L1000.1783 28 L1001.9339 28 L1003.6894 28 L1005.4449 28 L1007.2004 28 L1008.9559 28 L1010.7114 28 L1012.4669 28 L1014.2225 28 L1015.978 28 L1017.7335 28 L1019.489 28 L1021.2444 28 L1023 28" style="fill:none; fill-rule:evenodd;"></path></g><g style="fill-opacity:0.302; fill:rgb(16,91,216); text-rendering:optimizeSpeed; image-rendering:optimizeSpeed; color-rendering:optimizeSpeed; shape-rendering:crispEdges; stroke:rgb(16,91,216); color-interpolation:sRGB; stroke-opacity:0.302;"><path style="stroke:none;" d="M148.7555 336 L150.511 336 L152.2665 336 L154.022 336 L155.7776 336 L157.5331 336 L159.2886 336 L161.0441 336 L162.7996 336 L164.5551 336 L166.3106 336 L168.0661 336 L169.8216 336 L171.5771 336 L173.3327 336 L175.0882 336 L176.8437 336 L178.5992 336 L180.3547 336 L182.1102 336 L183.8657 336 L185.6212 336 L187.3768 336 L189.1323 336 L190.8878 336 L192.6433 336 L194.3988 336 L196.1543 336 L197.9098 336 L199.6653 336 L201.4208 336 L203.1763 336 L204.9319 336 L206.6874 336 L208.4429 336 L210.1984 336 L211.9539 336 L213.7094 336 L215.4649 336 L217.2204 336 L218.976 336 L220.7315 336 L222.487 336 L224.2425 336 L225.998 336 L227.7535 336 L229.509 336 L231.2645 336 L233.02 336 L234.7755 336 L236.5311 336 L238.2866 336 L240.0421 336 L241.7976 336 L243.5531 336 L245.3086 336 L247.0641 336 L248.8196 336 L250.5751 336 L252.3307 336 L254.0862 336 L255.8417 336 L257.5972 336 L259.3527 336 L261.1082 336 L262.8637 336 L264.6192 336 L266.3748 336 L268.1302 336 L269.8858 336 L271.6413 336 L273.3968 336 L275.1523 336 L276.9078 336 L278.6633 336 L280.4188 336 L282.1743 336 L283.9299 336 L285.6854 336 L287.4409 336 L289.1964 336 L290.9519 336 L292.7074 336 L294.4629 336 L296.2184 336 L297.9739 336 L299.7295 336 L301.485 336 L303.2405 336 L304.996 336 L306.7515 336 L308.507 336 L310.2625 336 L312.018 336 L313.7736 336 L315.5291 336 L317.2846 336 L319.0401 336 L320.7956 336 L322.5511 336 L324.3066 336 L326.0621 336 L327.8176 336 L329.5732 336 L331.3287 336 L333.0842 336 L334.8397 336 L336.5952 336 L338.3507 336 L340.1062 336 L341.8617 336 L343.6172 336 L345.3727 336 L347.1283 336 L348.8838 336 L350.6393 336 L352.3948 336 L354.1503 336 L355.9058 336 L357.6613 336 L359.4168 336 L361.1724 336 L362.9279 336 L364.6834 336 L366.4389 336 L368.1944 336 L369.9499 336 L371.7054 336 L373.4609 336 L375.2164 336 L376.972 336 L378.7274 336 L380.483 336 L382.2385 336 L383.994 336 L385.7495 336 L387.505 336 L389.2605 336 L391.0161 336 L392.7715 336 L394.527 336 L396.2826 336 L398.0381 336 L399.7936 336 L401.5491 336 L403.3046 336 L405.0601 336 L406.8156 336 L408.5711 336 L410.3267 336 L412.0822 336 L413.8377 336 L415.5932 336 L417.3487 336 L419.1042 336 L420.8597 336 L422.6152 336 L424.3707 336 L426.1263 336 L427.8818 336 L429.6373 336 L431.3928 336 L433.1483 336 L434.9038 336 L436.6593 336 L438.4148 336 L440.1703 336 L441.9258 336 L443.6814 336 L445.4369 336 L447.1924 336 L448.9479 336 L450.7034 336 L452.4589 336 L454.2144 336 L455.9699 336 L457.7255 336 L459.481 336 L461.2365 336 L462.992 336 L464.7475 336 L466.503 336 L468.2585 336 L470.014 336 L471.7695 336 L473.5251 336 L475.2806 336 L477.0361 336 L478.7916 336 L480.5471 336 L482.3026 336 L484.0581 336 L485.8136 336 L487.5691 336 L489.3246 336 L491.0802 336 L492.8357 336 L494.5912 336 L496.3467 336 L498.1022 336 L499.8577 336 L501.6132 336 L503.3687 336 L505.1243 336 L506.8798 336 L508.6353 336 L510.3908 336 L512.1463 336 L513.9018 336 L515.6573 336 L517.4128 336 L519.1683 336 L520.9238 336 L522.6794 336 L524.4349 336 L526.1904 336 L527.9459 336 L529.7014 336 L531.4569 336 L533.2124 336 L534.968 336 L536.7234 336 L538.4789 336 L540.2345 336 L541.99 336 L543.7455 336 L545.501 336 L547.2565 336 L549.012 336 L550.7675 336 L552.5231 336 L554.2786 336 L556.0341 336 L557.7896 336 L559.5451 336 L561.3006 336 L563.0561 336 L564.8116 336 L566.5671 336 L568.3226 336 L570.0782 336 L571.8337 336 L573.5892 336 L575.3447 336 L577.1002 336 L578.8557 336 L580.6112 336 L582.3668 336 L584.1223 336 L585.8777 336 L587.6333 336 L589.3888 336 L591.1443 336 L592.8998 336 L594.6553 336 L596.4108 336 L598.1664 336 L599.9218 336 L601.6774 336 L603.4329 336 L605.1884 336 L606.9439 336 L608.6994 336 L610.4549 336 L612.2104 336 L613.9659 336 L615.7214 336 L617.4769 336 L619.2325 336 L620.988 336 L622.7435 336 L624.499 336 L626.2545 336 L628.01 336 L629.7656 336 L631.521 336 L633.2766 336 L635.0321 336 L636.7875 336 L638.5431 336 L640.2986 336 L642.0541 336 L643.8096 336 L645.5651 336 L647.3206 336 L649.0762 336 L650.8317 336 L652.5872 336 L654.3427 336 L656.0982 336 L657.8538 336 L659.6092 336 L661.3647 336 L663.1202 336 L664.8757 336 L666.6313 336 L668.3868 336 L670.1423 336 L671.8978 336 L673.6533 336 L675.4088 336 L677.1643 336 L678.9199 336 L680.6754 336 L682.4308 336 L684.1864 336 L685.9419 336 L687.6974 336 L689.4529 336 L691.2084 336 L692.9639 336 L694.7195 336 L696.4749 336 L698.2305 336 L699.986 336 L701.7415 336 L703.497 336 L705.2525 336 L707.008 336 L708.7635 336 L710.519 336 L712.2745 336 L714.03 336 L715.7856 336 L717.5411 336 L719.2966 336 L721.0521 336 L722.8076 336 L724.5631 336 L726.3187 336 L728.0742 336 L729.8297 336 L731.5852 336 L733.3407 336 L735.0962 336 L736.8517 336 L738.6072 336 L740.3627 336 L742.1182 336 L743.8738 336 L745.6293 336 L747.3848 336 L749.1403 336 L750.8958 336 L752.6513 336 L754.4069 336 L756.1623 336 L757.9178 336 L759.6733 336 L761.4288 336 L763.1844 336 L764.9399 336 L766.6954 336 L768.4509 336 L770.2064 336 L771.9619 336 L773.7174 336 L775.473 336 L777.2285 336 L778.9839 336 L780.7395 336 L782.495 336 L784.2505 336 L786.006 336 L787.7615 336 L789.517 336 L791.2726 336 L793.0281 336 L794.7836 336 L796.5391 336 L798.2946 336 L800.0501 336 L801.8056 336 L803.5612 336 L805.3167 336 L807.0721 336 L808.8277 336 L810.5831 336 L812.3387 336 L814.0942 336 L815.8497 336 L817.6052 336 L819.3607 336 L821.1162 336 L822.8718 336 L824.6273 336 L826.3828 336 L828.1382 336 L829.8938 336 L831.6493 336 L833.4048 336 L835.1603 336 L836.9158 336 L838.6713 336 L840.4269 336 L842.1823 336 L843.9379 336 L845.6934 336 L847.4489 336 L849.2044 336 L850.9599 336 L852.7154 336 L854.4709 336 L856.2264 336 L857.982 336 L859.7375 336 L861.493 336 L863.2485 336 L865.004 336 L866.7595 336 L868.5151 336 L870.2705 336 L872.0261 336 L873.7816 336 L875.537 336 L877.2926 336 L879.0481 336 L880.8036 336 L882.5591 336 L884.3146 336 L886.0701 336 L887.8256 336 L889.5812 336 L891.3367 336 L893.0922 336 L894.8477 336 L896.6032 336 L898.3587 336 L900.1143 336 L901.8697 336 L903.6252 336 L905.3808 336 L907.1362 336 L908.8918 336 L910.6473 336 L912.4028 336 L914.1583 336 L915.9138 336 L917.6693 336 L919.4249 336 L921.1804 336 L922.9359 336 L924.6913 336 L926.4469 336 L928.2025 336 L929.9579 336 L931.7134 336 L933.4689 336 L935.2244 336 L936.98 336 L938.7355 336 L940.491 336 L942.2465 336 L944.002 336 L945.7575 336 L947.513 336 L949.2686 336 L951.024 336 L952.7795 336 L954.5351 336 L956.2906 336 L958.0461 336 L959.8016 336 L961.5571 336 L963.3126 336 L965.0682 336 L966.8236 336 L968.5792 336 L970.3347 336 L972.0901 336 L973.8457 336 L975.6012 336 L977.3567 336 L979.1122 336 L980.8677 336 L982.6232 336 L984.3787 336 L986.1343 336 L987.8898 336 L989.6453 336 L991.4008 336 L993.1563 336 L994.9118 336 L996.6674 336 L998.4229 336 L1000.1783 336 L1001.9339 336 L1003.6894 336 L1005.4449 336 L1007.2004 336 L1008.9559 336 L1010.7114 336 L1012.4669 336 L1014.2225 336 L1015.978 336 L1017.7335 336 L1019.489 336 L1021.2444 336 L1023 336 L1023 28 L1021.2444 28 L1019.489 28 L1017.7335 28 L1015.978 28 L1014.2225 28 L1012.4669 28 L1010.7114 28 L1008.9559 28 L1007.2004 28 L1005.4449 28 L1003.6894 28 L1001.9339 28 L1000.1783 28 L998.4229 28 L996.6674 28 L994.9118 28 L993.1563 28 L991.4008 28 L989.6453 28 L987.8898 28 L986.1343 28 L984.3787 28 L982.6232 28 L980.8677 28 L979.1122 28 L977.3567 28 L975.6012 28 L973.8457 28 L972.0901 28 L970.3347 28 L968.5792 28 L966.8236 28 L965.0682 28 L963.3126 28 L961.5571 28 L959.8016 28 L958.0461 28 L956.2906 28 L954.5351 28 L952.7795 28 L951.024 28 L949.2686 28 L947.513 28 L945.7575 28 L944.002 28 L942.2465 28 L940.491 28 L938.7355 28 L936.98 28 L935.2244 28 L933.4689 28 L931.7134 28 L929.9579 28 L928.2025 28 L926.4469 28 L924.6913 28 L922.9359 28 L921.1804 28 L919.4249 28 L917.6693 28 L915.9138 28 L914.1583 28 L912.4028 28 L910.6473 28 L908.8918 28 L907.1362 28 L905.3808 28 L903.6252 28 L901.8697 28 L900.1143 28 L898.3587 28 L896.6032 28 L894.8477 28 L893.0922 28 L891.3367 28 L889.5812 28 L887.8256 28 L886.0701 28 L884.3146 28 L882.5591 28 L880.8036 28 L879.0481 28 L877.2926 28 L875.537 28 L873.7816 28 L872.0261 28 L870.2705 28 L868.5151 28 L866.7595 28 L865.004 28 L863.2485 28 L861.493 28 L859.7375 28 L857.982 28 L856.2264 28 L854.4709 28 L852.7154 28 L850.9599 28 L849.2044 28 L847.4489 28 L845.6934 28 L843.9379 28 L842.1823 28 L840.4269 28 L838.6713 28 L836.9158 28 L835.1603 28 L833.4048 28 L831.6493 28 L829.8938 28 L828.1382 28 L826.3828 28 L824.6273 28 L822.8718 28 L821.1162 28 L819.3607 28 L817.6052 28 L815.8497 28 L814.0942 28 L812.3387 28 L810.5831 28 L808.8277 28 L807.0721 28 L805.3167 28 L803.5612 28 L801.8056 28 L800.0501 28 L798.2946 28 L796.5391 28 L794.7836 28 L793.0281 28 L791.2726 28 L789.517 28 L787.7615 28 L786.006 28 L784.2505 28 L782.495 28 L780.7395 28 L778.9839 28 L777.2285 28 L775.473 28 L773.7174 28 L771.9619 28 L770.2064 28 L768.4509 28 L766.6954 28 L764.9399 28 L763.1844 28 L761.4288 28 L759.6733 28 L757.9178 28 L756.1623 28 L754.4069 28 L752.6513 28 L750.8958 28 L749.1403 28 L747.3848 28 L745.6293 28 L743.8738 28 L742.1182 28 L740.3627 28 L738.6072 28 L736.8517 28 L735.0962 28 L733.3407 28 L731.5852 28 L729.8297 28 L728.0742 28 L726.3187 28 L724.5631 28 L722.8076 28 L721.0521 28 L719.2966 28 L717.5411 28 L715.7856 28 L714.03 28 L712.2745 28 L710.519 28 L708.7635 28 L707.008 28 L705.2525 28 L703.497 28 L701.7415 28 L699.986 28 L698.2305 28 L696.4749 28 L694.7195 28 L692.9639 28 L691.2084 28 L689.4529 28 L687.6974 28 L685.9419 28 L684.1864 28 L682.4308 28 L680.6754 28 L678.9199 28 L677.1643 28 L675.4088 28 L673.6533 28 L671.8978 28 L670.1423 28 L668.3868 28 L666.6313 28 L664.8757 28 L663.1202 28 L661.3647 28 L659.6092 28 L657.8538 28 L656.0982 28 L654.3427 28 L652.5872 28 L650.8317 28 L649.0762 28 L647.3206 28 L645.5651 28 L643.8096 28 L642.0541 28 L640.2986 28 L638.5431 28 L636.7875 28 L635.0321 28 L633.2766 28 L631.521 28 L629.7656 28 L628.01 28 L626.2545 28 L624.499 28 L622.7435 28 L620.988 28 L619.2325 28 L617.4769 28 L615.7214 28 L613.9659 28 L612.2104 28 L610.4549 28 L608.6994 28 L606.9439 28 L605.1884 28 L603.4329 28 L601.6774 28 L599.9218 28 L598.1664 28 L596.4108 28 L594.6553 28 L592.8998 28 L591.1443 28 L589.3888 28 L587.6333 28 L585.8777 28 L584.1223 28 L582.3668 28 L580.6112 28 L578.8557 28 L577.1002 28 L575.3447 28 L573.5892 28 L571.8337 28 L570.0782 28 L568.3226 28 L566.5671 28 L564.8116 28 L563.0561 28 L561.3006 28 L559.5451 28 L557.7896 28 L556.0341 28 L554.2786 28 L552.5231 28 L550.7675 28 L549.012 28 L547.2565 28 L545.501 28 L543.7455 28 L541.99 28 L540.2345 28 L538.4789 28 L536.7234 28 L534.968 28 L533.2124 28 L531.4569 28 L529.7014 28 L527.9459 28 L526.1904 28 L524.4349 28 L522.6794 28 L520.9238 28 L519.1683 28 L517.4128 28 L515.6573 28 L513.9018 28 L512.1463 28 L510.3908 28 L508.6353 28 L506.8798 28 L505.1243 28 L503.3687 28 L501.6132 28 L499.8577 28 L498.1022 28 L496.3467 28 L494.5912 28 L492.8357 28 L491.0802 28 L489.3246 28 L487.5691 28 L485.8136 28 L484.0581 28 L482.3026 28 L480.5471 28 L478.7916 28 L477.0361 28 L475.2806 28 L473.5251 28 L471.7695 28 L470.014 28 L468.2585 28 L466.503 28 L464.7475 28 L462.992 28 L461.2365 28 L459.481 28 L457.7255 28 L455.9699 28 L454.2144 28 L452.4589 28 L450.7034 28 L448.9479 28 L447.1924 28 L445.4369 28 L443.6814 28 L441.9258 28 L440.1703 28 L438.4148 28 L436.6593 28 L434.9038 28 L433.1483 28 L431.3928 28 L429.6373 28 L427.8818 28 L426.1263 28 L424.3707 28 L422.6152 28 L420.8597 28 L419.1042 28 L417.3487 28 L415.5932 28 L413.8377 28 L412.0822 28 L410.3267 28 L408.5711 28 L406.8156 28 L405.0601 28 L403.3046 28 L401.5491 28 L399.7936 28 L398.0381 28 L396.2826 28 L394.527 28 L392.7715 28 L391.0161 28 L389.2605 28 L387.505 28 L385.7495 28 L383.994 28 L382.2385 28 L380.483 28 L378.7274 28 L376.972 28 L375.2164 28 L373.4609 28 L371.7054 28 L369.9499 28 L368.1944 28 L366.4389 28 L364.6834 28 L362.9279 28 L361.1724 28 L359.4168 28 L357.6613 28 L355.9058 28 L354.1503 28 L352.3948 28 L350.6393 28 L348.8838 28 L347.1283 28 L345.3727 28 L343.6172 28 L341.8617 28 L340.1062 28 L338.3507 28 L336.5952 28 L334.8397 28 L333.0842 28 L331.3287 28 L329.5732 28 L327.8176 28 L326.0621 28 L324.3066 28 L322.5511 28 L320.7956 28 L319.0401 28 L317.2846 28 L315.5291 28 L313.7736 28 L312.018 28 L310.2625 28 L308.507 28 L306.7515 28 L304.996 28 L303.2405 28 L301.485 28 L299.7295 28 L297.9739 28 L296.2184 28 L294.4629 28 L292.7074 28 L290.9519 28 L289.1964 28 L287.4409 28 L285.6854 28 L283.9299 28 L282.1743 28 L280.4188 28 L278.6633 28 L276.9078 28 L275.1523 28 L273.3968 28 L271.6413 28 L269.8858 28 L268.1302 28 L266.3748 28 L264.6192 28 L262.8637 28 L261.1082 28 L259.3527 28 L257.5972 28 L255.8417 28 L254.0862 28 L252.3307 28 L250.5751 28 L248.8196 28 L247.0641 28 L245.3086 28 L243.5531 28 L241.7976 28 L240.0421 28 L238.2866 28 L236.5311 28 L234.7755 28 L233.02 28 L231.2645 28 L229.509 28 L227.7535 28 L225.998 28 L224.2425 28 L222.487 28 L220.7315 28 L218.976 28 L217.2204 28 L215.4649 28 L213.7094 28 L211.9539 28 L210.1984 28 L208.4429 28 L206.6874 28 L204.9319 28 L203.1763 28 L201.4208 28 L199.6653 28 L197.9098 28 L196.1543 28 L194.3988 28 L192.6433 28 L190.8878 28 L189.1323 28 L187.3768 28 L185.6212 28 L183.8657 28 L182.1102 28 L180.3547 28 L178.5992 28 L176.8437 28 L175.0882 28 L173.3327 28 L171.5771 28 L169.8216 28 L168.0661 28 L166.3106 28 L164.5551 28 L162.7996 28 L161.0441 28 L159.2886 28 L157.5331 28 L155.7776 28 L154.022 28 L152.2665 28 L150.511 28 L148.7555 28 L147 28 L147 336 Z"></path></g></g></svg> 