<?xml version="1.0"?>
 <!-- Created with Inkscape (http://www.inkscape.org/) --> <svg version="1.1" id="svg2" width="298.66272" height="468.0296" viewBox="0 0 298.66272 468.0296" sodipodi:docname="marker_purple.svg" inkscape:version="1.1.2 (0a00cf5339, 2022-02-04)" xmlns:inkscape="http://www.inkscape.org/namespaces/inkscape" xmlns:sodipodi="http://sodipodi.sourceforge.net/DTD/sodipodi-0.dtd" xmlns="http://www.w3.org/2000/svg" xmlns:svg="http://www.w3.org/2000/svg"><defs id="defs6"></defs>   <g inkscape:groupmode="layer" inkscape:label="Image" id="g8" transform="translate(-261.1792,-67.844815)"> <path style="fill:#8a8aec;fill-opacity:1" d="m 409.46911,532.86511 c -1.18261,-6.30389 -10.43379,-34.11221 -16.26954,-48.90499 -16.33001,-41.39422 -30.81928,-67.89094 -71.63504,-131 -23.50407,-36.34184 -43.31656,-70.61532 -49.82511,-86.1921 -8.63812,-20.67343 -12.05211,-43.06991 -9.96393,-65.36532 3.2397,-34.59019 16.34361,-63.51222 39.89151,-88.04578 22.06699,-22.990662 46.90775,-36.470762 80.25396,-43.550652 13.14376,-2.79062 43.87055,-2.56424 58.164,0.42853 14.33824,3.00214 29.13806,8.25466 41.836,14.84778 31.74352,16.482092 57.86446,46.641952 69.87431,80.678542 7.6673,21.72954 10.05651,48.36576 6.29671,70.199 -2.85001,16.55005 -5.60666,24.29874 -16.61832,46.71265 -11.45092,23.30803 -17.76896,34.06184 -40.73342,69.33162 -21.31795,32.74099 -28.18022,43.80446 -39.13713,63.09749 -20.771,36.57378 -36.53518,72.98975 -46.35631,107.08518 -2.02359,7.02518 -3.99335,13.14417 -4.37725,13.59776 -0.38389,0.45358 -1.01409,-0.86029 -1.40044,-2.91971 z M 426.11184,263.8284 c 16.16358,-4.74648 29.72651,-17.29144 35.96213,-33.263 3.29308,-8.43472 3.78573,-25.66205 0.99585,-34.82391 -5.76866,-18.9441 -20.62445,-32.96301 -40.14886,-37.88713 -8.40797,-2.12053 -22.10923,-1.43337 -30.45684,1.5275 -22.13284,7.85043 -36.49664,28.14626 -36.53129,51.61816 -0.0401,27.15308 18.82965,49.62477 45.75152,54.48479 6.12868,1.10638 17.68849,0.32251 24.42749,-1.65641 z" id="path827"></path> </g> </svg> 