<?xml version="1.0"?>
 <svg xmlns:xlink="http://www.w3.org/1999/xlink" style="fill-opacity:1; color-rendering:auto; color-interpolation:auto; text-rendering:auto; stroke:black; stroke-linecap:square; stroke-miterlimit:10; shape-rendering:auto; stroke-opacity:1; fill:black; stroke-dasharray:none; font-weight:normal; stroke-width:1; font-family:'Dialog'; font-style:normal; stroke-linejoin:miter; font-size:12px; stroke-dashoffset:0; image-rendering:auto;" width="1130" height="376" xmlns="http://www.w3.org/2000/svg" viewBox="0 0 1130 376"><defs id="genericDefs"></defs><defs id="defs1"><clipPath clipPathUnits="userSpaceOnUse" id="clipPath1"><path d="M0 0 L1130 0 L1130 376 L0 376 L0 0 Z"></path></clipPath></defs><g><g style="stroke-linecap:butt; fill:rgb(255,41,117); text-rendering:geometricPrecision; image-rendering:optimizeQuality; color-rendering:optimizeQuality; stroke-linejoin:round; stroke:rgb(255,41,117); color-interpolation:linearRGB; stroke-width:8;"><path d="M147 336 L148.7555 50.2536 L150.511 49.3447 L152.2665 149.7902 L154.022 254.1293 L155.7776 319.4659 L157.5331 335.3826 L159.2886 308.8836 L161.0441 254.5286 L162.7996 188.3222 L164.5551 124.2573 L166.3106 72.6727 L168.0661 39.8001 L169.8216 28.0375 L171.5771 36.6221 L173.3327 62.4722 L175.0882 101.0459 L176.8437 147.1231 L178.5992 195.4576 L180.3547 241.2763 L182.1102 280.6244 L183.8657 310.5677 L185.6212 329.2715 L187.3768 335.9788 L189.1323 330.9126 L190.8878 315.1259 L192.6433 290.3196 L194.3988 258.6476 L196.1543 222.5229 L197.9098 184.4371 L199.6653 146.8017 L201.4208 111.8154 L203.1763 81.3621 L204.9319 56.9388 L206.6874 39.6134 L208.4429 30.0103 L210.1984 28.3185 L211.9539 34.3224 L213.7094 47.446 L215.4649 66.8114 L217.2204 91.3028 L218.976 119.6366 L220.7315 150.43 L222.487 182.2681 L224.2425 213.7659 L225.998 243.6234 L227.7535 270.6717 L229.509 293.9108 L231.2645 312.5368 L233.02 325.9604 L234.7755 333.8148 L236.5311 335.9555 L238.2866 332.4521 L240.0421 323.5732 L241.7976 309.7651 L243.5531 291.6266 L245.3086 269.8804 L247.0641 245.3417 L248.8196 218.887 L250.5751 191.4223 L252.3307 163.853 L254.0862 137.055 L255.8417 111.8497 L257.5972 88.9809 L259.3527 69.0967 L261.1082 52.7342 L262.8637 40.3093 L264.6192 32.1095 L266.3748 28.2922 L268.1302 28.8851 L269.8858 33.7914 L271.6413 42.7976 L273.3968 55.5841 L275.1523 71.7382 L276.9078 90.7687 L278.6633 112.1217 L280.4188 135.1978 L282.1743 159.3694 L283.9299 183.997 L285.6854 208.4465 L287.4409 232.1045 L289.1964 254.3928 L290.9519 274.7813 L292.7074 292.7991 L294.4629 308.0441 L296.2184 320.1897 L297.9739 328.9907 L299.7295 334.2859 L301.485 335.9991 L303.2405 334.1385 L304.996 328.794 L306.7515 320.1321 L308.507 308.3904 L310.2625 293.8699 L312.018 276.9271 L313.7736 257.9638 L315.5291 237.4179 L317.2846 215.7526 L319.0401 193.446 L320.7956 170.9806 L322.5511 148.833 L324.3066 127.4642 L326.0621 107.3106 L327.8176 88.7754 L329.5732 72.2218 L331.3287 57.966 L333.0842 46.2724 L334.8397 37.3496 L336.5952 31.3476 L338.3507 28.3559 L340.1062 28.4037 L341.8617 31.4604 L343.6172 37.4376 L345.3727 46.192 L347.1283 57.5295 L348.8838 71.2099 L350.6393 86.9524 L352.3948 104.4417 L354.1503 123.3345 L355.9058 143.2666 L357.6613 163.8599 L359.4168 184.7294 L361.1724 205.4907 L362.9279 225.7666 L364.6834 245.1938 L366.4389 263.4293 L368.1944 280.1559 L369.9499 295.0872 L371.7054 307.9726 L373.4609 318.6003 L375.2164 326.8011 L376.972 332.4498 L378.7274 335.467 L380.483 335.8198 L382.2385 333.5212 L383.994 328.6293 L385.7495 321.2457 L387.505 311.513 L389.2605 299.6115 L391.0161 285.7559 L392.7715 270.1913 L394.527 253.1883 L396.2826 235.0385 L398.0381 216.0491 L399.7936 196.5381 L401.5491 176.8285 L403.3046 157.2433 L405.0601 138.1002 L406.8156 119.7066 L408.5711 102.3548 L410.3267 86.3178 L412.0822 71.8447 L413.8377 59.1576 L415.5932 48.448 L417.3487 39.8749 L419.1042 33.5618 L420.8597 29.596 L422.6152 28.0273 L424.3707 28.8677 L426.1263 32.0919 L427.8818 37.6379 L429.6373 45.4085 L431.3928 55.273 L433.1483 67.0699 L434.9038 80.6095 L436.6593 95.6771 L438.4148 112.0363 L440.1703 129.4333 L441.9258 147.6003 L443.6814 166.26 L445.4369 185.1299 L447.1924 203.9261 L448.9479 222.368 L450.7034 240.1822 L452.4589 257.1064 L454.2144 272.8933 L455.9699 287.314 L457.7255 300.161 L459.481 311.2514 L461.2365 320.4291 L462.992 327.5668 L464.7475 332.5678 L466.503 335.3668 L468.2585 335.9309 L470.014 334.2598 L471.7695 330.3851 L473.5251 324.3702 L475.2806 316.3087 L477.0361 306.3232 L478.7916 294.563 L480.5471 281.2019 L482.3026 266.4356 L484.0581 250.4788 L485.8136 233.5621 L487.5691 215.9285 L489.3246 197.8299 L491.0802 179.5237 L492.8357 161.2688 L494.5912 143.3226 L496.3467 125.9367 L498.1022 109.3539 L499.8577 93.8049 L501.6132 79.5047 L503.3687 66.6504 L505.1243 55.4179 L506.8798 45.9601 L508.6353 38.4046 L510.3908 32.8524 L512.1463 29.3761 L513.9018 28.0196 L515.6573 28.7974 L517.4128 31.6946 L519.1683 36.667 L520.9238 43.6423 L522.6794 52.5208 L524.4349 63.177 L526.1904 75.4615 L527.9459 89.203 L529.7014 104.2107 L531.4569 120.2772 L533.2124 137.1811 L534.968 154.6902 L536.7234 172.5645 L538.4789 190.5598 L540.2345 208.4305 L541.99 225.9334 L543.7455 242.831 L545.501 258.894 L547.2565 273.9053 L549.012 287.662 L550.7675 299.9789 L552.5231 310.6902 L554.2786 319.6524 L556.0341 326.7456 L557.7896 331.8752 L559.5451 334.9735 L561.3006 335.9999 L563.0561 334.9421 L564.8116 331.8155 L566.5671 326.6637 L568.3226 319.5572 L570.0782 310.5929 L571.8337 299.8926 L573.5892 287.6013 L575.3447 273.8853 L577.1002 258.9301 L578.8557 242.9374 L580.6112 226.1231 L582.3668 208.714 L584.1223 190.9449 L585.8777 173.0551 L587.6333 155.286 L589.3888 137.8769 L591.1443 121.0626 L592.8998 105.0699 L594.6553 90.1146 L596.4108 76.3987 L598.1664 64.1074 L599.9218 53.4071 L601.6774 44.4428 L603.4329 37.3363 L605.1884 32.1845 L606.9439 29.0579 L608.6994 28.0001 L610.4549 29.0265 L612.2104 32.1248 L613.9659 37.2544 L615.7214 44.3476 L617.4769 53.3098 L619.2325 64.0211 L620.988 76.338 L622.7435 90.0947 L624.499 105.106 L626.2545 121.169 L628.01 138.0666 L629.7656 155.5695 L631.521 173.4402 L633.2766 191.4355 L635.0321 209.3098 L636.7875 226.8189 L638.5431 243.7228 L640.2986 259.7893 L642.0541 274.797 L643.8096 288.5385 L645.5651 300.823 L647.3206 311.4792 L649.0762 320.3576 L650.8317 327.333 L652.5872 332.3054 L654.3427 335.2026 L656.0982 335.9804 L657.8538 334.6239 L659.6092 331.1476 L661.3647 325.5954 L663.1202 318.0399 L664.8757 308.5821 L666.6313 297.3496 L668.3868 284.4953 L670.1423 270.1951 L671.8978 254.6461 L673.6533 238.0633 L675.4088 220.6774 L677.1643 202.7312 L678.9199 184.4763 L680.6754 166.1701 L682.4308 148.0715 L684.1864 130.4379 L685.9419 113.5212 L687.6974 97.5644 L689.4529 82.7981 L691.2084 69.437 L692.9639 57.6768 L694.7195 47.6912 L696.4749 39.6298 L698.2305 33.6149 L699.986 29.7402 L701.7415 28.0691 L703.497 28.6332 L705.2525 31.4322 L707.008 36.4332 L708.7635 43.5709 L710.519 52.7486 L712.2745 63.839 L714.03 76.686 L715.7856 91.1067 L717.5411 106.8936 L719.2966 123.8178 L721.0521 141.632 L722.8076 160.0739 L724.5631 178.8701 L726.3187 197.74 L728.0742 216.3997 L729.8297 234.5667 L731.5852 251.9637 L733.3407 268.3229 L735.0962 283.3905 L736.8517 296.9301 L738.6072 308.727 L740.3627 318.5916 L742.1182 326.3621 L743.8738 331.9081 L745.6293 335.1323 L747.3848 335.9727 L749.1403 334.404 L750.8958 330.4382 L752.6513 324.1251 L754.4069 315.552 L756.1623 304.8424 L757.9178 292.1553 L759.6733 277.6822 L761.4288 261.6452 L763.1844 244.2934 L764.9399 225.8998 L766.6954 206.7567 L768.4509 187.1715 L770.2064 167.4619 L771.9619 147.9509 L773.7174 128.9615 L775.473 110.8117 L777.2285 93.8087 L778.9839 78.2441 L780.7395 64.3885 L782.495 52.487 L784.2505 42.7543 L786.006 35.3707 L787.7615 30.4788 L789.517 28.1802 L791.2726 28.533 L793.0281 31.5502 L794.7836 37.1989 L796.5391 45.3997 L798.2946 56.0274 L800.0501 68.9128 L801.8056 83.8442 L803.5612 100.5707 L805.3167 118.8062 L807.0721 138.2334 L808.8277 158.5093 L810.5831 179.2706 L812.3387 200.1401 L814.0942 220.7334 L815.8497 240.6655 L817.6052 259.5583 L819.3607 277.0476 L821.1162 292.7901 L822.8718 306.4705 L824.6273 317.808 L826.3828 326.5624 L828.1382 332.5396 L829.8938 335.5963 L831.6493 335.6441 L833.4048 332.6524 L835.1603 326.6504 L836.9158 317.7276 L838.6713 306.034 L840.4269 291.7782 L842.1823 275.2245 L843.9379 256.6895 L845.6934 236.5358 L847.4489 215.167 L849.2044 193.0194 L850.9599 170.554 L852.7154 148.2474 L854.4709 126.5821 L856.2264 106.0362 L857.982 87.073 L859.7375 70.1301 L861.493 55.6096 L863.2485 43.8679 L865.004 35.206 L866.7595 29.8614 L868.5151 28.0009 L870.2705 29.7141 L872.0261 35.0093 L873.7816 43.8103 L875.537 55.9559 L877.2926 71.2009 L879.0481 89.2187 L880.8036 109.6072 L882.5591 131.8955 L884.3146 155.5535 L886.0701 180.003 L887.8256 204.6306 L889.5812 228.8022 L891.3367 251.8784 L893.0922 273.2314 L894.8477 292.2617 L896.6032 308.4159 L898.3587 321.2024 L900.1143 330.2086 L901.8697 335.1149 L903.6252 335.7078 L905.3808 331.8905 L907.1362 323.6907 L908.8918 311.2658 L910.6473 294.9033 L912.4028 275.0191 L914.1583 252.1503 L915.9138 226.945 L917.6693 200.147 L919.4249 172.5777 L921.1804 145.113 L922.9359 118.6583 L924.6913 94.1196 L926.4469 72.3734 L928.2025 54.2349 L929.9579 40.4268 L931.7134 31.5479 L933.4689 28.0445 L935.2244 30.1852 L936.98 38.0396 L938.7355 51.4632 L940.491 70.0892 L942.2465 93.3283 L944.002 120.3766 L945.7575 150.2341 L947.513 181.7319 L949.2686 213.57 L951.024 244.3634 L952.7795 272.6971 L954.5351 297.1887 L956.2906 316.554 L958.0461 329.6776 L959.8016 335.6815 L961.5571 333.9897 L963.3126 324.3866 L965.0682 307.0612 L966.8236 282.6379 L968.5792 252.1846 L970.3347 217.1983 L972.0901 179.5629 L973.8457 141.4771 L975.6012 105.3524 L977.3567 73.6804 L979.1122 48.8741 L980.8677 33.0874 L982.6232 28.0212 L984.3787 34.7285 L986.1343 53.4323 L987.8898 83.3756 L989.6453 122.7237 L991.4008 168.5424 L993.1563 216.8769 L994.9118 262.9541 L996.6674 301.5278 L998.4229 327.3779 L1000.1783 335.9625 L1001.9339 324.1999 L1003.6894 291.3273 L1005.4449 239.7427 L1007.2004 175.6778 L1008.9559 109.4714 L1010.7114 55.1164 L1012.4669 28.6174 L1014.2225 44.5341 L1015.978 109.8707 L1017.7335 214.2098 L1019.489 314.6553 L1021.2444 313.7464 L1023 28" style="fill:none; fill-rule:evenodd;"></path></g><g style="fill-opacity:0.302; fill:rgb(255,41,117); text-rendering:optimizeSpeed; image-rendering:optimizeSpeed; color-rendering:optimizeSpeed; shape-rendering:crispEdges; stroke:rgb(255,41,117); color-interpolation:sRGB; stroke-opacity:0.302;"><path style="stroke:none;" d="M147.9461 182 L148.7555 182 L150.511 182 L152.2665 182 L152.8085 182 L152.2665 149.7902 L150.511 49.3447 L148.7555 50.2536 ZM164.5551 182 L166.3106 182 L168.0661 182 L169.8216 182 L171.5771 182 L173.3327 182 L175.0882 182 L176.8437 182 L178.1104 182 L176.8437 147.1231 L175.0882 101.0459 L173.3327 62.4722 L171.5771 36.6221 L169.8216 28.0375 L168.0661 39.8001 L166.3106 72.6727 L164.5551 124.2573 L162.9728 182 ZM198.0235 182 L199.6653 182 L201.4208 182 L203.1763 182 L204.9319 182 L206.6874 182 L208.4429 182 L210.1984 182 L211.9539 182 L213.7094 182 L215.4649 182 L217.2204 182 L218.976 182 L220.7315 182 L222.4722 182 L220.7315 150.43 L218.976 119.6366 L217.2204 91.3028 L215.4649 66.8114 L213.7094 47.446 L211.9539 34.3224 L210.1984 28.3185 L208.4429 30.0103 L206.6874 39.6134 L204.9319 56.9388 L203.1763 81.3621 L201.4208 111.8154 L199.6653 146.8017 ZM254.0862 182 L255.8417 182 L257.5972 182 L259.3527 182 L261.1082 182 L262.8637 182 L264.6192 182 L266.3748 182 L268.1302 182 L269.8858 182 L271.6413 182 L273.3968 182 L275.1523 182 L276.9078 182 L278.6633 182 L280.4188 182 L282.1743 182 L283.7875 182 L282.1743 159.3694 L280.4188 135.1978 L278.6633 112.1217 L276.9078 90.7687 L275.1523 71.7382 L273.3968 55.5841 L271.6413 42.7976 L269.8858 33.7914 L268.1302 28.8851 L266.3748 28.2922 L264.6192 32.1095 L262.8637 40.3093 L261.1082 52.7342 L259.3527 69.0967 L257.5972 88.9809 L255.8417 111.8497 L254.0862 137.055 L252.3307 163.853 L251.1751 182 L252.3307 182 ZM320.7956 182 L322.5511 182 L324.3066 182 L326.0621 182 L327.8176 182 L329.5732 182 L331.3287 182 L333.0842 182 L334.8397 182 L336.5952 182 L338.3507 182 L340.1062 182 L341.8617 182 L343.6172 182 L345.3727 182 L347.1283 182 L348.8838 182 L350.6393 182 L352.3948 182 L354.1503 182 L355.9058 182 L357.6613 182 L359.1872 182 L357.6613 163.8599 L355.9058 143.2666 L354.1503 123.3345 L352.3948 104.4417 L350.6393 86.9524 L348.8838 71.2099 L347.1283 57.5295 L345.3727 46.192 L343.6172 37.4376 L341.8617 31.4604 L340.1062 28.4037 L338.3507 28.3559 L336.5952 31.3476 L334.8397 37.3496 L333.0842 46.2724 L331.3287 57.966 L329.5732 72.2218 L327.8176 88.7754 L326.0621 107.3106 L324.3066 127.4642 L322.5511 148.833 L320.7956 170.9806 L319.9345 182 ZM401.0885 182 L401.5491 182 L403.3046 182 L405.0601 182 L406.8156 182 L408.5711 182 L410.3267 182 L412.0822 182 L413.8377 182 L415.5932 182 L417.3487 182 L419.1042 182 L420.8597 182 L422.6152 182 L424.3707 182 L426.1263 182 L427.8818 182 L429.6373 182 L431.3928 182 L433.1483 182 L434.9038 182 L436.6593 182 L438.4148 182 L440.1703 182 L441.9258 182 L443.6814 182 L445.1457 182 L443.6814 166.26 L441.9258 147.6003 L440.1703 129.4333 L438.4148 112.0363 L436.6593 95.6771 L434.9038 80.6095 L433.1483 67.0699 L431.3928 55.273 L429.6373 45.4085 L427.8818 37.6379 L426.1263 32.0919 L424.3707 28.8677 L422.6152 28.0273 L420.8597 29.596 L419.1042 33.5618 L417.3487 39.8749 L415.5932 48.448 L413.8377 59.1576 L412.0822 71.8447 L410.3267 86.3178 L408.5711 102.3548 L406.8156 119.7066 L405.0601 138.1002 L403.3046 157.2433 L401.5491 176.8285 ZM490.8427 182 L491.0802 182 L492.8357 182 L494.5912 182 L496.3467 182 L498.1022 182 L499.8577 182 L501.6132 182 L503.3687 182 L505.1243 182 L506.8798 182 L508.6353 182 L510.3908 182 L512.1463 182 L513.9018 182 L515.6573 182 L517.4128 182 L519.1683 182 L520.9238 182 L522.6794 182 L524.4349 182 L526.1904 182 L527.9459 182 L529.7014 182 L531.4569 182 L533.2124 182 L534.968 182 L536.7234 182 L537.6439 182 L536.7234 172.5645 L534.968 154.6902 L533.2124 137.1811 L531.4569 120.2772 L529.7014 104.2107 L527.9459 89.203 L526.1904 75.4615 L524.4349 63.177 L522.6794 52.5208 L520.9238 43.6423 L519.1683 36.667 L517.4128 31.6946 L515.6573 28.7974 L513.9018 28.0196 L512.1463 29.3761 L510.3908 32.8524 L508.6353 38.4046 L506.8798 45.9601 L505.1243 55.4179 L503.3687 66.6504 L501.6132 79.5047 L499.8577 93.8049 L498.1022 109.3539 L496.3467 125.9367 L494.5912 143.3226 L492.8357 161.2688 L491.0802 179.5237 ZM585.8777 182 L587.6333 182 L589.3888 182 L591.1443 182 L592.8998 182 L594.6553 182 L596.4108 182 L598.1664 182 L599.9218 182 L601.6774 182 L603.4329 182 L605.1884 182 L606.9439 182 L608.6994 182 L610.4549 182 L612.2104 182 L613.9659 182 L615.7214 182 L617.4769 182 L619.2325 182 L620.988 182 L622.7435 182 L624.499 182 L626.2545 182 L628.01 182 L629.7656 182 L631.521 182 L632.3561 182 L631.521 173.4402 L629.7656 155.5695 L628.01 138.0666 L626.2545 121.169 L624.499 105.106 L622.7435 90.0947 L620.988 76.338 L619.2325 64.0211 L617.4769 53.3098 L615.7214 44.3476 L613.9659 37.2544 L612.2104 32.1248 L610.4549 29.0265 L608.6994 28.0001 L606.9439 29.0579 L605.1884 32.1845 L603.4329 37.3363 L601.6774 44.4428 L599.9218 53.4071 L598.1664 64.1074 L596.4108 76.3987 L594.6553 90.1146 L592.8998 105.0699 L591.1443 121.0626 L589.3888 137.8769 L587.6333 155.286 L585.8777 173.0551 L585 182 ZM680.6754 182 L682.4308 182 L684.1864 182 L685.9419 182 L687.6974 182 L689.4529 182 L691.2084 182 L692.9639 182 L694.7195 182 L696.4749 182 L698.2305 182 L699.986 182 L701.7415 182 L703.497 182 L705.2525 182 L707.008 182 L708.7635 182 L710.519 182 L712.2745 182 L714.03 182 L715.7856 182 L717.5411 182 L719.2966 182 L721.0521 182 L722.8076 182 L724.5631 182 L724.8543 182 L724.5631 178.8701 L722.8076 160.0739 L721.0521 141.632 L719.2966 123.8178 L717.5411 106.8936 L715.7856 91.1067 L714.03 76.686 L712.2745 63.839 L710.519 52.7486 L708.7635 43.5709 L707.008 36.4332 L705.2525 31.4322 L703.497 28.6332 L701.7415 28.0691 L699.986 29.7402 L698.2305 33.6149 L696.4749 39.6298 L694.7195 47.6912 L692.9639 57.6768 L691.2084 69.437 L689.4529 82.7981 L687.6974 97.5644 L685.9419 113.5212 L684.1864 130.4379 L682.4308 148.0715 L680.6754 166.1701 L679.1573 182 ZM771.9619 182 L773.7174 182 L775.473 182 L777.2285 182 L778.9839 182 L780.7395 182 L782.495 182 L784.2505 182 L786.006 182 L787.7615 182 L789.517 182 L791.2726 182 L793.0281 182 L794.7836 182 L796.5391 182 L798.2946 182 L800.0501 182 L801.8056 182 L803.5612 182 L805.3167 182 L807.0721 182 L808.8277 182 L810.5831 182 L810.8127 182 L810.5831 179.2706 L808.8277 158.5093 L807.0721 138.2334 L805.3167 118.8062 L803.5612 100.5707 L801.8056 83.8442 L800.0501 68.9128 L798.2946 56.0274 L796.5391 45.3997 L794.7836 37.1989 L793.0281 31.5502 L791.2726 28.533 L789.517 28.1802 L787.7615 30.4788 L786.006 35.3707 L784.2505 42.7543 L782.495 52.487 L780.7395 64.3885 L778.9839 78.2441 L777.2285 93.8087 L775.473 110.8117 L773.7174 128.9615 L771.9619 147.9509 L770.2064 167.4619 L768.9115 182 L770.2064 182 ZM850.9599 182 L852.7154 182 L854.4709 182 L856.2264 182 L857.982 182 L859.7375 182 L861.493 182 L863.2485 182 L865.004 182 L866.7595 182 L868.5151 182 L870.2705 182 L872.0261 182 L873.7816 182 L875.537 182 L877.2926 182 L879.0481 182 L880.8036 182 L882.5591 182 L884.3146 182 L886.0701 182 L886.2125 182 L886.0701 180.003 L884.3146 155.5535 L882.5591 131.8955 L880.8036 109.6072 L879.0481 89.2187 L877.2926 71.2009 L875.537 55.9559 L873.7816 43.8103 L872.0261 35.0093 L870.2705 29.7141 L868.5151 28.0009 L866.7595 29.8614 L865.004 35.206 L863.2485 43.8679 L861.493 55.6096 L859.7375 70.1301 L857.982 87.073 L856.2264 106.0362 L854.4709 126.5821 L852.7154 148.2474 L850.9599 170.554 L850.0655 182 ZM919.4249 182 L921.1804 182 L922.9359 182 L924.6913 182 L926.4469 182 L928.2025 182 L929.9579 182 L931.7134 182 L933.4689 182 L935.2244 182 L936.98 182 L938.7355 182 L940.491 182 L942.2465 182 L944.002 182 L945.7575 182 L947.513 182 L947.5278 182 L947.513 181.7319 L945.7575 150.2341 L944.002 120.3766 L942.2465 93.3283 L940.491 70.0892 L938.7355 51.4632 L936.98 38.0396 L935.2244 30.1852 L933.4689 28.0445 L931.7134 31.5479 L929.9579 40.4268 L928.2025 54.2349 L926.4469 72.3734 L924.6913 94.1196 L922.9359 118.6583 L921.1804 145.113 L919.4249 172.5777 L918.8248 182 ZM972.0901 182 L973.8457 182 L975.6012 182 L977.3567 182 L979.1122 182 L980.8677 182 L982.6232 182 L984.3787 182 L986.1343 182 L987.8898 182 L989.6453 182 L991.4008 182 L991.8896 182 L991.4008 168.5424 L989.6453 122.7237 L987.8898 83.3756 L986.1343 53.4323 L984.3787 34.7285 L982.6232 28.0212 L980.8677 33.0874 L979.1122 48.8741 L977.3567 73.6804 L975.6012 105.3524 L973.8457 141.4771 L972.0901 179.5629 L971.9765 182 ZM1007.2004 175.6778 L1007.0272 182 L1007.2004 182 L1008.9559 182 L1010.7114 182 L1012.4669 182 L1014.2225 182 L1015.978 182 L1017.1915 182 L1015.978 109.8707 L1014.2225 44.5341 L1012.4669 28.6174 L1010.7114 55.1164 L1008.9559 109.4714 ZM1023 182 L1023 28 L1022.0539 182 ZM147 336 L147.9461 182 L147 182 ZM155.7776 319.4659 L157.5331 335.3826 L159.2886 308.8836 L161.0441 254.5286 L162.7996 188.3222 L162.9728 182 L162.7996 182 L161.0441 182 L159.2886 182 L157.5331 182 L155.7776 182 L154.022 182 L152.8085 182 L154.022 254.1293 ZM185.6212 329.2715 L187.3768 335.9788 L189.1323 330.9126 L190.8878 315.1259 L192.6433 290.3196 L194.3988 258.6476 L196.1543 222.5229 L197.9098 184.4371 L198.0235 182 L197.9098 182 L196.1543 182 L194.3988 182 L192.6433 182 L190.8878 182 L189.1323 182 L187.3768 182 L185.6212 182 L183.8657 182 L182.1102 182 L180.3547 182 L178.5992 182 L178.1104 182 L178.5992 195.4576 L180.3547 241.2763 L182.1102 280.6244 L183.8657 310.5677 ZM234.7755 333.8148 L236.5311 335.9555 L238.2866 332.4521 L240.0421 323.5732 L241.7976 309.7651 L243.5531 291.6266 L245.3086 269.8804 L247.0641 245.3417 L248.8196 218.887 L250.5751 191.4223 L251.1751 182 L250.5751 182 L248.8196 182 L247.0641 182 L245.3086 182 L243.5531 182 L241.7976 182 L240.0421 182 L238.2866 182 L236.5311 182 L234.7755 182 L233.02 182 L231.2645 182 L229.509 182 L227.7535 182 L225.998 182 L224.2425 182 L222.487 182 L222.4722 182 L222.487 182.2681 L224.2425 213.7659 L225.998 243.6234 L227.7535 270.6717 L229.509 293.9108 L231.2645 312.5368 L233.02 325.9604 ZM301.485 335.9991 L303.2405 334.1385 L304.996 328.794 L306.7515 320.1321 L308.507 308.3904 L310.2625 293.8699 L312.018 276.9271 L313.7736 257.9638 L315.5291 237.4179 L317.2846 215.7526 L319.0401 193.446 L319.9345 182 L319.0401 182 L317.2846 182 L315.5291 182 L313.7736 182 L312.018 182 L310.2625 182 L308.507 182 L306.7515 182 L304.996 182 L303.2405 182 L301.485 182 L299.7295 182 L297.9739 182 L296.2184 182 L294.4629 182 L292.7074 182 L290.9519 182 L289.1964 182 L287.4409 182 L285.6854 182 L283.9299 182 L283.7875 182 L283.9299 183.997 L285.6854 208.4465 L287.4409 232.1045 L289.1964 254.3928 L290.9519 274.7813 L292.7074 292.7991 L294.4629 308.0441 L296.2184 320.1897 L297.9739 328.9907 L299.7295 334.2859 ZM378.7274 335.467 L380.483 335.8198 L382.2385 333.5212 L383.994 328.6293 L385.7495 321.2457 L387.505 311.513 L389.2605 299.6115 L391.0161 285.7559 L392.7715 270.1913 L394.527 253.1883 L396.2826 235.0385 L398.0381 216.0491 L399.7936 196.5381 L401.0885 182 L399.7936 182 L398.0381 182 L396.2826 182 L394.527 182 L392.7715 182 L391.0161 182 L389.2605 182 L387.505 182 L385.7495 182 L383.994 182 L382.2385 182 L380.483 182 L378.7274 182 L376.972 182 L375.2164 182 L373.4609 182 L371.7054 182 L369.9499 182 L368.1944 182 L366.4389 182 L364.6834 182 L362.9279 182 L361.1724 182 L359.4168 182 L359.1872 182 L359.4168 184.7294 L361.1724 205.4907 L362.9279 225.7666 L364.6834 245.1938 L366.4389 263.4293 L368.1944 280.1559 L369.9499 295.0872 L371.7054 307.9726 L373.4609 318.6003 L375.2164 326.8011 L376.972 332.4498 ZM466.503 335.3668 L468.2585 335.9309 L470.014 334.2598 L471.7695 330.3851 L473.5251 324.3702 L475.2806 316.3087 L477.0361 306.3232 L478.7916 294.563 L480.5471 281.2019 L482.3026 266.4356 L484.0581 250.4788 L485.8136 233.5621 L487.5691 215.9285 L489.3246 197.8299 L490.8427 182 L489.3246 182 L487.5691 182 L485.8136 182 L484.0581 182 L482.3026 182 L480.5471 182 L478.7916 182 L477.0361 182 L475.2806 182 L473.5251 182 L471.7695 182 L470.014 182 L468.2585 182 L466.503 182 L464.7475 182 L462.992 182 L461.2365 182 L459.481 182 L457.7255 182 L455.9699 182 L454.2144 182 L452.4589 182 L450.7034 182 L448.9479 182 L447.1924 182 L445.4369 182 L445.1457 182 L445.4369 185.1299 L447.1924 203.9261 L448.9479 222.368 L450.7034 240.1822 L452.4589 257.1064 L454.2144 272.8933 L455.9699 287.314 L457.7255 300.161 L459.481 311.2514 L461.2365 320.4291 L462.992 327.5668 L464.7475 332.5678 ZM559.5451 334.9735 L561.3006 335.9999 L563.0561 334.9421 L564.8116 331.8155 L566.5671 326.6637 L568.3226 319.5572 L570.0782 310.5929 L571.8337 299.8926 L573.5892 287.6013 L575.3447 273.8853 L577.1002 258.9301 L578.8557 242.9374 L580.6112 226.1231 L582.3668 208.714 L584.1223 190.9449 L585 182 L584.1223 182 L582.3668 182 L580.6112 182 L578.8557 182 L577.1002 182 L575.3447 182 L573.5892 182 L571.8337 182 L570.0782 182 L568.3226 182 L566.5671 182 L564.8116 182 L563.0561 182 L561.3006 182 L559.5451 182 L557.7896 182 L556.0341 182 L554.2786 182 L552.5231 182 L550.7675 182 L549.012 182 L547.2565 182 L545.501 182 L543.7455 182 L541.99 182 L540.2345 182 L538.4789 182 L537.6439 182 L538.4789 190.5598 L540.2345 208.4305 L541.99 225.9334 L543.7455 242.831 L545.501 258.894 L547.2565 273.9053 L549.012 287.662 L550.7675 299.9789 L552.5231 310.6902 L554.2786 319.6524 L556.0341 326.7456 L557.7896 331.8752 ZM654.3427 335.2026 L656.0982 335.9804 L657.8538 334.6239 L659.6092 331.1476 L661.3647 325.5954 L663.1202 318.0399 L664.8757 308.5821 L666.6313 297.3496 L668.3868 284.4953 L670.1423 270.1951 L671.8978 254.6461 L673.6533 238.0633 L675.4088 220.6774 L677.1643 202.7312 L678.9199 184.4763 L679.1573 182 L678.9199 182 L677.1643 182 L675.4088 182 L673.6533 182 L671.8978 182 L670.1423 182 L668.3868 182 L666.6313 182 L664.8757 182 L663.1202 182 L661.3647 182 L659.6092 182 L657.8538 182 L656.0982 182 L654.3427 182 L652.5872 182 L650.8317 182 L649.0762 182 L647.3206 182 L645.5651 182 L643.8096 182 L642.0541 182 L640.2986 182 L638.5431 182 L636.7875 182 L635.0321 182 L633.2766 182 L632.3561 182 L633.2766 191.4355 L635.0321 209.3098 L636.7875 226.8189 L638.5431 243.7228 L640.2986 259.7893 L642.0541 274.797 L643.8096 288.5385 L645.5651 300.823 L647.3206 311.4792 L649.0762 320.3576 L650.8317 327.333 L652.5872 332.3054 ZM745.6293 335.1323 L747.3848 335.9727 L749.1403 334.404 L750.8958 330.4382 L752.6513 324.1251 L754.4069 315.552 L756.1623 304.8424 L757.9178 292.1553 L759.6733 277.6822 L761.4288 261.6452 L763.1844 244.2934 L764.9399 225.8998 L766.6954 206.7567 L768.4509 187.1715 L768.9115 182 L768.4509 182 L766.6954 182 L764.9399 182 L763.1844 182 L761.4288 182 L759.6733 182 L757.9178 182 L756.1623 182 L754.4069 182 L752.6513 182 L750.8958 182 L749.1403 182 L747.3848 182 L745.6293 182 L743.8738 182 L742.1182 182 L740.3627 182 L738.6072 182 L736.8517 182 L735.0962 182 L733.3407 182 L731.5852 182 L729.8297 182 L728.0742 182 L726.3187 182 L724.8543 182 L726.3187 197.74 L728.0742 216.3997 L729.8297 234.5667 L731.5852 251.9637 L733.3407 268.3229 L735.0962 283.3905 L736.8517 296.9301 L738.6072 308.727 L740.3627 318.5916 L742.1182 326.3621 L743.8738 331.9081 ZM829.8938 335.5963 L831.6493 335.6441 L833.4048 332.6524 L835.1603 326.6504 L836.9158 317.7276 L838.6713 306.034 L840.4269 291.7782 L842.1823 275.2245 L843.9379 256.6895 L845.6934 236.5358 L847.4489 215.167 L849.2044 193.0194 L850.0655 182 L849.2044 182 L847.4489 182 L845.6934 182 L843.9379 182 L842.1823 182 L840.4269 182 L838.6713 182 L836.9158 182 L835.1603 182 L833.4048 182 L831.6493 182 L829.8938 182 L828.1382 182 L826.3828 182 L824.6273 182 L822.8718 182 L821.1162 182 L819.3607 182 L817.6052 182 L815.8497 182 L814.0942 182 L812.3387 182 L810.8127 182 L812.3387 200.1401 L814.0942 220.7334 L815.8497 240.6655 L817.6052 259.5583 L819.3607 277.0476 L821.1162 292.7901 L822.8718 306.4705 L824.6273 317.808 L826.3828 326.5624 L828.1382 332.5396 ZM903.6252 335.7078 L905.3808 331.8905 L907.1362 323.6907 L908.8918 311.2658 L910.6473 294.9033 L912.4028 275.0191 L914.1583 252.1503 L915.9138 226.945 L917.6693 200.147 L918.8248 182 L917.6693 182 L915.9138 182 L914.1583 182 L912.4028 182 L910.6473 182 L908.8918 182 L907.1362 182 L905.3808 182 L903.6252 182 L901.8697 182 L900.1143 182 L898.3587 182 L896.6032 182 L894.8477 182 L893.0922 182 L891.3367 182 L889.5812 182 L887.8256 182 L886.2125 182 L887.8256 204.6306 L889.5812 228.8022 L891.3367 251.8784 L893.0922 273.2314 L894.8477 292.2617 L896.6032 308.4159 L898.3587 321.2024 L900.1143 330.2086 L901.8697 335.1149 ZM956.2906 316.554 L958.0461 329.6776 L959.8016 335.6815 L961.5571 333.9897 L963.3126 324.3866 L965.0682 307.0612 L966.8236 282.6379 L968.5792 252.1846 L970.3347 217.1983 L971.9765 182 L970.3347 182 L968.5792 182 L966.8236 182 L965.0682 182 L963.3126 182 L961.5571 182 L959.8016 182 L958.0461 182 L956.2906 182 L954.5351 182 L952.7795 182 L951.024 182 L949.2686 182 L947.5278 182 L949.2686 213.57 L951.024 244.3634 L952.7795 272.6971 L954.5351 297.1887 ZM996.6674 301.5278 L998.4229 327.3779 L1000.1783 335.9625 L1001.9339 324.1999 L1003.6894 291.3273 L1005.4449 239.7427 L1007.0272 182 L1005.4449 182 L1003.6894 182 L1001.9339 182 L1000.1783 182 L998.4229 182 L996.6674 182 L994.9118 182 L993.1563 182 L991.8896 182 L993.1563 216.8769 L994.9118 262.9541 ZM1017.7335 214.2098 L1019.489 314.6553 L1021.2444 313.7464 L1022.0539 182 L1021.2444 182 L1019.489 182 L1017.7335 182 L1017.1915 182 Z"></path></g></g></svg> 